<?xml version="1.0" encoding="UTF-8"?>
<svg width="44px" height="44px" viewBox="0 0 44 44" version="1.1" xmlns="http://www.w3.org/2000/svg" xmlns:xlink="http://www.w3.org/1999/xlink">
    <!-- Generator: Sketch 55.1 (78136) - https://sketchapp.com -->
    <desc>Created with Sketch.</desc>
    <g id="Responsive" stroke="none" stroke-width="1" fill="none" fill-rule="evenodd">
        <path d="M21.9992309,11.5671824 C21.7616489,11.5671824 21.5338104,11.4727673 21.3658972,11.3047327 C21.1979839,11.136698 21.1037686,10.9088262 21.1040018,10.6713062 C21.1040018,10.3088782 21.3224277,9.98215382 21.6573887,9.843541 C21.9923497,9.70492817 22.3778511,9.78173693 22.6340671,10.0381381 C22.8902831,10.2945393 22.9667329,10.6800157 22.8277549,11.0147532 C22.6887769,11.3494907 22.361753,11.5675379 21.9992309,11.5671824 Z M21.9992309,8.30841223 C21.7611901,8.30841223 21.53295,8.21363665 21.3649605,8.04503028 C21.1969709,7.8764239 21.103066,7.64787286 21.1039953,7.40989591 C21.1054602,6.91534919 21.5074839,6.51553003 22.0021602,6.51666062 C22.4968364,6.517796 22.8970235,6.91945251 22.8962162,7.41400072 C22.8954064,7.90854892 22.4939082,8.30889545 21.9992309,8.30841223 Z M23.405893,4.15376588 C23.405893,4.64834563 23.015936,5.04964165 22.7333712,5.04964165 L21.2642103,5.04964165 C20.9816455,5.04964165 20.5916885,4.64746559 20.5916885,4.15376588 C20.5916885,3.66006616 20.9816455,3.25877014 21.2642103,3.25877014 L22.7333712,3.25877014 C23.015936,3.25877014 23.405893,3.66006616 23.405893,4.15376588 Z M18.2246581,3.62574479 C18.4984203,3.56062219 18.9755234,3.85103379 19.0925986,4.33065294 C19.2096737,4.81027209 18.9262287,5.29253135 18.6524665,5.36029406 L17.2264385,5.71230812 C16.9517961,5.78359096 16.4755732,5.48877919 16.3584981,5.00828 C16.2414229,4.52778081 16.5239877,4.04552156 16.7986302,3.97775885 L18.2246581,3.62574479 Z M12.6341004,5.74838956 L13.9351308,5.06548229 C14.1851259,4.92995687 14.7141646,5.10860401 14.9465544,5.54598147 C15.1789441,5.98335894 15.0204965,6.51930034 14.7705015,6.65042558 L13.4694711,7.33333285 C13.2194761,7.46445809 12.6904373,7.2919712 12.4580476,6.8537137 C12.2256578,6.4154562 12.3841054,5.87951479 12.6341004,5.74838956 Z M9.10600162,9.57742247 C8.77766309,9.20780771 8.80407101,8.64898539 9.01533441,8.46593808 L10.1174251,7.48821904 C10.3286885,7.30077155 10.8885366,7.34125317 11.2142343,7.71174796 C11.539932,8.08224276 11.5135241,8.64018504 11.3022607,8.82763253 L10.2028108,9.80183143 C9.99154737,9.98927891 9.43434015,9.94791726 9.10600162,9.57742247 Z M6.50570127,13.0245201 C6.09901923,12.7437889 5.99074674,12.195527 6.15359561,11.9631977 L6.98808604,10.7540295 C7.14829412,10.5217002 7.70286054,10.4284165 8.10690179,10.7091477 C8.51094304,10.9898789 8.61921554,11.5381408 8.45900746,11.77047 L7.62539729,12.9796383 C7.46430895,13.2119676 6.91326358,13.3052513 6.50570127,13.0245201 Z M4.80943223,16.9934786 C4.34465275,16.8183516 4.10522089,16.3114514 4.20997233,16.0474408 L4.73020845,14.674586 C4.83055857,14.4096954 5.34375258,14.1870465 5.80589126,14.3621735 C6.26802995,14.5373005 6.50482101,15.0442008 6.40535116,15.3082113 L5.88423477,16.6819462 C5.78476492,16.9459567 5.27157091,17.1694857 4.80943223,16.9934786 Z M3.47671228,19.0201996 C3.51016232,18.7403484 3.95381546,18.4015349 4.44500286,18.4604972 C4.93619027,18.5194596 5.28741567,18.955077 5.25308537,19.2358082 L5.07703253,20.6931464 C5.04446276,20.9738776 4.59904909,21.3118111 4.10874195,21.2528487 C3.61843481,21.1938864 3.26720941,20.758269 3.30065945,20.4784178 L3.47671228,19.0201996 Z M4.44940418,25.5562206 C3.95821678,25.616063 3.51368338,25.2746093 3.4811136,24.9973983 L3.30506077,23.5400601 C3.27073047,23.2593288 3.62283613,22.8210713 4.11226301,22.7638691 C4.60168988,22.7066668 5.04622329,23.0428402 5.08055359,23.3226914 L5.25660642,24.7809096 C5.29093673,25.0607608 4.94059159,25.4963782 4.44940418,25.5562206 Z M4.73549004,29.3421318 L4.21349339,27.9692769 C4.11314327,27.7052664 4.35257513,27.1983661 4.81207302,27.0232392 C5.27157091,26.8481122 5.78740572,27.069881 5.88775583,27.3338916 L6.40887222,28.7067464 C6.50922233,28.9707569 6.27067074,29.4767771 5.81117285,29.6527842 C5.35167495,29.8287912 4.83584015,29.6061423 4.73549004,29.3421318 Z M8.11394391,33.30493 C7.70726186,33.5856612 7.15533623,33.4932575 6.99512815,33.2609283 L6.15975746,32.05264 C5.99778885,31.8203107 6.10430082,31.2711688 6.51186312,30.9904376 C6.91942543,30.7097064 7.4704708,30.8021101 7.63155914,31.0344393 L8.46604957,32.2427276 C8.62889844,32.4750569 8.52062595,33.0233188 8.11394391,33.30493 Z M11.2239172,36.2988096 C10.8964589,36.6693044 10.3383715,36.7150662 10.1271081,36.5240986 L9.02677785,35.5507797 C8.81375392,35.3642122 8.78734599,34.8053899 9.11480426,34.4348951 C9.44226253,34.0644003 10.00035,34.0230387 10.2116134,34.2096061 L11.3119436,35.182925 C11.5258478,35.3703725 11.5522557,35.9283148 11.2239172,36.2988096 Z M14.7810647,37.3566118 C15.0310597,37.487737 15.1895073,38.0236784 14.9606386,38.461936 C14.7317699,38.9001935 14.2000903,39.0735604 13.9500953,38.9424351 L12.6490649,38.2612879 C12.3981896,38.1301627 12.2388618,37.5951013 12.4686107,37.1568438 C12.6983597,36.7185863 13.2300392,36.5443394 13.4800343,36.6754646 L14.7810647,37.3566118 Z M18.6683113,38.637943 C18.9420734,38.7057057 19.2255185,39.1870849 19.1075631,39.6675841 C18.9896077,40.1480833 18.5151453,40.4437751 18.2405029,40.3768924 L16.8144749,40.0248784 C16.5398325,39.9571157 16.2563874,39.4739764 16.3743428,38.9943572 C16.4922982,38.5147381 16.9667606,38.2181662 17.241403,38.2859289 L18.6683113,38.637943 Z M21.2809353,40.742987 C20.9983705,40.742987 20.6075332,40.3425711 20.6075332,39.8479913 C20.6075332,39.3534116 20.99661,38.9521155 21.2791748,38.9521155 L22.7483357,38.9521155 C23.0309005,38.9521155 23.4217377,39.3534116 23.4217377,39.8471113 C23.4217377,40.340811 23.032661,40.742987 22.7500962,40.742987 L21.2809353,40.742987 Z M25.7896484,40.3698521 C25.5150059,40.4376148 25.0379028,40.1454432 24.9217079,39.665824 C24.805513,39.1862049 25.0880778,38.7030656 25.36184,38.6353029 L26.7878679,38.2832888 C27.0625103,38.212006 27.5396135,38.5068177 27.6558084,38.9873169 C27.7720033,39.4678161 27.4894385,39.9500754 27.2156763,40.0178381 L25.7896484,40.3698521 Z M31.3775653,38.2445673 L30.0765348,38.9283546 C29.8274201,39.0603598 29.2975011,38.8869929 29.0651113,38.4496155 C28.8327216,38.012238 28.9911691,37.4754166 29.2411641,37.3442913 L30.5413143,36.660504 C30.7913093,36.5293788 31.3212284,36.7027457 31.5536181,37.1401232 C31.7860079,37.5775006 31.6275603,38.113442 31.3775653,38.2445673 Z M34.9030233,34.4128943 C35.2313618,34.7789889 35.2058341,35.3404513 34.9910497,35.5278988 L33.89248,36.5029777 C33.6812166,36.6904252 33.1204883,36.6499436 32.7956708,36.2803288 C32.4708534,35.9107141 32.496381,35.3518918 32.7076444,35.1644443 L33.8053338,34.1893653 C34.0165972,34.0019178 34.5746847,34.0423995 34.9030233,34.4128943 Z M37.4998025,30.9631565 C37.9073649,31.2438877 38.0156374,31.7921496 37.8519082,32.0244789 L37.0191783,33.2345272 C36.8589702,33.4668565 36.3044038,33.5601402 35.9003626,33.280289 C35.4963213,33.0004378 35.3880488,32.4512959 35.5482569,32.2189666 L36.3809868,31.0097984 C36.5411949,30.776589 37.0922402,30.6833053 37.4998025,30.9631565 Z M38.2004928,29.624623 C37.7374739,29.4503761 37.5006828,28.9434758 37.6010329,28.6794653 L38.1195085,27.3057304 C38.2198586,27.0417199 38.7330526,26.818191 39.1951913,26.993318 C39.65733,27.168445 39.8950013,27.6744652 39.7946512,27.9384757 L39.2761756,29.3122106 C39.1758255,29.5762211 38.6626315,29.8006301 38.2004928,29.624623 Z M40.5243902,24.964837 C40.4900599,25.2455682 40.047287,25.5843817 39.5560996,25.5254193 C39.0649122,25.466457 38.7136868,25.0317196 38.7471369,24.7518684 L38.9231897,23.2936502 C38.9557595,23.012919 39.4002929,22.6741055 39.8914803,22.7330678 C40.3826677,22.7920302 40.7338931,23.2267675 40.7004431,23.5066187 L40.5243902,24.964837 Z M38.7392145,19.2023668 C38.7048842,18.9260358 39.0569899,18.4842582 39.5455365,18.4261758 C40.0340831,18.3680935 40.4794968,18.7042669 40.5138271,18.9841181 L40.6898799,20.4414563 C40.7242102,20.7221875 40.3721045,21.1613251 39.8835579,21.2185273 C39.3950113,21.2757296 38.9495976,20.9404362 38.9152673,20.659705 L38.7392145,19.2023668 Z M39.2568098,14.6437848 L39.7796867,16.0166396 C39.8800369,16.2797701 39.6423655,16.7884304 39.1819874,16.9635574 C38.7216092,17.1386844 38.2066547,16.9177956 38.1054243,16.6537851 L37.5834276,15.2809302 C37.4821973,15.0169197 37.7198686,14.5100194 38.1802468,14.3340124 C38.6406249,14.1580054 39.1564597,14.3797742 39.2568098,14.6437848 Z M35.8739546,10.6845067 C36.2806367,10.4020154 36.8325623,10.4952991 36.9927704,10.7276284 L37.8290213,11.9350366 C37.99099,12.1673659 37.8835977,12.7156278 37.4769157,12.997239 C37.0702336,13.2788503 36.5191883,13.1864466 36.3580999,12.9541173 L35.521849,11.7467091 C35.3598804,11.5143798 35.4681529,10.9661179 35.8739546,10.6845067 Z M32.7613405,7.69326723 C33.0887988,7.32189239 33.646006,7.28053074 33.8581497,7.46709819 L34.9593602,8.43601689 C35.1715038,8.62258434 35.198792,9.18140665 34.8713338,9.55190145 C34.5438755,9.92239624 33.985788,9.96463793 33.7745246,9.77719045 L32.6733141,8.80915179 C32.4611705,8.6217043 32.4338823,8.06376202 32.7613405,7.69326723 Z M29.2033128,6.63810509 C28.9533178,6.50697985 28.79399,5.97543862 29.0228586,5.53718112 C29.2517273,5.09892362 29.7825266,4.92467666 30.0334019,5.05492186 L31.3353126,5.73518903 C31.5853076,5.86631427 31.7446354,6.40225567 31.5157668,6.84051317 C31.2868981,7.27877067 30.7560988,7.45301763 30.5052235,7.32189239 L29.2033128,6.63810509 Z M25.3195873,5.36029406 C25.0414238,5.29781156 24.7606195,4.81203217 24.8785749,4.33153298 C24.9965303,3.85103379 25.4701125,3.55446194 25.7447549,3.62134462 L27.1716631,3.97335867 C27.4463055,4.04024134 27.7288703,4.52338064 27.6117952,5.00299979 C27.49472,5.48261894 27.0202577,5.77919079 26.7456152,5.71230812 L25.3195873,5.36029406 Z M20.7527768,1.79087152 C20.470212,1.79087152 20.080255,1.39045553 20.080255,0.895875776 C20.080255,0.401296025 20.470212,-1.13242749e-14 20.7527768,-1.13242749e-14 L23.2448047,-1.13242749e-14 C23.5273694,-1.13242749e-14 23.9173265,0.402176061 23.9173265,0.895875776 C23.9173265,1.38957549 23.5273694,1.79087152 23.2448047,1.79087152 L20.7527768,1.79087152 Z M15.9500555,2.67618687 C15.6762934,2.74570965 15.2000704,2.4491378 15.0829953,1.96863862 C14.9659202,1.48813943 15.248485,1.00588017 15.5231274,0.938117463 L17.9429736,0.341453636 C18.2167357,0.274570965 18.6938389,0.569382738 18.8100338,1.04988193 C18.9262287,1.53038111 18.6436639,2.01264037 18.3699017,2.08040308 L15.9500555,2.67618687 Z M11.4994399,4.68618714 C11.2485646,4.81731238 10.7239272,4.64042531 10.4906572,4.20304785 C10.2573871,3.76567038 10.416715,3.22972898 10.66671,3.09772371 L12.8708915,1.9431176 C13.1208865,1.80671215 13.649045,1.98535928 13.882315,2.42273675 C14.115585,2.86011422 13.9562572,3.39693565 13.7062622,3.52806089 L11.4994399,4.68618714 Z M7.65796707,7.70206758 C7.45022472,7.88951506 6.88421487,7.84903345 6.55851712,7.47853865 C6.23281938,7.10804385 6.25922731,6.55010157 6.47049071,6.36265409 L8.337531,4.70994809 C8.54967467,4.5225006 9.10952268,4.56474229 9.43522042,4.93435705 C9.76091816,5.30397181 9.73451023,5.86279413 9.52324683,6.05024161 L7.65796707,7.70206758 Z M3.53304919,11.5953431 C3.12548688,11.3146118 3.01721439,10.7654699 3.18006326,10.5331406 L4.59464777,8.48265875 C4.75573611,8.25032947 5.31030254,8.15704575 5.71434379,8.43777696 C6.11838504,8.71850817 6.22665753,9.26677006 6.06644946,9.49909934 L4.65186494,11.5495812 C4.4907766,11.7827905 3.93973123,11.8760743 3.53304919,11.5953431 Z M1.57798248,16.3167316 C1.11232273,16.1416046 0.879052728,15.6355844 0.981163371,15.3715739 L1.86142754,13.0421208 C1.96177765,12.7781103 2.4714506,12.5545814 2.93446955,12.7297084 C3.39748851,12.9048353 3.63427957,13.4117356 3.53392945,13.6757461 L2.65366529,16.0051992 C2.55331517,16.2692097 2.04012116,16.4927386 1.57798248,16.3167316 Z M0.810392123,21.3690134 C0.320084982,21.3144512 -0.032020684,20.8744336 0.00230961846,20.5945824 L0.301599435,18.1208036 C0.334169209,17.8409525 0.778702613,17.5012589 1.26989002,17.5611013 C1.76107742,17.6209437 2.11230282,18.055681 2.07797252,18.3364123 L1.7786827,20.809311 C1.74611293,21.0900422 1.30157953,21.4288557 0.810392123,21.3690134 Z M1.2751716,26.4582566 C0.784864462,26.518099 0.339450794,26.1792855 0.305120491,25.8994343 L0.00407014679,23.4265355 C-0.032020684,23.1458043 0.323606039,22.7066668 0.813032915,22.6503445 C1.30245979,22.5940223 1.74699319,22.9293157 1.7813235,23.2100469 L2.08325411,25.6829456 C2.11758441,25.9627968 1.76635901,26.3984142 1.2751716,26.4582566 Z M3.54361236,30.3418517 C3.64396247,30.6058622 3.40893194,31.1118824 2.94943405,31.2878895 C2.48993615,31.4638965 1.97410135,31.2421276 1.87375123,30.9781171 L0.989085748,28.6486641 C0.888735633,28.3846535 1.12816749,27.8786333 1.58766538,27.7026263 C2.04716328,27.5266193 2.56299808,27.7492681 2.66334819,28.0132787 L3.54361236,30.3418517 Z M4.66066758,32.4671366 L6.07701263,34.5158584 C6.2398615,34.7481876 6.131589,35.2973296 5.72490696,35.5780608 C5.31822492,35.858792 4.76717955,35.7663883 4.60609121,35.534059 L3.18974616,33.4844572 C3.02689729,33.2521279 3.13516978,32.702986 3.54185183,32.4222548 C3.94853387,32.1415235 4.50045951,32.2348073 4.66066758,32.4671366 Z M7.67117103,36.3120101 L9.5364508,37.962956 C9.74947473,38.1495235 9.77588265,38.7074658 9.44842438,39.0779606 C9.12096611,39.4484553 8.56287863,39.490697 8.35161523,39.3032495 L6.4854552,37.6523036 C6.27243127,37.4657362 6.24514308,36.9060338 6.57348162,36.5364191 C6.90182015,36.1668043 7.45902737,36.1245626 7.67117103,36.3120101 Z M13.7212266,40.4807366 C13.9721019,40.6118618 14.1270284,41.1486832 13.8972795,41.5860607 C13.6675305,42.0234382 13.135851,42.1976851 12.8858559,42.0665599 L10.6790337,40.9101937 C10.4325597,40.7799485 10.2732319,40.2440071 10.5029809,39.8057496 C10.7327298,39.3674921 11.2635291,39.1932452 11.5144044,39.3243704 L13.7212266,40.4807366 Z M18.3866267,41.9248742 C18.6612691,41.9952771 18.9455945,42.4836966 18.8276391,42.9589155 C18.7096837,43.4341345 18.2352213,43.7307064 17.9605789,43.6629436 L15.5407327,43.0689199 C15.26521,43.0011572 14.9826452,42.519778 15.1006006,42.0392788 C15.218556,41.5587796 15.6930184,41.2630878 15.9667805,41.3299705 L18.3866267,41.9248742 Z M23.2624099,42.2100042 C23.5449747,42.2091256 23.935812,42.6095416 23.935812,43.1041213 C23.935812,43.5987011 23.5467353,43.9999986 23.2641705,43.9999986 L20.7721426,43.9999986 C20.4895778,44.0008771 20.0987405,43.6004612 20.0987405,43.1058814 C20.0987405,42.6113017 20.4886975,42.2100042 20.7703821,42.2100042 L23.2624099,42.2100042 Z M28.0651312,41.3194101 C28.3388934,41.2516474 28.8168768,41.542939 28.9330717,42.0234382 C29.0492666,42.5039374 28.767582,42.9861966 28.4929396,43.0539593 L26.0739737,43.6523832 C25.8002115,43.7236661 25.3231083,43.4279743 25.2060332,42.9483551 C25.0889581,42.468736 25.3715229,41.9855967 25.6461653,41.917834 L28.0651312,41.3194101 Z M32.5139863,39.3067697 C32.7639813,39.1791646 33.2947806,39.3481313 33.5262901,39.7855088 C33.7577996,40.2228863 33.6002323,40.7597077 33.3502373,40.8908329 L31.1442953,42.0507193 C30.8943003,42.1818445 30.3652615,42.0102376 30.1328717,41.5719801 C29.900482,41.1337226 30.0589296,40.5977812 30.3089246,40.466656 L32.5139863,39.3067697 Z M36.3519381,36.2864891 C36.5632015,36.0990416 37.12481,36.1404032 37.4496275,36.510018 C37.774445,36.8796328 37.7489173,37.437575 37.5376539,37.6259026 L35.6741347,39.2794886 C35.4628713,39.4669361 34.9003825,39.4273345 34.5764453,39.0568397 C34.252508,38.6863449 34.2771554,38.1284026 34.4884188,37.9409551 L36.3519381,36.2864891 Z M40.4742152,32.3905735 C40.8817775,32.6669045 40.9882894,33.2186866 40.8272011,33.4518959 L39.4134968,35.5032578 C39.2532888,35.7364671 38.6978421,35.8306309 38.2946811,35.5498997 C37.8915201,35.2691684 37.7823673,34.7209066 37.9425754,34.4885773 L39.3553994,32.4363353 C39.5156075,32.204006 40.0675331,32.1098423 40.4742152,32.3905735 Z M42.4248806,27.6665448 C42.8878995,27.8416718 43.1246906,28.347692 43.0252207,28.6117026 L42.1449566,30.9420356 C42.0454867,31.2069262 41.5314124,31.4304552 41.0692737,31.2553282 C40.6071351,31.0802012 40.370344,30.5733009 40.4698138,30.3092904 L41.350078,27.9789573 C41.4495479,27.7149468 41.9627419,27.4905378 42.4248806,27.6665448 Z M43.1889499,22.613383 C43.6783767,22.6723454 44.0304824,23.1079628 43.9979126,23.387814 L43.7003833,25.8615928 C43.6678136,26.1414439 43.2232802,26.4811375 42.7320928,26.4221752 C42.2409053,26.3632128 41.8896799,25.9284754 41.92313,25.6477442 L42.2206593,23.1739654 C42.253229,22.8941143 42.6977624,22.5544207 43.1889499,22.613383 Z M42.7188888,17.5250198 C43.2091959,17.4651775 43.6546096,17.803111 43.6862991,18.0829621 L43.9899902,20.5558609 C44.0243205,20.8357121 43.6722149,21.2739696 43.1836683,21.3320519 C42.6951217,21.3901342 42.249708,21.0539608 42.2153777,20.7741096 L41.9116865,18.3012108 C41.8773562,18.0213597 42.2277014,17.5857423 42.7188888,17.5250198 Z M40.446927,13.6431848 C40.3465769,13.3791743 40.5851285,12.872274 41.0446263,12.696267 C41.5041242,12.52026 42.019959,12.7420288 42.1203092,13.0060394 L43.0076154,15.3346124 C43.1079655,15.5977429 42.869414,16.1055232 42.4099161,16.2815302 C41.9504182,16.4575372 41.4345834,16.2357684 41.3342333,15.9717578 L40.446927,13.6431848 Z M39.3281112,11.51966 L37.9091254,9.47181825 C37.7471568,9.23948897 37.854549,8.69122708 38.2612311,8.40961583 C38.6679131,8.12800459 39.2189585,8.22040828 39.3800468,8.45185752 L40.7990326,10.5005793 C40.9610012,10.7329086 40.853609,11.2811705 40.446927,11.5627818 C40.0402449,11.844393 39.4891996,11.7519893 39.3281112,11.51966 Z M36.314967,7.67390645 L34.4479267,6.02472059 C34.2349028,5.83727311 34.2084948,5.27933083 34.5359531,4.90883603 C34.8634114,4.53834124 35.4206186,4.49521951 35.631882,4.682667 L37.4998025,6.33185286 C37.7119462,6.51842031 37.7392344,7.07724262 37.4117761,7.44773742 C37.0843179,7.81823222 36.5262304,7.8604739 36.314967,7.67390645 Z M30.2605101,3.51310029 C30.010515,3.38285509 29.8494267,2.84691369 30.0791756,2.40865619 C30.3089246,1.97039869 30.8397239,1.79615173 31.0897189,1.92639693 L33.2983017,3.08100304 C33.549177,3.21212827 33.7085048,3.74718964 33.4796361,4.18544714 C33.2507674,4.62370464 32.7190879,4.79883164 32.4690928,4.6677064 L30.2605101,3.51310029 Z M25.5933494,2.0733628 C25.3195873,2.00648013 25.0396633,1.5251009 25.1576187,1.04460172 C25.2755741,0.564102527 25.7491562,0.267530684 26.0237986,0.334413355 L28.4401238,0.926677006 C28.7138859,0.994439712 28.9982112,1.47581894 28.8802558,1.95631812 C28.7623004,2.43681731 28.2887183,2.73338916 28.0140759,2.66562645 L25.5933494,2.0733628 Z M18.2915582,6.96987834 C18.5221016,6.91302636 18.765793,6.95007173 18.9690132,7.07286335 C19.1722334,7.19565497 19.3183322,7.39413232 19.3751634,7.62462448 C19.493492,8.10453377 19.2002866,8.58948019 18.7202585,8.70780273 C18.2402304,8.82612527 17.7551427,8.53302101 17.6367647,8.05312389 C17.5183867,7.57322676 17.8115423,7.08825022 18.2915582,6.96987834 Z M15.6366815,9.87399431 C15.1988945,10.1036094 14.6578096,9.93498295 14.4280788,9.49733927 C14.2598167,9.17679541 14.3012705,8.78648118 14.5331093,8.50840837 C14.764948,8.23033555 15.1415124,8.11926912 15.4872025,8.22700172 C15.8328925,8.33473431 16.0796264,8.64004855 16.1123469,9.00056995 C16.1450674,9.36109135 15.9573303,9.7058171 15.6366815,9.87399431 Z M12.9149047,11.7537494 C12.7371515,11.9112369 12.5040845,11.9916518 12.2670082,11.9772923 C12.029932,11.9629327 11.8082804,11.854976 11.6508453,11.6771863 C11.4102546,11.4060272 11.3568064,11.0166499 11.5154372,10.6907198 C11.674068,10.3647897 12.013517,10.1665367 12.375413,10.1884565 C12.737309,10.2103762 13.0503345,10.448149 13.1684463,10.7908412 C13.2865581,11.1335334 13.1864804,11.5136117 12.9149047,11.7537494 Z M10.496819,12.9805184 C10.6922598,13.1153964 10.8260858,13.3223836 10.8688442,13.5559258 C10.9116026,13.789468 10.8597893,14.0304256 10.7248074,14.2257681 C10.4438101,14.6324205 9.88629023,14.7343742 9.47949907,14.4534977 C9.07270791,14.1726212 8.97066228,13.6152583 9.25156413,13.2085401 C9.53246597,12.8018218 10.0899619,12.6997373 10.496819,12.9805184 Z M8.67115112,15.9955188 C9.1334349,16.1705438 9.36632912,16.6870326 9.19138724,17.1492448 C9.06323641,17.4878309 8.74368094,17.7158924 8.38174481,17.7270734 C8.01980869,17.7382543 7.68677839,17.5303526 7.53796186,17.2003226 C7.38914533,16.8702926 7.45385328,16.4831368 7.70190931,16.2194042 C7.94996534,15.9556717 8.33251264,15.867307 8.67115112,15.9955188 Z M6.62453694,20.1404843 C6.6529335,19.9047773 6.77393132,19.6900381 6.96085474,19.5436088 C7.14777817,19.3971795 7.38527866,19.3310837 7.62099597,19.3598931 C7.98046447,19.4034683 8.27827731,19.6592436 8.375555,20.0079428 C8.47283268,20.356642 8.35041637,20.7295889 8.06539262,20.9528665 C7.78036887,21.1761441 7.38887317,21.205778 7.07347226,21.0279489 C6.75807134,20.8501198 6.58088348,20.4998512 6.62453694,20.1404843 Z M7.62627756,24.6585847 C7.39059799,24.6874159 7.15311539,24.6214641 6.96607651,24.4752387 C6.77903763,24.3290133 6.65776477,24.1144933 6.62893826,23.8788736 C6.56891291,23.3882434 6.91808581,22.9418598 7.40884261,22.8818416 C7.89959941,22.8218234 8.34610525,23.1708978 8.40614752,23.6615258 C8.46618979,24.1521539 8.11703229,24.5985496 7.62627756,24.6585847 Z M8.67643271,28.0176789 C8.21411035,28.1927224 7.69732964,27.9603891 7.52152612,27.4984581 C7.34617442,27.0363492 7.57869349,26.5196172 8.04089819,26.3442466 C8.50310288,26.1688761 9.02000183,26.4012625 9.19548253,26.8633225 C9.37096323,27.3253824 9.13858842,27.8421793 8.67643271,28.0176789 Z M10.5047414,31.0309192 C10.3094554,31.1659531 10.0685095,31.2178936 9.83491545,31.1753129 C9.6013214,31.1327323 9.39421668,30.999119 9.25916759,30.8038701 C8.97796791,30.3973222 9.07965849,29.8398531 9.48630264,29.5587128 C9.8929468,29.2775725 10.4505644,29.3792176 10.7317917,29.7857464 C11.0130191,30.1922752 10.9113664,30.7497512 10.5047414,31.0309192 Z M13.0011706,33.5196586 C12.8438577,33.6975739 12.6222703,33.8056954 12.385191,33.8202202 C12.1481117,33.8347449 11.9149768,33.7544821 11.7371112,33.5971017 C11.3669261,33.2695515 11.3323763,32.7040247 11.6599364,32.3338693 C11.9874965,31.9637139 12.5531635,31.9290581 12.9234818,32.2564577 C13.2938002,32.5838573 13.32858,33.14937 13.0011706,33.5196586 Z M14.8118739,35.7153463 C14.601501,35.6052068 14.4435199,35.416016 14.3726968,35.189408 C14.3018737,34.9628001 14.3240123,34.7173447 14.4342406,34.507058 C14.6637208,34.06927 15.2047249,33.9003315 15.6426488,34.1297102 C16.0805726,34.3590889 16.2496067,34.8999362 16.0202101,35.337768 C15.7908134,35.7755997 15.2498415,35.9446415 14.8118739,35.7153463 Z M18.7316903,35.2982096 C18.9623751,35.3546492 19.1611742,35.5004153 19.2843327,35.7034254 C19.4074912,35.9064355 19.444915,36.1500509 19.3883673,36.3806528 C19.2706553,36.8606836 18.7860176,37.1544523 18.3058461,37.0368357 C17.8256746,36.919219 17.531764,36.4347472 17.6493463,35.9546847 C17.7669287,35.4746222 18.251487,35.1807226 18.7316903,35.2982096 Z M22.0124348,37.4833386 C21.774934,37.4838043 21.5470004,37.3898094 21.3788966,37.2220795 C21.2107928,37.0543496 21.1163255,36.8266607 21.1163255,36.5892212 C21.11584,36.094929 21.5162532,35.6938322 22.010674,35.6933458 C22.5050948,35.6928603 22.9062961,36.0931692 22.9067828,36.5874614 C22.9072686,37.0817535 22.5068556,37.4828506 22.0124348,37.4833386 Z M25.7192272,37.0301188 C25.4886807,37.0872627 25.2448692,37.0504664 25.0414692,36.927831 C24.8380692,36.8051955 24.6917562,36.606775 24.6347418,36.3762527 C24.5160814,35.8964819 24.8088605,35.4113677 25.2887314,35.2926381 C25.7686023,35.1739085 26.2539038,35.4665102 26.3727644,35.9462314 C26.491625,36.4259527 26.1990485,36.911189 25.7192272,37.0301188 Z M29.2103549,35.7030258 C29.0001418,35.8136366 28.7545737,35.8361845 28.5277243,35.7657045 C28.3008749,35.6952245 28.1113462,35.5374961 28.0008719,35.3272508 C27.7709821,34.8897435 27.9393038,34.3487595 28.3768647,34.1188147 C28.8144255,33.8888699 29.3555945,34.057006 29.5857138,34.4943928 C29.8158331,34.9317795 29.6477951,35.4728517 29.2103549,35.7030258 Z M32.2815966,33.5786209 C32.1040684,33.7363231 31.8711369,33.8170421 31.6340667,33.8030131 C31.3969966,33.788984 31.1752166,33.6813566 31.0175372,33.503818 C30.6892917,33.1342309 30.7228491,32.5686034 31.0924931,32.240399 C31.4621371,31.9121946 32.0279157,31.9456756 32.3562498,32.3151841 C32.6845839,32.6846926 32.6511619,33.2503281 32.2815966,33.5786209 Z M33.506044,31.0115584 C33.0988944,30.7309575 32.9960735,30.1736638 33.2762951,29.7663087 C33.5568051,29.3593913 34.1141218,29.2567839 34.5212249,29.5371049 C34.9283281,29.8174259 35.031121,30.3745684 34.750843,30.7816455 C34.470565,31.1887226 33.9133069,31.2916475 33.506044,31.0115584 Z M35.3317119,27.994798 C34.8701465,27.8190098 34.6375816,27.3032512 34.8114758,26.8410719 C34.9396266,26.5024858 35.2591821,26.2744243 35.6211182,26.2632433 C35.9830543,26.2520624 36.3160846,26.4599641 36.4649012,26.7899941 C36.6137177,27.1200241 36.5490098,27.50718 36.3009537,27.7709125 C36.0528977,28.034645 35.6703504,28.1230097 35.3317119,27.994798 Z M37.3792064,23.8471923 C37.3510073,24.0829481 37.2302592,24.29784 37.0435395,24.4445691 C36.8568197,24.5912983 36.6194324,24.6578383 36.3836276,24.6295436 C35.8927802,24.5706456 35.5426039,24.125128 35.6014457,23.6343998 C35.6602874,23.1436716 36.10587,22.7935214 36.5967345,22.8522764 C37.087599,22.9110314 37.4379051,23.356447 37.3792064,23.8471923 Z M35.5931504,20.332332 C35.5640608,20.0965733 35.6299136,19.8589242 35.7762016,19.6717375 C35.9224896,19.4845508 36.1372112,19.3631835 36.3730644,19.3343721 C36.8637027,19.2744367 37.3100839,19.6233809 37.3702226,20.1138686 C37.4303613,20.6043562 37.0814971,21.0507548 36.5909048,21.1110655 C36.1003126,21.1713761 35.6536644,20.8227735 35.5931504,20.332332 Z M35.3167474,15.9717578 C35.7788224,15.7966232 36.2954971,16.0285151 36.471654,16.4900985 C36.6003999,16.8284478 36.5125912,17.2110157 36.2491754,17.4594012 C35.9857596,17.7077866 35.5986155,17.7730708 35.2682783,17.6248102 C34.9379411,17.4765495 34.7294696,17.1439434 34.7400794,16.7820945 C34.7506892,16.4202457 34.9782906,16.100419 35.3167474,15.9717578 Z M33.485798,12.9602776 C33.6809023,12.8249235 33.9218429,12.7727033 34.1554986,12.81513 C34.3891543,12.8575568 34.5963382,12.9911467 34.7313717,13.1864466 C34.9375591,13.4840298 34.9441302,13.876485 34.7480209,14.1808006 C34.5519115,14.4851163 34.1917448,14.6413585 33.8354753,14.5766677 C33.4792057,14.5119769 33.1969993,14.2390937 33.1204559,13.8852703 C33.0439125,13.5314469 33.188107,13.1663675 33.485798,12.9602776 Z M30.986728,10.4741783 C31.1439185,10.2961373 31.3654418,10.1878508 31.6025242,10.1731608 C31.8396066,10.1584708 32.0728094,10.2385817 32.2507873,10.3958552 C32.6211782,10.7231577 32.6561034,11.2886476 32.3288015,11.6590179 C32.0014997,12.0293883 31.4358708,12.0644356 31.0653282,11.7373048 C30.6947855,11.410174 30.659598,10.8447003 30.986728,10.4741783 Z M28.344175,9.86607399 C28.133649,9.75608795 27.9754769,9.56696345 27.9044842,9.34034108 C27.8334915,9.11371871 27.8554991,8.86817971 27.9656614,8.65778574 C28.1949195,8.21993607 28.7357704,8.05073377 29.1737876,8.2798299 C29.6118048,8.50892603 29.7811776,9.04959658 29.5521243,9.48755338 C29.3230709,9.92551019 28.7822993,10.0949653 28.344175,9.86607399 Z M25.2544477,8.70002743 C24.7744921,8.58248222 24.480571,8.09838693 24.5977707,7.61846424 C24.6836638,7.26673904 24.9730619,7.00139597 25.3309789,6.94620095 C25.6888959,6.89100592 26.0448201,7.05683267 26.2327352,7.3663334 C26.4206503,7.67583414 26.4035359,8.06803547 26.1893749,8.36000006 C25.9752138,8.65196465 25.6061971,8.78617383 25.2544477,8.70002743 Z M19.0697117,10.1318446 C19.3002551,10.0749926 19.5439466,10.112038 19.7471668,10.2348296 C19.9503869,10.3576212 20.0964857,10.5560986 20.1533169,10.7865908 C20.2716456,11.2665 19.9784401,11.7514465 19.498412,11.869769 C19.0183839,11.9880915 18.5332962,11.6949873 18.4149182,11.2150902 C18.2965402,10.735193 18.5896958,10.2502165 19.0697117,10.1318446 Z M17.5257284,11.5531014 C17.7554761,11.9910329 17.5868447,12.5322462 17.1489753,12.7622697 C16.8280753,12.9308462 16.437193,12.88953 16.1586494,12.6575923 C15.8801057,12.4256546 15.7687749,12.0487881 15.8765854,11.7027762 C15.9843959,11.3567643 16.2901087,11.1097728 16.6511287,11.0770069 C17.0121488,11.044241 17.3573538,11.2321558 17.5257284,11.5531014 Z M13.8145346,14.1140036 C13.6566762,13.9365108 13.5759418,13.7035203 13.5901441,13.4664372 C13.6043464,13.229354 13.7123181,13.0076619 13.8902374,12.8502732 C14.2601547,12.5223912 14.8258916,12.5563472 15.1539133,12.92612 C15.481935,13.2958927 15.4480536,13.8614874 15.0782329,14.1894783 C14.7084122,14.5174692 14.1426653,14.4836798 13.8145346,14.1140036 Z M13.1816247,14.8285922 C13.5881753,15.1097515 13.6901898,15.6669443 13.4096131,16.0738419 C13.1286158,16.4804943 12.5710959,16.582448 12.1643048,16.3015715 C11.7575136,16.020695 11.655468,15.4633321 11.9363698,15.0566139 C12.2172717,14.6498956 12.7747676,14.5478111 13.1816247,14.8285922 Z M10.5663599,17.6658255 C10.7421664,17.2043692 11.2583174,16.972142 11.7203862,17.1466047 C12.0590592,17.2748567 12.2870792,17.5944717 12.2980867,17.9563656 C12.3090941,18.3182595 12.1009203,18.651135 11.7706677,18.7997225 C11.4404152,18.9483101 11.0531474,18.8833364 10.7895052,18.6351082 C10.525863,18.38688 10.4377869,18.0043013 10.5663599,17.6658255 Z M10.8577273,19.7462286 C11.3483484,19.8067128 11.6975414,20.2526348 11.6385216,20.7433084 C11.5785414,21.2338434 11.1322308,21.582941 10.6415499,21.523125 C10.150869,21.4633089 9.8015454,21.0172202 9.86122836,20.5266489 C9.92091133,20.0360776 10.3670103,19.6867097 10.8577273,19.7462286 Z M10.6420626,22.4778576 C11.1328242,22.4183669 11.5789241,22.767826 11.6385216,23.2584488 C11.6821751,23.6178157 11.5049872,23.9680843 11.1895863,24.1459134 C10.8741854,24.3237425 10.4826897,24.2941087 10.1976659,24.070831 C9.9126422,23.8475534 9.79022588,23.4746065 9.88750357,23.1259073 C9.98478125,22.7772081 10.2825941,22.5214329 10.6420626,22.4778576 Z M11.7203862,26.8586726 C11.2583013,27.0336594 10.7417847,26.8012677 10.5663599,26.3394518 C10.4377869,26.000976 10.525863,25.6183973 10.7895052,25.3701691 C11.0531474,25.121941 11.4404152,25.0569672 11.7706677,25.2055548 C12.1009203,25.3541424 12.3090941,25.6870178 12.2980867,26.0489117 C12.2870792,26.4108056 12.0590592,26.7304206 11.7203862,26.8586726 Z M13.4096131,27.9279153 C13.544595,28.1232577 13.5964083,28.3642153 13.5536499,28.5977576 C13.5108915,28.8312998 13.3770655,29.038287 13.1816247,29.173165 C12.7747676,29.4539461 12.2172717,29.3518616 11.9363698,28.9451433 C11.655468,28.5384251 11.7575136,27.9810622 12.1643048,27.7001857 C12.5710959,27.4193092 13.1286158,27.5212629 13.4096131,27.9279153 Z M13.8902374,31.150604 C13.7123181,30.9932152 13.6043464,30.7715231 13.5901441,30.53444 C13.5759418,30.2973568 13.6566762,30.0643663 13.8145346,29.8868735 C14.0549163,29.61552 14.435168,29.515718 14.7778762,29.6340319 C15.1205844,29.7523458 15.3582103,30.065459 15.379885,30.4272828 C15.4015598,30.7891066 15.2030119,31.1283348 14.8768776,31.2866943 C14.5507432,31.4450538 14.1612951,31.391336 13.8902374,31.150604 Z M17.5257284,32.4477758 C17.4154074,32.6581739 17.225945,32.8160932 16.9990812,32.8867427 C16.7722174,32.9573923 16.5265658,32.9349754 16.3162454,32.8244308 C15.8787427,32.594479 15.7104401,32.0535594 15.9402768,31.6160786 C16.1701135,31.1785977 16.7111065,31.0101226 17.1487931,31.2397246 C17.5864797,31.4693265 17.755215,32.0101113 17.5257284,32.4477758 Z M19.5010412,32.1318432 C19.7317559,32.1884661 19.930498,32.3344465 20.0535003,32.5376362 C20.1765025,32.740826 20.2136773,32.9845613 20.156838,33.2151664 C20.0385681,33.6950038 19.5536696,33.9881946 19.0736729,33.8700953 C18.5936762,33.751996 18.3002678,33.2673092 18.418258,32.7874029 C18.5362482,32.3074967 19.0209757,32.0140235 19.5010412,32.1318432 Z M21.9992309,34.2254472 C21.7616489,34.2254472 21.5338104,34.1310322 21.3658972,33.9629975 C21.1979839,33.7949629 21.1037686,33.5670911 21.1040018,33.329571 C21.1040018,32.967143 21.3224277,32.6404187 21.6573887,32.5018058 C21.9923497,32.363193 22.3778511,32.4400018 22.6340671,32.696403 C22.8902831,32.9528041 22.9667329,33.3382805 22.8277549,33.673018 C22.6887769,34.0077555 22.361753,34.2258028 21.9992309,34.2254472 Z M24.9252289,33.8699126 C24.6946856,33.9267645 24.4509941,33.8897192 24.2477739,33.7669276 C24.0445537,33.6441359 23.898455,33.4456586 23.8416238,33.2151664 C23.7232951,32.7352571 24.0165006,32.2503107 24.4965287,32.1319882 C24.9765568,32.0136656 25.4616445,32.3067699 25.5800225,32.786667 C25.6984005,33.2665641 25.4052449,33.7515407 24.9252289,33.8699126 Z M26.4727333,32.4477758 C26.3621985,32.2376415 26.3397993,31.9921843 26.4104741,31.7655223 C26.481149,31.5388603 26.6390943,31.3496065 26.8494864,31.2394875 C27.1701137,31.0712693 27.5605295,31.1127122 27.8386747,31.3444907 C28.1168199,31.5762692 28.2279152,31.9527356 28.1201546,32.2983357 C28.0123939,32.6439358 27.7070002,32.8906055 27.346385,32.9233174 C26.9857698,32.9560294 26.6409543,32.7683412 26.4727333,32.4477758 Z M30.1839271,29.8868735 C30.5114755,30.2571108 30.477206,30.8226082 30.1073441,31.150604 C29.7371929,31.4782073 29.1714943,31.443844 28.8437408,31.0738465 C28.5159874,30.703849 28.5502606,30.1382915 28.920297,29.8105585 C29.2903334,29.4828256 29.856044,29.5169908 30.1839271,29.8868735 Z M30.816837,29.173165 C30.409987,28.8922848 30.3075694,28.3350416 30.5879683,27.9279153 C30.8687219,27.5211302 31.4261403,27.4188494 31.8330877,27.6994482 C32.240035,27.980047 32.3424544,28.5372998 32.0618644,28.9441977 C31.7812744,29.3510955 31.2238971,29.4536002 30.816837,29.173165 Z M33.4321018,26.3359317 C33.3485917,26.5594225 33.1792839,26.7403298 32.9617764,26.8384802 C32.7442688,26.9366306 32.4965658,26.9438994 32.2736742,26.8586726 C31.8127247,26.6824198 31.5813918,26.1664689 31.756493,25.7051833 C31.9315941,25.2438976 32.4470768,25.0112859 32.9089356,25.1851431 C33.3707944,25.3590004 33.6048044,25.8737432 33.4321018,26.3359317 Z M33.3563991,22.4778576 C33.5921674,22.5062468 33.8069626,22.6272131 33.9534299,22.8140879 C34.0998973,23.0009627 34.1660103,23.2384014 34.1371934,23.4740574 C34.0936069,23.8334324 33.8377651,24.1311677 33.4889751,24.2284201 C33.1401852,24.3256725 32.7671412,24.203288 32.5438055,23.9183384 C32.3204698,23.6333889 32.2908282,23.241995 32.4687036,22.9266762 C32.646579,22.6113573 32.9969387,22.4342155 33.3563991,22.4778576 Z M34.1371934,20.5268197 C34.1967182,21.0176341 33.8472781,21.4638717 33.3563991,21.5238995 C32.8656821,21.5834184 32.4195831,21.2340505 32.3599002,20.7434792 C32.3002172,20.2529079 32.6495408,19.8068192 33.1402217,19.7470031 C33.6309026,19.6871871 34.0772132,20.0362847 34.1371934,20.5268197 Z M32.2736742,17.1466047 C32.4956757,17.0620513 32.742205,17.0692758 32.9588714,17.1666843 C33.1755377,17.2640928 33.344536,17.4436804 33.4285808,17.6658255 C33.6039325,18.1279344 33.3714134,18.6446664 32.9092087,18.820037 C32.447004,18.9954075 31.9301051,18.7630211 31.7546244,18.3009611 C31.5791437,17.8389012 31.8115185,17.3221043 32.2736742,17.1466047 Z M30.5879683,16.0738419 C30.3075694,15.6667155 30.409987,15.1094724 30.816837,14.8285922 C31.1151696,14.6226299 31.5082456,14.6166792 31.8126794,14.8135162 C32.1171132,15.0103532 32.2729132,15.3711894 32.2073925,15.7276803 C32.1418718,16.0841712 31.8679419,16.366067 31.513402,16.441852 C31.1588621,16.5176371 30.7935776,16.3723772 30.5879683,16.0738419 Z M30.1073441,12.8502732 C30.477206,13.1782689 30.5114755,13.7437663 30.1839271,14.1140036 C29.856044,14.4838863 29.2903334,14.5180515 28.920297,14.1903186 C28.5502606,13.8625857 28.5159874,13.2970282 28.8437408,12.9270307 C29.1714943,12.5570332 29.7371929,12.5226698 30.1073441,12.8502732 Z M26.4727333,11.5531014 C26.7028004,11.1158611 27.2435017,10.9473542 27.681336,11.1764463 C28.0019849,11.3446235 28.1897219,11.6893493 28.1570015,12.0498707 C28.124281,12.4103921 27.8775471,12.7157063 27.5318571,12.8234389 C27.186167,12.9311715 26.8096026,12.8201051 26.5777638,12.5420323 C26.345925,12.2639594 26.3044713,11.8736452 26.4727333,11.5531014 Z M24.4965403,11.869914 C24.2659881,11.8130976 24.0674591,11.6670369 23.9446356,11.4638695 C23.821812,11.2607022 23.784757,11.0170742 23.8416238,10.7865908 C23.9600264,10.3066997 24.4451292,10.0136204 24.9251512,10.1319676 C25.4051732,10.2503148 25.6983538,10.7352763 25.5800004,11.2151795 C25.4616471,11.6950827 24.9765745,11.9882119 24.4965403,11.869914 Z" id="logo" fill="#262529" fill-rule="nonzero"></path>
    </g>
</svg>