<?xml version="1.0" encoding="UTF-8"?>
<svg width="41px" height="41px" viewBox="0 0 41 41" version="1.1" xmlns="http://www.w3.org/2000/svg" xmlns:xlink="http://www.w3.org/1999/xlink">
    <!-- Generator: Sketch 55.1 (78136) - https://sketchapp.com -->
    <desc>Created with Sketch.</desc>
    <g id="Responsive" stroke="none" stroke-width="1" fill="none" fill-rule="evenodd">
        <path d="M38.459329,1.01162025 C38.1276853,1.05588872 37.8210292,1.21383289 37.5904266,1.45915111 L33.1849387,5.91902766 L29.7245729,2.41594124 C29.0646958,1.74791654 28.1789139,1.41302766 27.3007924,1.41285482 C26.4226709,1.41268198 25.5520085,1.75949185 24.8922558,2.43137333 L18.0782314,9.36038568 C17.5145376,9.93759796 17.5145376,10.8665067 18.0782314,11.443719 L29.8007924,23.3264351 C30.1711287,23.7013434 30.7109056,23.8477618 31.2167944,23.7105358 C31.7226831,23.5733098 32.1178272,23.1732874 32.2533797,22.6611531 C32.3889322,22.1490188 32.2442994,21.602578 31.8739631,21.2276696 L21.1727436,10.3943363 L26.9654266,4.51470667 C27.1701392,4.30623259 27.4424529,4.3031758 27.6514022,4.51470667 L36.6148168,13.5887807 C36.8238066,13.8003511 36.8238031,14.0870919 36.6148168,14.2986573 L33.6879875,17.2616202 C33.279956,17.6277149 33.106767,18.1930722 33.2385841,18.7286503 C33.3704012,19.2642283 33.7853699,19.6812312 34.3153749,19.8107195 C34.8453799,19.9402078 35.4025493,19.760713 35.7611583,19.3449536 L38.6879875,16.3819906 C40.0077153,15.0459709 40.0077548,12.8415116 38.6879875,11.5054474 L35.2428656,8.01779309 L39.6635973,3.54248445 C40.1138084,3.09806874 40.2332851,2.41219273 39.9603917,1.83868594 C39.6874984,1.26517915 39.0832351,0.932238071 38.459329,1.01162025 Z M16.5081095,15.8264351 C16.1764658,15.8707035 15.8698097,16.0286477 15.639207,16.2739659 L12.5294509,19.4221141 L11.3556705,18.2184104 C11.073057,17.9331097 10.687608,17.7770267 10.2885973,17.7863116 C9.91069833,17.7934251 9.55017012,17.9482647 9.28249972,18.2184104 L2.45323143,25.1319906 C1.13344607,26.4679906 1.1335007,28.6878672 2.45323143,30.0239659 L5.91359729,33.5270523 L1.49286558,38.002361 C1.08483408,38.3684556 0.911645037,38.933813 1.04346214,39.469391 C1.17527925,40.004969 1.59024799,40.4219719 2.12025296,40.5514602 C2.65025793,40.6809485 3.20742733,40.5014538 3.56603631,40.0856943 L7.98676802,35.6258178 L11.4166461,39.09804 C12.7363983,40.43404 14.9292187,40.4340894 16.2489631,39.09804 L23.0782314,32.1844598 C23.6419253,31.6072475 23.6419253,30.6783387 23.0782314,30.1011264 L21.9196948,28.9128548 L25.0294509,25.7647067 C25.4796621,25.320291 25.5991387,24.634415 25.3262454,24.0609082 C25.053352,23.4874014 24.4490887,23.1544603 23.8251827,23.2338425 C23.493539,23.2781109 23.1868829,23.4360551 22.9562802,23.6813733 L19.8465241,26.8295215 L14.6026217,21.5054474 L17.7123778,18.3572993 C18.1625889,17.9128836 18.2820656,17.2270075 18.0091722,16.6535008 C17.7362788,16.079994 17.1320155,15.7470529 16.5081095,15.8264351 Z M10.3190851,21.3665585 L19.9684753,31.1505091 L14.1757924,37.0147067 C13.9667797,37.2263116 13.6987905,37.2262622 13.4898168,37.0147067 L4.52640216,27.9252005 C4.31739729,27.7135956 4.31743533,27.4423116 4.52640216,27.2307561 L10.3190851,21.3665585 Z" id="icon-3" stroke="#FFEB89" stroke-width="0.3" fill="#FFEB89" fill-rule="nonzero"></path>
    </g>
</svg>