<?xml version="1.0" encoding="UTF-8"?>
<svg width="33px" height="31px" viewBox="0 0 33 31" version="1.1" xmlns="http://www.w3.org/2000/svg" xmlns:xlink="http://www.w3.org/1999/xlink">
    <!-- Generator: Sketch 55.1 (78136) - https://sketchapp.com -->
    <desc>Created with Sketch.</desc>
    <g id="Responsive" stroke="none" stroke-width="1" fill="none" fill-rule="evenodd">
        <path d="M21.7653024,26.4798713 L21.7653024,29.9828602 C21.7653024,30.5520112 21.2712295,30.9754866 20.683391,30.9992013 C20.0991588,31.0229159 19.6014795,30.5147454 19.6014795,29.9828602 C19.6014795,29.7931432 19.6014795,29.606814 19.6014795,29.417097 L19.6014795,26.4798713 C19.2961401,26.4798713 18.9908006,26.4798713 18.6854611,26.4798713 C16.9868602,26.4798713 15.2846528,26.4798713 13.5860518,26.4798713 C13.5235494,26.4798713 13.4610387,26.4798713 13.3985205,26.4798713 L13.3985205,29.9828602 C13.3985205,30.5520112 12.9008412,30.9754866 12.316609,30.9992013 C11.7323768,31.0229159 11.2346976,30.5147454 11.2346976,29.9828602 C11.2346976,29.7931432 11.2346976,29.606814 11.2346976,29.417097 L11.2346976,26.4798713 C10.7151116,26.4798713 10.1956419,26.4798713 9.67674507,26.4798713 C9.40266083,26.4798713 9.13218297,26.4798713 8.85809873,26.4798713 C7.76536816,26.4798713 6.69066944,26.0767227 5.93333142,25.3314059 C5.201238,24.606416 4.81174988,23.657831 4.81174988,22.6618167 C4.81174988,22.3874046 4.81174988,22.1129925 4.81174988,21.8385805 C4.81174988,21.3744514 4.81174988,20.9103223 4.81174988,20.4461932 L1.08276172,20.4461932 C0.476891299,20.4461932 0.0260948584,19.9820641 0.000850257727,19.4298521 C-0.024394343,18.8810279 0.516561386,18.4135111 1.08276172,18.4135111 C1.28471852,18.4135111 1.48306896,18.4135111 1.68502576,18.4135111 L4.81174988,18.4135111 C4.81174988,18.3220404 4.81174988,18.2305697 4.81174988,18.139099 C4.81174988,16.5332801 4.81174988,14.9240734 4.81174988,13.3148667 C4.81174988,13.0720741 4.81174988,12.8292815 4.81174988,12.5864889 L1.08276172,12.5864889 C0.476891299,12.5864889 0.0260948584,12.1223599 0.000850257727,11.5701479 C-0.024394343,11.0213237 0.516561386,10.5538068 1.08276172,10.5538068 C1.28471852,10.5538068 1.48306896,10.5538068 1.68502576,10.5538068 L4.81174988,10.5538068 C4.81174988,10.1766313 4.81174988,9.79945588 4.81174988,9.42228042 C4.81174988,9.09027567 4.81174988,8.76165873 4.81174988,8.42965398 C4.81174988,7.6945006 4.97764297,6.96951064 5.39237569,6.33599138 C6.12446911,5.2180162 7.42636923,4.53367989 8.82203502,4.52351648 C9.03120456,4.52351648 9.24037411,4.52351648 9.44954366,4.52351648 C10.0438808,4.52351648 10.6390702,4.52351648 11.2346976,4.52351648 L11.2346976,1.01713979 C11.2346976,0.447988796 11.7287705,0.0245133519 12.316609,0.000798726955 C12.9008412,-0.0229158979 13.3985205,0.485254636 13.3985205,1.01713979 C13.3985205,1.20685679 13.3985205,1.39318599 13.3985205,1.58290299 L13.3985205,4.52351648 C14.9985473,4.52351648 16.5985742,4.52351648 18.198601,4.52351648 C18.6662272,4.52351648 19.1338533,4.52351648 19.6014795,4.52351648 L19.6014795,1.01713979 C19.6014795,0.447988796 20.0955524,0.0245133519 20.683391,0.000798726955 C21.2676232,-0.0229158979 21.7653024,0.485254636 21.7653024,1.01713979 C21.7653024,1.20685679 21.7653024,1.39318599 21.7653024,1.58290299 L21.7653024,4.52351648 C22.0441952,4.52351648 22.3230879,4.52351648 22.6019806,4.52351648 C23.460297,4.52351648 24.4159855,4.44220919 25.2526637,4.65902862 C26.6555422,5.0249114 27.8384321,6.15982559 28.0980908,7.52172262 C28.1738246,7.90454443 28.1846438,8.27042721 28.1846438,8.65324901 C28.1846438,9.28602608 28.1846438,9.92004905 28.1846438,10.5538068 L31.9172383,10.5538068 C32.5231087,10.5538068 32.9739051,11.0179359 32.9991497,11.5701479 C33.0243943,12.1189721 32.4834386,12.5864889 31.9172383,12.5864889 C31.7152815,12.5864889 31.516931,12.5864889 31.3149742,12.5864889 L28.1846438,12.5864889 C28.1846438,13.9012112 28.1846438,15.2143806 28.1846438,16.5298923 C28.1846438,17.1573036 28.1846438,17.7853674 28.1846438,18.4135111 L31.9172383,18.4135111 C32.5231087,18.4135111 32.9739051,18.8776401 32.9991497,19.4298521 C33.0243943,19.9786763 32.4834386,20.4461932 31.9172383,20.4461932 C31.7152815,20.4461932 31.516931,20.4461932 31.3149742,20.4461932 L28.1846438,20.4461932 C28.1846438,20.5715649 28.1846438,20.6969152 28.1846438,20.8222394 C28.1846438,21.4557587 28.1846438,22.0858901 28.1846438,22.7160216 C28.1846438,23.2851726 27.6905709,23.708648 27.1027323,23.7323626 C26.5185001,23.7560773 26.0208208,23.2479067 26.0208208,22.7160216 C26.0208208,22.709246 26.0208208,22.6990826 26.0208208,22.6956948 C26.0063953,22.0994413 26.0208208,21.4998001 26.0208208,20.9001589 C26.0208208,19.6771618 26.0208208,18.4575525 26.0208208,17.2345554 C26.0208208,15.8252291 26.0208208,14.4192907 26.0208208,13.0099644 C26.0208208,11.8682746 26.0208208,10.7299726 26.0208208,9.5916706 C26.0208208,9.03945862 26.0677037,8.46014421 25.9919699,7.91132003 C26.0063953,8.00279073 26.0172145,8.09087362 26.0316399,8.18234432 C25.9955762,7.94181026 25.9270552,7.70805182 25.8260768,7.48106898 C25.8621405,7.56237627 25.8982042,7.64368355 25.9342679,7.72499084 C25.8621405,7.56915187 25.7755876,7.41670071 25.6746092,7.27441296 C25.6529709,7.24392273 25.6277263,7.2134325 25.6060881,7.18294227 C25.5015033,7.03726671 25.7755876,7.37265927 25.6601837,7.24731054 C25.6024817,7.18633007 25.5447798,7.12534961 25.4834715,7.06775695 C25.4221632,7.01016429 25.3572485,6.95595943 25.2923338,6.90175457 C25.1516853,6.78318145 25.5159288,7.05420573 25.3608548,6.95257163 C25.3247911,6.9254692 25.285121,6.89836677 25.245451,6.87465214 C25.0975897,6.78318145 24.9425157,6.70526197 24.7838354,6.6408937 C24.8703883,6.67477173 24.9569412,6.70864977 25.0434942,6.74252781 C24.8054736,6.65105711 24.556634,6.58330104 24.2969752,6.549423 C24.3943473,6.56297422 24.4881129,6.57313763 24.585485,6.58668884 C24.4484428,6.56974982 24.3150071,6.55958641 24.177965,6.55958641 C23.5901264,6.55619861 22.9986815,6.55958641 22.4072366,6.55958641 C21.1089428,6.55958641 19.8070427,6.55958641 18.5051426,6.55958641 C16.9940729,6.55958641 15.4830032,6.55958641 13.9719336,6.55958641 C12.7277354,6.55958641 11.4871436,6.55958641 10.2465518,6.55958641 C9.6478941,6.55958641 9.02038545,6.51554497 8.42533415,6.58668884 C8.52270618,6.57313763 8.61647184,6.56297422 8.71384387,6.549423 C8.45779149,6.58330104 8.20895186,6.64766931 7.96732496,6.74252781 C8.05387788,6.70864977 8.1404308,6.67477173 8.22698371,6.6408937 C8.06109062,6.70864977 7.8988039,6.78995706 7.7473363,6.88481555 C7.71487896,6.90514238 7.68242161,6.928857 7.64996427,6.94918382 C7.49489029,7.04743013 7.85192107,6.78995706 7.71848533,6.89836677 C7.65357064,6.95257163 7.58865595,7.00677648 7.52734764,7.06436914 C7.46603932,7.1219618 7.40833738,7.18294227 7.35063543,7.24392273 C7.22441243,7.37604707 7.51292215,7.03387891 7.40473101,7.17955446 C7.37588003,7.2134325 7.34702906,7.25069834 7.32178446,7.28796418 C7.22441243,7.42686412 7.14146588,7.57253968 7.07294482,7.72160303 C7.10900854,7.64029575 7.14507226,7.55898846 7.18113597,7.47768118 C7.08376394,7.70127621 7.01163651,7.93503466 6.97557279,8.17895651 C6.98999828,8.08748582 7.00081739,7.99940292 7.01524288,7.90793223 C6.99721102,8.03666876 6.98639191,8.1620175 6.98639191,8.29075403 C6.98278554,8.84296601 6.98639191,9.39856579 6.98639191,9.95416558 C6.98639191,11.1737749 6.98639191,12.3967719 6.98639191,13.619769 C6.98639191,15.0392587 6.98639191,16.4587484 6.98639191,17.8782381 C6.98639191,19.0470303 6.98639191,20.2124347 6.98639191,21.3778392 C6.98639191,21.9402146 6.93950908,22.5296924 7.01524288,23.08868 C7.00081739,22.9972093 6.98999828,22.9091264 6.97557279,22.8176557 C7.01163651,23.0581897 7.08015757,23.2919482 7.18113597,23.518931 C7.14507226,23.4376237 7.10900854,23.3563164 7.07294482,23.2750092 C7.14507226,23.4308481 7.23162517,23.5832993 7.33260357,23.725587 C7.3542418,23.7560773 7.3794864,23.7865675 7.40112463,23.8170577 C7.50570941,23.9627333 7.23162517,23.6273407 7.34702906,23.7526895 C7.40473101,23.8136699 7.46243295,23.8746504 7.52374127,23.9322431 C7.58504958,23.9898357 7.64996427,24.0440406 7.71487896,24.0982454 C7.85552745,24.2168186 7.49128392,23.9457943 7.6463579,24.0474284 C7.68242161,24.0745308 7.7220917,24.1016332 7.76176179,24.1253479 C7.90962302,24.2168186 8.064697,24.294738 8.22337734,24.3591063 C8.13682443,24.3252283 8.05027151,24.2913502 7.96371859,24.2574722 C8.20173911,24.3489429 8.45057875,24.416699 8.7102375,24.450577 C8.61286547,24.4370258 8.51909981,24.4268624 8.42172778,24.4133112 C8.55876989,24.4302502 8.69220564,24.4404136 8.82924776,24.4404136 C9.41708632,24.4438014 10.0085312,24.4404136 10.5999762,24.4404136 C11.8982699,24.4404136 13.2001701,24.4404136 14.5020702,24.4404136 C16.0131398,24.4404136 17.5242095,24.4404136 19.0352792,24.4404136 C20.2794774,24.4404136 21.5200692,24.4404136 22.760661,24.4404136 C23.3593186,24.4404136 23.9868273,24.484455 24.5818786,24.4133112 C24.4845066,24.4268624 24.3907409,24.4370258 24.2933689,24.450577 C24.5494213,24.416699 24.7982609,24.3523307 25.0398878,24.2574722 C24.9533349,24.2913502 24.8667819,24.3252283 24.780229,24.3591063 C24.9461221,24.2913502 25.1084088,24.2100429 25.2598764,24.1151844 C25.2923338,24.0948576 25.3247911,24.071143 25.3572485,24.0508162 C25.5123224,23.9525699 25.1552917,24.2100429 25.2887274,24.1016332 C25.3536421,24.0474284 25.4185568,23.9932235 25.4798651,23.9356309 C25.5411734,23.8780382 25.5988754,23.8170577 25.6565773,23.7560773 C25.7828003,23.6239529 25.4942906,23.9661211 25.6024817,23.8204455 C25.6313327,23.7865675 25.6601837,23.7493017 25.6854283,23.7120358 C25.7828003,23.5731359 25.8657469,23.4274603 25.9342679,23.278397 C25.8982042,23.3597043 25.8621405,23.4410115 25.8260768,23.5223188 C25.9234488,23.2987238 25.9955762,23.0649653 26.0316399,22.8210435 C26.0172145,22.9125142 26.0063953,23.0005971 25.9919699,23.0920678 C26.0100017,22.966719 26.0208208,22.8413703 26.0208208,22.7160216 C26.0244272,22.1468706 26.5112874,21.7233951 27.0955196,21.7030683 C27.6761454,21.6793537 28.1810374,22.1875242 28.177431,22.7194094 C28.1666119,24.0745308 27.3732102,25.3856108 26.0857355,26.0259057 C25.4293759,26.3511348 24.7297398,26.4798713 23.99404,26.4798713 C23.6297965,26.4798713 23.2691594,26.4798713 22.9049158,26.4798713 C22.5250447,26.4798713 22.1451736,26.4798713 21.7653024,26.4798713 Z M20.7951885,18.518533 C21.4010589,18.518533 21.8518553,18.9860499 21.8770999,19.534874 C21.9023445,20.0836982 21.3613888,20.5512151 20.7951885,20.5512151 C20.4381577,20.5512151 20.0811269,20.5512151 19.7240961,20.5512151 C18.1913882,20.5512151 16.655074,20.5512151 15.1187597,20.5512151 C14.1486458,20.5512151 13.1749255,20.5512151 12.2048115,20.5512151 C11.616973,20.5512151 11.1229001,20.0836982 11.1229001,19.534874 C11.1229001,19.1994815 11.1229001,18.8640889 11.1229001,18.5286964 C11.1229001,17.0888799 11.1229001,15.6456756 11.1229001,14.2024712 C11.1229001,13.2911521 11.1229001,12.3764451 11.1229001,11.465126 C11.1229001,10.912914 11.6205793,10.4487849 12.2048115,10.4487849 C12.5618423,10.4487849 12.9188731,10.4487849 13.2759039,10.4487849 C14.8086118,10.4487849 16.344926,10.4487849 17.8812403,10.4487849 C18.8513542,10.4487849 19.8250745,10.4487849 20.7951885,10.4487849 C21.383027,10.4487849 21.8770999,10.9163018 21.8770999,11.465126 C21.8770999,11.8005185 21.8770999,12.1359111 21.8770999,12.4713036 C21.8770999,13.9111201 21.8770999,15.3543244 21.8770999,16.7975288 C21.8770999,17.7088479 21.8770999,18.6235549 21.8770999,19.534874 C21.8770999,20.104025 21.383027,20.5275005 20.7951885,20.5512151 C20.2109563,20.5749297 19.713277,20.0667592 19.713277,19.534874 C19.713277,19.1994815 19.713277,18.8640889 19.713277,18.5286964 C19.713277,17.0888799 19.713277,15.6456756 19.713277,14.2024712 C19.713277,13.2911521 19.713277,12.3764451 19.713277,11.465126 C20.0739142,11.8039063 20.4345513,12.1426867 20.7951885,12.481467 C20.4381577,12.481467 20.0811269,12.481467 19.7240961,12.481467 C18.1913882,12.481467 16.655074,12.481467 15.1187597,12.481467 C14.1486458,12.481467 13.1749255,12.481467 12.2048115,12.481467 C12.5654487,12.1426867 12.9260858,11.8039063 13.286723,11.465126 C13.286723,11.8005185 13.286723,12.1359111 13.286723,12.4713036 C13.286723,13.9111201 13.286723,15.3543244 13.286723,16.7975288 C13.286723,17.7088479 13.286723,18.6235549 13.286723,19.534874 C12.9260858,19.1960937 12.5654487,18.8573133 12.2048115,18.518533 C12.5618423,18.518533 12.9188731,18.518533 13.2759039,18.518533 C14.8086118,18.518533 16.344926,18.518533 17.8812403,18.518533 C18.8513542,18.518533 19.8250745,18.518533 20.7951885,18.518533 Z" id="icon-2" fill="#FFEB89" fill-rule="nonzero"></path>
    </g>
</svg>