<?xml version="1.0" encoding="UTF-8"?>
<svg width="31px" height="31px" viewBox="0 0 31 31" version="1.1" xmlns="http://www.w3.org/2000/svg" xmlns:xlink="http://www.w3.org/1999/xlink">
    <!-- Generator: Sketch 55.1 (78136) - https://sketchapp.com -->
    <desc>Created with Sketch.</desc>
    <g id="Responsive" stroke="none" stroke-width="1" fill="none" fill-rule="evenodd">
        <path d="M29.0944967,1.00871519 C28.845764,1.04191654 28.6157719,1.16037467 28.4428199,1.34436333 L25.1387041,4.68927074 L22.5434297,2.06195593 C22.0485219,1.56093741 21.3841854,1.30977074 20.7255943,1.30964111 C20.0670032,1.30951148 19.4140064,1.56961889 18.9191919,2.07353 L13.8086736,7.27028926 C13.3859032,7.70319847 13.3859032,8.39988005 13.8086736,8.83278926 L22.6005943,17.7448263 C22.8783465,18.0260075 23.2831792,18.1358213 23.6625958,18.0329018 C24.0420123,17.9299824 24.3383704,17.6299655 24.4400348,17.2458648 C24.5416992,16.8617641 24.4332246,16.4519335 24.1554724,16.1707522 L16.1295577,8.04575222 L20.4740699,3.63603 C20.6276044,3.47967445 20.8318397,3.47738185 20.9885516,3.63603 L27.7111126,10.4415856 C27.8678549,10.6002633 27.8678524,10.8153189 27.7111126,10.973993 L25.5159906,13.1962152 C25.209967,13.4707862 25.0800752,13.8948042 25.1789381,14.2964877 C25.2778009,14.6981712 25.5890275,15.0109234 25.9865312,15.1080396 C26.3840349,15.2051558 26.801912,15.0705348 27.0708687,14.7587152 L29.2659906,12.536493 C30.2557865,11.5344781 30.2558161,9.8811337 29.2659906,8.87908556 L26.6821492,6.26334482 L29.997698,2.90686333 C30.3353563,2.57355155 30.4249638,2.05914455 30.2202938,1.62901446 C30.0156238,1.19888436 29.5624263,0.949178554 29.0944967,1.00871519 Z M12.6310821,12.1198263 C12.3823493,12.1530276 12.1523573,12.2714858 11.9794053,12.4554744 L9.64708821,14.8165856 L8.76675284,13.9138078 C8.55479272,13.6998323 8.265706,13.58277 7.96644796,13.5897337 C7.68302375,13.5950688 7.41262759,13.7111985 7.21187479,13.9138078 L2.08992357,19.098993 C1.10008455,20.100993 1.10012553,21.7659004 2.08992357,22.7679744 L4.68519796,25.3952893 L1.36964918,28.7517707 C1.06362556,29.0263417 0.933733778,29.4503597 1.03259661,29.8520432 C1.13145944,30.2537268 1.44268599,30.5664789 1.84018972,30.6635951 C2.23769345,30.7607114 2.6555705,30.6260903 2.92452723,30.3142707 L6.24007601,26.9693633 L8.81248455,29.57353 C9.8022987,30.57553 11.4469141,30.575567 12.4367224,29.57353 L17.5586736,24.3883448 C17.981444,23.9554356 17.981444,23.258754 17.5586736,22.8258448 L16.6897711,21.9346411 L19.0220882,19.57353 C19.3597465,19.2402182 19.4493541,18.7258112 19.244684,18.2956811 C19.040014,17.865551 18.5868165,17.6158452 18.118887,17.6753819 C17.8701542,17.7085832 17.6401621,17.8270413 17.4672102,18.01103 L15.1348931,20.3721411 L11.2019663,16.3790856 L13.5342833,14.0179744 C13.8719417,13.6846627 13.9615492,13.1702557 13.7568792,12.7401256 C13.5522091,12.3099955 13.0990117,12.0602897 12.6310821,12.1198263 Z M7.98931382,16.2749189 L15.2263565,23.6128819 L10.8818443,28.01103 C10.7250848,28.1697337 10.5240928,28.1696967 10.3673626,28.01103 L3.64480162,21.1939004 C3.48804796,21.0351967 3.4880765,20.8317337 3.64480162,20.673067 L7.98931382,16.2749189 Z" id="icon-3" stroke="#FFEB89" stroke-width="0.3" fill="#FFEB89" fill-rule="nonzero"></path>
    </g>
</svg>