<?xml version="1.0" encoding="UTF-8"?>
<svg width="42px" height="30px" viewBox="0 0 42 30" version="1.1" xmlns="http://www.w3.org/2000/svg" xmlns:xlink="http://www.w3.org/1999/xlink">
    <!-- Generator: Sketch 55.1 (78136) - https://sketchapp.com -->
    <desc>Created with Sketch.</desc>
    <g id="Responsive" stroke="none" stroke-width="1" fill="none" fill-rule="evenodd">
        <g id="icon-1" transform="translate(1.000000, 1.000000)" fill="#FFEB89" fill-rule="nonzero" stroke="#FFEB89">
            <path d="M39.9731683,11.6335942 C39.9730693,11.6321739 39.9611881,11.5257536 39.9612871,11.5271739 C39.9177228,11.1554638 39.7071287,10.8242319 39.4008911,10.6144348 L24.8730693,0.717347826 C24.2558416,0.314797101 23.5082178,0.140405797 22.7866337,0.0797391304 C22.0462376,0.0175507246 21.2314851,0.0621884058 20.5285149,0.326971014 L1.46742574,7.46128986 C0.873861386,7.68366667 0.184455446,8.09352174 0.0922772277,8.80143478 C0.0924752475,8.7985942 0.0921782178,8.79544928 0.0924752475,8.7926087 C0.0861386139,8.81736232 0.0706930693,8.9112029 0.0706930693,8.93747826 L0.0721782178,16.2830145 C0.0589108911,16.6912464 0.293465347,17.1358986 0.625445545,17.3615217 L15.2312871,27.3118696 C15.8348515,27.7192899 16.5960396,27.8888116 17.3077228,27.9434928 C18.0991089,28.0042609 18.910495,27.901087 19.6569307,27.6217971 L38.5854455,20.5372899 C39.4581188,20.2106232 39.9653465,19.6685797 39.9768317,19.044058 L39.9778218,11.7663913 C39.9778218,11.7664928 39.9778218,11.6865507 39.9731683,11.6335942 C39.9730693,11.6322754 39.9778218,11.6865507 39.9731683,11.6335942 Z M0.763762376,8.65889855 C0.961584158,8.33821739 1.33633663,8.15865217 1.67128713,8.03315942 L20.7273267,0.900666667 C21.9618812,0.491217391 23.6418812,0.635884058 24.5492079,1.22753623 L39.0587129,11.1122464 C39.35,11.3646522 39.479802,11.7431594 39.2279208,12.0738841 C39.019505,12.3475942 38.6918812,12.4994638 38.3815842,12.6156232 L19.4530693,19.7001304 C18.2364356,20.1555362 16.6884158,20.1391014 15.5538614,19.4508696 L0.96960396,9.51513043 C0.724752475,9.296 0.573465347,8.9674058 0.763762376,8.65889855 C0.961485149,8.33821739 0.573465347,8.9674058 0.763762376,8.65889855 Z M39.3834653,12.760087 L39.3826733,19.0384783 C39.3762376,19.3868551 39.0018812,19.7335072 38.3814851,19.9656232 L19.4529703,27.0501304 C18.1815842,27.526029 16.579604,27.4231594 15.5537624,26.8008696 L0.969207921,16.8649275 C0.799207921,16.7142754 0.666138614,16.5259855 0.666138614,16.2883913 L0.664950495,10.0386087 L15.2311881,19.961971 C15.8353465,20.3697971 16.5985149,20.5396232 17.3109901,20.5932899 C18.100198,20.6527391 18.9123762,20.5504783 19.6568317,20.272 L38.5853465,13.1874928 C38.7357426,13.1311884 38.8835644,13.0667681 39.0254455,12.9906812 C39.1450495,12.9264638 39.309604,12.817913 39.3834653,12.760087 Z" id="Shape" stroke-width="1.6"></path>
            <path d="M36.1108911,17.2395797 L24.9475248,21.4243623 C24.5891089,21.5586812 24.790297,22.131058 25.1515842,21.996029 L36.3149505,17.8112464 C36.6744554,17.6764203 36.470495,17.1048551 36.1108911,17.2395797 Z" id="Path" stroke-width="0.6"></path>
            <path d="M22.8366337,21.8085946 C22.5149505,21.9263772 22.2168317,22.3150294 22.2923762,22.6799424 C22.3644554,23.0282178 22.7575248,23.0427251 22.999505,22.8751309 C23.229505,22.7158555 23.4330693,22.3930439 23.3876238,22.097928 C23.3355446,21.7596961 22.999604,21.7490439 22.7484158,21.8408555 C22.8035644,21.8206671 22.8587129,21.8004787 22.9138614,21.7802903 C22.8880198,21.7898265 22.8623762,21.7991598 22.8366337,21.8085946 C22.6030693,21.8941164 23.1120792,21.707754 22.8366337,21.8085946 Z" id="Path" stroke-width="0.6"></path>
        </g>
    </g>
</svg>