<?xml version="1.0" encoding="UTF-8"?>
<svg width="49px" height="35px" viewBox="0 0 49 35" version="1.1" xmlns="http://www.w3.org/2000/svg" xmlns:xlink="http://www.w3.org/1999/xlink">
    <!-- Generator: Sketch 55.1 (78136) - https://sketchapp.com -->
    <desc>Created with Sketch.</desc>
    <g id="Responsive" stroke="none" stroke-width="1" fill="none" fill-rule="evenodd">
        <g id="icon-1" transform="translate(1.000000, 1.000000)" fill="#FFEB89" fill-rule="nonzero" stroke="#FFEB89">
            <path d="M46.9684728,13.7110217 C46.9683564,13.7093478 46.954396,13.5839239 46.9545124,13.5855978 C46.9033243,13.1475109 46.6558762,12.7571304 46.296047,12.5098696 L29.2258564,0.845445652 C28.5006139,0.37101087 27.6221559,0.165478261 26.7742946,0.0939782609 C25.9043292,0.0206847826 24.946995,0.0732934783 24.121005,0.385358696 L1.72422525,8.79366304 C1.02678713,9.05575 0.216735149,9.53879348 0.108425743,10.3731196 C0.108658416,10.3697717 0.108309406,10.3660652 0.108658416,10.3627174 C0.101212871,10.3918913 0.0830643564,10.5024891 0.0830643564,10.5334565 L0.0848094059,19.1906957 C0.069220297,19.6718261 0.344821782,20.1958804 0.734898515,20.4617935 L17.8967624,32.1889891 C18.6059505,32.669163 19.5003465,32.8689565 20.3365743,32.9334022 C21.266453,33.0050217 22.2198317,32.8834239 23.0968936,32.5542609 L45.3378985,24.204663 C46.3632896,23.819663 46.9592822,23.1808261 46.9727772,22.4447826 L46.9739406,13.8675326 C46.9739406,13.8676522 46.9739406,13.7734348 46.9684728,13.7110217 C46.9683564,13.7094674 46.9739406,13.7734348 46.9684728,13.7110217 Z M0.897420792,10.2051304 C1.12986139,9.82718478 1.57019554,9.61555435 1.96376238,9.46765217 L24.3546089,1.0615 C25.8052104,0.578934783 27.7792104,0.749434783 28.8453193,1.44673913 L45.8939876,13.0965761 C46.23625,13.3940543 46.3887673,13.8401522 46.0928069,14.2299348 C45.8479183,14.5525217 45.4629604,14.7315109 45.0983614,14.868413 L22.8573564,23.2180109 C21.4278119,23.7547391 19.6088886,23.7353696 18.2757871,22.9242391 L1.13928465,11.2142609 C0.851584158,10.956 0.673821782,10.5687283 0.897420792,10.2051304 C1.12974505,9.82718478 0.673821782,10.5687283 0.897420792,10.2051304 Z M46.2755718,15.0386739 L46.2746411,22.4382065 C46.2670792,22.8487935 45.8272104,23.2573478 45.098245,23.530913 L22.8572401,31.8805109 C21.3633614,32.4413913 19.4810347,32.3201522 18.2756708,31.5867391 L1.13881931,19.8765217 C0.939069307,19.6989674 0.782712871,19.4770543 0.782712871,19.1970326 L0.781316832,11.8312174 L17.896646,23.5266087 C18.6065322,24.0072609 19.503255,24.207413 20.3404134,24.270663 C21.2677327,24.3407283 22.2220421,24.2202065 23.0967772,23.892 L45.3377822,15.5424022 C45.5144975,15.4760435 45.6881881,15.4001196 45.8548985,15.3104457 C45.9954332,15.2347609 46.1887847,15.1068261 46.2755718,15.0386739 Z" id="Shape" stroke-width="1.6"></path>
            <path d="M42.430297,20.3180761 L29.3133416,25.2501413 C28.892203,25.4084457 29.128599,26.0830326 29.5531114,25.9238913 L42.6700668,20.9918261 C43.0924851,20.8329239 42.8528317,20.1592935 42.430297,20.3180761 Z" id="Path" stroke-width="0.6"></path>
            <path d="M26.8330446,25.7029865 C26.4550668,25.8418017 26.1047772,26.2998561 26.1935421,26.7299322 C26.2782351,27.1403996 26.7400916,27.1574974 27.0244183,26.9599756 C27.2946683,26.7722583 27.5338564,26.3918017 27.4804579,26.0439865 C27.4192649,25.6453561 27.0245347,25.6328017 26.7293886,25.7410083 C26.7941881,25.7172148 26.8589876,25.6934213 26.9237871,25.6696278 C26.8934233,25.680867 26.8632921,25.691867 26.8330446,25.7029865 C26.5586064,25.80378 27.1566931,25.5841387 26.8330446,25.7029865 Z" id="Path" stroke-width="0.6"></path>
        </g>
    </g>
</svg>