<?xml version="1.0" encoding="UTF-8"?>
<svg width="39px" height="36px" viewBox="0 0 39 36" version="1.1" xmlns="http://www.w3.org/2000/svg" xmlns:xlink="http://www.w3.org/1999/xlink">
    <!-- Generator: Sketch 55.1 (78136) - https://sketchapp.com -->
    <desc>Created with Sketch.</desc>
    <g id="Responsive" stroke="none" stroke-width="1" fill="none" fill-rule="evenodd">
        <path d="M25.7226301,30.7508183 L25.7226301,34.8188054 C25.7226301,35.4797549 25.1387258,35.9715329 24.4440075,35.9990724 C23.7535513,36.026612 23.1653849,35.4364785 23.1653849,34.8188054 C23.1653849,34.5984889 23.1653849,34.3821066 23.1653849,34.1617901 L23.1653849,30.7508183 C22.8045292,30.7508183 22.4436734,30.7508183 22.0828177,30.7508183 C20.0753802,30.7508183 18.0636806,30.7508183 16.056243,30.7508183 C15.9823766,30.7508183 15.9085003,30.7508183 15.8346151,30.7508183 L15.8346151,34.8188054 C15.8346151,35.4797549 15.2464487,35.9715329 14.5559925,35.9990724 C13.8655363,36.026612 13.2773699,35.4364785 13.2773699,34.8188054 C13.2773699,34.5984889 13.2773699,34.3821066 13.2773699,34.1617901 L13.2773699,30.7508183 C12.6633137,30.7508183 12.049395,30.7508183 11.4361533,30.7508183 C11.1122355,30.7508183 10.7925799,30.7508183 10.4686621,30.7508183 C9.17725328,30.7508183 7.9071548,30.2826457 7.01211895,29.4171166 C6.14691764,28.5751927 5.68661349,27.4736102 5.68661349,26.3169484 C5.68661349,25.9982763 5.68661349,25.6796042 5.68661349,25.3609321 C5.68661349,24.8219435 5.68661349,24.2829549 5.68661349,23.7439663 L1.27962748,23.7439663 C0.563598808,23.7439663 0.0308393781,23.2049777 0.00100485004,22.5636992 C-0.0288296781,21.926355 0.610481638,21.3834322 1.27962748,21.3834322 C1.51830371,21.3834322 1.75271786,21.3834322 1.99139408,21.3834322 L5.68661349,21.3834322 C5.68661349,21.2772082 5.68661349,21.1709841 5.68661349,21.0647601 C5.68661349,19.1999382 5.68661349,17.331182 5.68661349,15.4624259 C5.68661349,15.1804732 5.68661349,14.8985205 5.68661349,14.6165678 L1.27962748,14.6165678 C0.563598808,14.6165678 0.0308393781,14.0775792 0.00100485004,13.4363008 C-0.0288296781,12.7989566 0.610481638,12.2560337 1.27962748,12.2560337 C1.51830371,12.2560337 1.75271786,12.2560337 1.99139408,12.2560337 L5.68661349,12.2560337 C5.68661349,11.8180235 5.68661349,11.3800133 5.68661349,10.9420031 C5.68661349,10.5564492 5.68661349,10.1748295 5.68661349,9.78927559 C5.68661349,8.93554909 5.88266896,8.09362526 6.37280764,7.35792547 C7.23800895,6.05963172 8.77661819,5.26491858 10.4260414,5.25311591 C10.6732418,5.25311591 10.9204421,5.25311591 11.1676425,5.25311591 C11.8700409,5.25311591 12.5734466,5.25311591 13.2773699,5.25311591 L13.2773699,1.1811946 C13.2773699,0.520245054 13.8612742,0.0284671183 14.5559925,0.000927553883 C15.2464487,-0.0266120105 15.8346151,0.563521512 15.8346151,1.1811946 C15.8346151,1.40151111 15.8346151,1.61789341 15.8346151,1.83820992 L15.8346151,5.25311591 C17.7255559,5.25311591 19.6164967,5.25311591 21.5074375,5.25311591 C22.0600866,5.25311591 22.6127358,5.25311591 23.1653849,5.25311591 L23.1653849,1.1811946 C23.1653849,0.520245054 23.7492892,0.0284671183 24.4440075,0.000927553883 C25.1344637,-0.0266120105 25.7226301,0.563521512 25.7226301,1.1811946 C25.7226301,1.40151111 25.7226301,1.61789341 25.7226301,1.83820992 L25.7226301,5.25311591 C26.0522306,5.25311591 26.3818311,5.25311591 26.7114316,5.25311591 C27.7258056,5.25311591 28.8552556,5.15869454 29.8440571,5.41048485 C31.5020044,5.83538098 32.8999652,7.15334585 33.2068346,8.73490369 C33.2963382,9.17947095 33.3091244,9.60436708 33.3091244,10.0489343 C33.3091244,10.7837722 33.3091244,11.520057 33.3091244,12.2560337 L37.7203725,12.2560337 C38.4364012,12.2560337 38.9691606,12.7950223 38.9989951,13.4363008 C39.0288297,14.073645 38.3895184,14.6165678 37.7203725,14.6165678 C37.4816963,14.6165678 37.2472821,14.6165678 37.0086059,14.6165678 L33.3091244,14.6165678 C33.3091244,16.1433421 33.3091244,17.668313 33.3091244,19.1960039 C33.3091244,19.9246107 33.3091244,20.6539751 33.3091244,21.3834322 L37.7203725,21.3834322 C38.4364012,21.3834322 38.9691606,21.9224208 38.9989951,22.5636992 C39.0288297,23.2010434 38.3895184,23.7439663 37.7203725,23.7439663 C37.4816963,23.7439663 37.2472821,23.7439663 37.0086059,23.7439663 L33.3091244,23.7439663 C33.3091244,23.8895593 33.3091244,24.0351273 33.3091244,24.1806651 C33.3091244,24.9163649 33.3091244,25.6481305 33.3091244,26.379896 C33.3091244,27.0408456 32.7252201,27.5326235 32.0305018,27.5601631 C31.3400456,27.5877026 30.7518792,26.9975691 30.7518792,26.379896 C30.7518792,26.3720276 30.7518792,26.3602249 30.7518792,26.3562907 C30.7348309,25.6638673 30.7518792,24.9675098 30.7518792,24.2711522 C30.7518792,22.8508976 30.7518792,21.4345771 30.7518792,20.0143224 C30.7518792,18.3776855 30.7518792,16.7449827 30.7518792,15.1083457 C30.7518792,13.7825124 30.7518792,12.4606133 30.7518792,11.1387142 C30.7518792,10.4974358 30.8072861,9.8246836 30.7177826,9.18733939 C30.7348309,9.29356343 30.7476171,9.39585324 30.7646654,9.50207727 C30.7220446,9.2227474 30.6410652,8.95128598 30.5217271,8.68769301 C30.5643478,8.78211437 30.6069686,8.87653574 30.6495894,8.9709571 C30.5643478,8.78998282 30.462058,8.61294276 30.3427199,8.44770538 C30.3171475,8.41229737 30.2873129,8.37688935 30.2617405,8.34148134 C30.1381403,8.17230973 30.462058,8.56179786 30.3256716,8.41623159 C30.2574784,8.34541557 30.1892852,8.27459954 30.1168299,8.20771774 C30.0443746,8.14083595 29.9676573,8.07788837 29.8909399,8.01494079 C29.724719,7.87724297 30.1551886,8.19198085 29.9719194,8.07395415 C29.9292986,8.04248036 29.8824158,8.01100657 29.8355329,7.98346701 C29.6607879,7.87724297 29.4775186,7.78675583 29.2899873,7.71200559 C29.3922771,7.75134782 29.4945669,7.79069006 29.5968567,7.83003229 C29.3155597,7.72380826 29.0214765,7.64512379 28.7146071,7.60578155 C28.8296831,7.62151845 28.9404971,7.63332112 29.0555731,7.64905801 C28.8936143,7.62938689 28.7359175,7.61758422 28.5739586,7.61758422 C27.8792403,7.61365 27.1802599,7.61758422 26.4812796,7.61758422 C24.9469324,7.61758422 23.4083232,7.61758422 21.8697139,7.61758422 C20.0839043,7.61758422 18.2980947,7.61758422 16.5122851,7.61758422 C15.0418691,7.61758422 13.5757151,7.61758422 12.1095612,7.61758422 C11.4020567,7.61758422 10.6604555,7.56643932 9.95721308,7.64905801 C10.0722891,7.63332112 10.1831031,7.62151845 10.2981791,7.60578155 C9.99557176,7.64512379 9.70148856,7.71987403 9.4159295,7.83003229 C9.51821931,7.79069006 9.62050912,7.75134782 9.72279893,7.71200559 C9.52674346,7.79069006 9.33495007,7.88511142 9.1559429,7.99526968 C9.11758422,8.01887502 9.07922554,8.04641458 9.04086686,8.07001992 C8.85759762,8.1841124 9.27954309,7.88511142 9.1218463,8.01100657 C9.04512894,8.07395415 8.96841158,8.13690172 8.8959563,8.20378352 C8.82350102,8.27066532 8.75530781,8.34148134 8.6871146,8.41229737 C8.53794196,8.56573208 8.878908,8.16837551 8.75104573,8.33754712 C8.71694913,8.37688935 8.68285253,8.42016581 8.653018,8.46344227 C8.53794196,8.62474543 8.43991423,8.79391704 8.35893479,8.96702288 C8.40155555,8.87260151 8.4441763,8.77818015 8.48679706,8.68375879 C8.37172102,8.94341754 8.28647951,9.21487896 8.24385876,9.49814305 C8.26090706,9.39191901 8.27369328,9.2896292 8.29074159,9.18340517 C8.26943121,9.33290566 8.25664498,9.47847193 8.25664498,9.62797242 C8.25238291,10.2692509 8.25664498,10.9144635 8.25664498,11.5596762 C8.25664498,12.9759966 8.25664498,14.3962513 8.25664498,15.816506 C8.25664498,17.4649456 8.25664498,19.1133852 8.25664498,20.7618249 C8.25664498,22.119132 8.25664498,23.4725049 8.25664498,24.8258777 C8.25664498,25.4789588 8.201238,26.1635137 8.29074159,26.8126606 C8.27369328,26.7064366 8.26090706,26.6041468 8.24385876,26.4979227 C8.28647951,26.7772526 8.36745894,27.048714 8.48679706,27.312307 C8.4441763,27.2178856 8.40155555,27.1234643 8.35893479,27.0290429 C8.4441763,27.2100172 8.54646611,27.3870572 8.66580422,27.5522946 C8.69137668,27.5877026 8.72121121,27.6231106 8.74678366,27.6585187 C8.87038385,27.8276903 8.54646611,27.4382021 8.68285253,27.5837684 C8.75104573,27.6545844 8.81923894,27.7254005 8.89169422,27.7922823 C8.96414951,27.8591641 9.04086686,27.9221116 9.11758422,27.9850592 C9.28380516,28.122757 8.85333554,27.8080191 9.03660479,27.9260459 C9.07922554,27.9575196 9.12610837,27.9889934 9.1729912,28.016533 C9.3477363,28.122757 9.53100554,28.2132442 9.71853686,28.2879944 C9.61624705,28.2486522 9.51395724,28.2093099 9.41166743,28.1699677 C9.69296441,28.2761917 9.98704761,28.3548762 10.293917,28.3942184 C10.178841,28.3784816 10.068027,28.3666789 9.95295101,28.350942 C10.1149099,28.3706131 10.2726067,28.3824158 10.4345655,28.3824158 C11.1292838,28.38635 11.8282642,28.3824158 12.5272446,28.3824158 C14.0615917,28.3824158 15.600201,28.3824158 17.1388102,28.3824158 C18.9246198,28.3824158 20.7104294,28.3824158 22.496239,28.3824158 C23.9666551,28.3824158 25.432809,28.3824158 26.898963,28.3824158 C27.6064675,28.3824158 28.3480686,28.4335607 29.0513111,28.350942 C28.936235,28.3666789 28.8254211,28.3784816 28.710345,28.3942184 C29.0129524,28.3548762 29.3070356,28.280126 29.5925946,28.1699677 C29.4903048,28.2093099 29.388015,28.2486522 29.2857252,28.2879944 C29.4817807,28.2093099 29.6735741,28.1148886 29.8525813,28.0047303 C29.8909399,27.981125 29.9292986,27.9535854 29.9676573,27.9299801 C30.1509265,27.8158876 29.7289811,28.1148886 29.8866779,27.9889934 C29.9633952,27.9260459 30.0401126,27.8630983 30.1125679,27.7962165 C30.1850231,27.7293347 30.2532163,27.6585187 30.3214095,27.5877026 C30.4705822,27.4342679 30.1296162,27.8316245 30.2574784,27.6624529 C30.291575,27.6231106 30.3256716,27.5798342 30.3555062,27.5365577 C30.4705822,27.3752546 30.5686099,27.206083 30.6495894,27.0329771 C30.6069686,27.1273985 30.5643478,27.2218198 30.5217271,27.3162412 C30.6368031,27.0565825 30.7220446,26.785121 30.7646654,26.501857 C30.7476171,26.608081 30.7348309,26.7103708 30.7177826,26.8165948 C30.7390929,26.6710286 30.7518792,26.5254623 30.7518792,26.379896 C30.7561412,25.7189465 31.3315214,25.2271685 32.0219777,25.2035632 C32.7081718,25.1760236 33.3048624,25.7661572 33.3006003,26.3838302 C33.2878141,27.9575196 32.3501575,29.4800641 30.8285965,30.2236324 C30.0528988,30.6013178 29.2260562,30.7508183 28.3565928,30.7508183 C27.9261232,30.7508183 27.4999156,30.7508183 27.069446,30.7508183 C26.6205074,30.7508183 26.1715688,30.7508183 25.7226301,30.7508183 Z M24.5761319,21.5053931 C25.2921605,21.5053931 25.82492,22.048316 25.8547545,22.6856602 C25.884589,23.3230044 25.2452777,23.8659272 24.5761319,23.8659272 C24.1541864,23.8659272 23.7322409,23.8659272 23.3102954,23.8659272 C21.4989134,23.8659272 19.6832692,23.8659272 17.8676251,23.8659272 C16.7211268,23.8659272 15.5703664,23.8659272 14.4238681,23.8659272 C13.7291499,23.8659272 13.1452455,23.3230044 13.1452455,22.6856602 C13.1452455,22.296172 13.1452455,21.9066839 13.1452455,21.5171958 C13.1452455,19.8451508 13.1452455,18.1691716 13.1452455,16.4931924 C13.1452455,15.4348863 13.1452455,14.3726459 13.1452455,13.3143398 C13.1452455,12.6730614 13.7334119,12.1340728 14.4238681,12.1340728 C14.8458136,12.1340728 15.2677591,12.1340728 15.6897046,12.1340728 C17.5010866,12.1340728 19.3167308,12.1340728 21.1323749,12.1340728 C22.2788732,12.1340728 23.4296336,12.1340728 24.5761319,12.1340728 C25.2708501,12.1340728 25.8547545,12.6769956 25.8547545,13.3143398 C25.8547545,13.703828 25.8547545,14.0933161 25.8547545,14.4828042 C25.8547545,16.1548492 25.8547545,17.8308284 25.8547545,19.5068076 C25.8547545,20.5651137 25.8547545,21.6273541 25.8547545,22.6856602 C25.8547545,23.3466097 25.2708501,23.8383877 24.5761319,23.8659272 C23.8856756,23.8934668 23.2975092,23.3033333 23.2975092,22.6856602 C23.2975092,22.296172 23.2975092,21.9066839 23.2975092,21.5171958 C23.2975092,19.8451508 23.2975092,18.1691716 23.2975092,16.4931924 C23.2975092,15.4348863 23.2975092,14.3726459 23.2975092,13.3143398 C23.7237168,13.7077622 24.1499243,14.1011845 24.5761319,14.4946069 C24.1541864,14.4946069 23.7322409,14.4946069 23.3102954,14.4946069 C21.4989134,14.4946069 19.6832692,14.4946069 17.8676251,14.4946069 C16.7211268,14.4946069 15.5703664,14.4946069 14.4238681,14.4946069 C14.8500757,14.1011845 15.2762832,13.7077622 15.7024908,13.3143398 C15.7024908,13.703828 15.7024908,14.0933161 15.7024908,14.4828042 C15.7024908,16.1548492 15.7024908,17.8308284 15.7024908,19.5068076 C15.7024908,20.5651137 15.7024908,21.6273541 15.7024908,22.6856602 C15.2762832,22.2922378 14.8500757,21.8988155 14.4238681,21.5053931 C14.8458136,21.5053931 15.2677591,21.5053931 15.6897046,21.5053931 C17.5010866,21.5053931 19.3167308,21.5053931 21.1323749,21.5053931 C22.2788732,21.5053931 23.4296336,21.5053931 24.5761319,21.5053931 Z" id="icon-2" fill="#FFEB89" fill-rule="nonzero"></path>
    </g>
</svg>