<?xml version="1.0" encoding="UTF-8"?>
<svg width="43px" height="40px" viewBox="0 0 43 40" version="1.1" xmlns="http://www.w3.org/2000/svg" xmlns:xlink="http://www.w3.org/1999/xlink">
    <!-- Generator: Sketch 55.1 (78136) - https://sketchapp.com -->
    <desc>Created with Sketch.</desc>
    <g id="Responsive" stroke="none" stroke-width="1" fill="none" fill-rule="evenodd">
        <path d="M28.3608486,34.1675759 L28.3608486,38.6875616 C28.3608486,39.4219499 27.7170567,39.9683699 26.9510852,39.9989694 C26.189813,40.0295689 25.5413218,39.373865 25.5413218,38.6875616 C25.5413218,38.4427654 25.5413218,38.2023407 25.5413218,37.9575445 L25.5413218,34.1675759 C25.1434552,34.1675759 24.7455887,34.1675759 24.3477221,34.1675759 C22.1343935,34.1675759 19.9163658,34.1675759 17.7030372,34.1675759 C17.6215947,34.1675759 17.5401413,34.1675759 17.4586782,34.1675759 L17.4586782,38.6875616 C17.4586782,39.4219499 16.810187,39.9683699 16.0489148,39.9989694 C15.2876425,40.0295689 14.6391514,39.373865 14.6391514,38.6875616 C14.6391514,38.4427654 14.6391514,38.2023407 14.6391514,37.9575445 L14.6391514,34.1675759 C13.9621151,34.1675759 13.2852304,34.1675759 12.6090921,34.1675759 C12.251952,34.1675759 11.8995111,34.1675759 11.5423711,34.1675759 C10.11851,34.1675759 8.71814503,33.6473841 7.73131064,32.6856851 C6.77737073,31.7502141 6.2698559,30.5262335 6.2698559,29.2410538 C6.2698559,28.8869737 6.2698559,28.5328936 6.2698559,28.1788135 C6.2698559,27.5799372 6.2698559,26.981061 6.2698559,26.3821848 L1.41087133,26.3821848 C0.621403814,26.3821848 0.0340023913,25.7833085 0.00110791158,25.0707769 C-0.0317865681,24.3626167 0.67309514,23.7593691 1.41087133,23.7593691 C1.67402716,23.7593691 1.93248379,23.7593691 2.19563963,23.7593691 L6.2698559,23.7593691 C6.2698559,23.6413424 6.2698559,23.5233157 6.2698559,23.405289 C6.2698559,21.3332646 6.2698559,19.2568689 6.2698559,17.1804732 C6.2698559,16.8671924 6.2698559,16.5539117 6.2698559,16.2406309 L1.41087133,16.2406309 C0.621403814,16.2406309 0.0340023913,15.6417546 0.00110791158,14.9292231 C-0.0317865681,14.2210628 0.67309514,13.6178152 1.41087133,13.6178152 C1.67402716,13.6178152 1.93248379,13.6178152 2.19563963,13.6178152 L6.2698559,13.6178152 C6.2698559,13.1311372 6.2698559,12.6444592 6.2698559,12.1577812 C6.2698559,11.729388 6.2698559,11.3053661 6.2698559,10.8769729 C6.2698559,9.92838788 6.48601962,8.99291696 7.02642893,8.17547275 C7.98036884,6.73292414 9.67678415,5.84990953 11.495379,5.83679545 C11.7679332,5.83679545 12.0404875,5.83679545 12.3130417,5.83679545 C13.087481,5.83679545 13.8630309,5.83679545 14.6391514,5.83679545 L14.6391514,1.31243844 C14.6391514,0.57805006 15.2829433,0.0316301314 16.0489148,0.00103061543 C16.810187,-0.0295689006 17.4586782,0.626135014 17.4586782,1.31243844 C17.4586782,1.55723457 17.4586782,1.79765934 17.4586782,2.04245547 L17.4586782,5.83679545 C19.5435617,5.83679545 21.6284451,5.83679545 23.7133286,5.83679545 C24.3226596,5.83679545 24.9319907,5.83679545 25.5413218,5.83679545 L25.5413218,1.31243844 C25.5413218,0.57805006 26.1851138,0.0316301314 26.9510852,0.00103061543 C27.7123575,-0.0295689006 28.3608486,0.626135014 28.3608486,1.31243844 C28.3608486,1.55723457 28.3608486,1.79765934 28.3608486,2.04245547 L28.3608486,5.83679545 C28.7242543,5.83679545 29.08766,5.83679545 29.4510657,5.83679545 C30.569478,5.83679545 31.814769,5.73188283 32.904986,6.01164983 C34.7329793,6.48375665 36.2743206,7.94816206 36.6126638,9.70544855 C36.7113473,10.1994122 36.7254449,10.671519 36.7254449,11.1654826 C36.7254449,11.9819691 36.7254449,12.8000633 36.7254449,13.6178152 L41.5891287,13.6178152 C42.3785962,13.6178152 42.9659976,14.2166915 42.9988921,14.9292231 C43.0317866,15.6373833 42.3269049,16.2406309 41.5891287,16.2406309 C41.3259728,16.2406309 41.0675162,16.2406309 40.8043604,16.2406309 L36.7254449,16.2406309 C36.7254449,17.9370468 36.7254449,19.6314589 36.7254449,21.3288933 C36.7254449,22.1384563 36.7254449,22.9488612 36.7254449,23.7593691 L41.5891287,23.7593691 C42.3785962,23.7593691 42.9659976,24.3582454 42.9988921,25.0707769 C43.0317866,25.7789372 42.3269049,26.3821848 41.5891287,26.3821848 C41.3259728,26.3821848 41.0675162,26.3821848 40.8043604,26.3821848 L36.7254449,26.3821848 C36.7254449,26.5439547 36.7254449,26.705697 36.7254449,26.8674057 C36.7254449,27.6848499 36.7254449,28.4979227 36.7254449,29.3109956 C36.7254449,30.045384 36.0816529,30.5918039 35.3156815,30.6224034 C34.5544092,30.6530029 33.9059181,29.997299 33.9059181,29.3109956 C33.9059181,29.3022529 33.9059181,29.2891388 33.9059181,29.2847674 C33.8871212,28.5154082 33.9059181,27.7416775 33.9059181,26.9679469 C33.9059181,25.3898862 33.9059181,23.8161968 33.9059181,22.238136 C33.9059181,20.4196505 33.9059181,18.6055363 33.9059181,16.7870508 C33.9059181,15.3139027 33.9059181,13.8451259 33.9059181,12.3763492 C33.9059181,11.6638176 33.9670078,10.9163151 33.8683244,10.2081549 C33.8871212,10.3261816 33.9012188,10.4398369 33.9200157,10.5578636 C33.8730236,10.2474971 33.7837386,9.94587331 33.6521606,9.65299223 C33.6991528,9.75790486 33.7461449,9.86281749 33.793137,9.96773011 C33.6991528,9.76664758 33.5863717,9.5699364 33.4547938,9.38633931 C33.4265985,9.34699707 33.393704,9.30765484 33.3655087,9.2683126 C33.2292316,9.08034415 33.5863717,9.51310873 33.4359969,9.35136843 C33.3608095,9.27268396 33.2856222,9.19399949 33.2057356,9.11968638 C33.125849,9.04537327 33.0412632,8.97543152 32.9566774,8.90548977 C32.7734081,8.75249219 33.2480285,9.10220095 33.0459624,8.97106016 C32.9989703,8.93608929 32.9472789,8.90111841 32.8955876,8.8705189 C32.7029199,8.75249219 32.5008539,8.65195092 32.2940886,8.56889509 C32.4068696,8.61260869 32.5196507,8.65632228 32.6324318,8.70003588 C32.3222838,8.58200917 31.9980382,8.49458198 31.659695,8.45086839 C31.7865737,8.46835383 31.9087532,8.48146791 32.0356319,8.49895334 C31.8570619,8.47709655 31.6831911,8.46398247 31.504621,8.46398247 C30.7386496,8.45961111 29.9679789,8.46398247 29.1973082,8.46398247 C27.5055922,8.46398247 25.8091768,8.46398247 24.1127615,8.46398247 C22.143792,8.46398247 20.1748224,8.46398247 18.2058528,8.46398247 C16.5846249,8.46398247 14.9680962,8.46398247 13.3515675,8.46398247 C12.5714984,8.46398247 11.7538356,8.4071548 10.9784657,8.49895334 C11.1053444,8.48146791 11.2275239,8.46835383 11.3544026,8.45086839 C11.0207586,8.49458198 10.696513,8.57763781 10.3816659,8.70003588 C10.4944469,8.65632228 10.607228,8.61260869 10.7200091,8.56889509 C10.5038454,8.65632228 10.2923808,8.76123491 10.095014,8.88363297 C10.0527211,8.90986113 10.0104282,8.94046065 9.96813526,8.9666888 C9.76606917,9.09345823 10.2312911,8.76123491 10.0574203,8.90111841 C9.97283447,8.97106016 9.88824867,9.04100191 9.80836207,9.11531502 C9.72847548,9.18962813 9.6532881,9.2683126 9.57810072,9.34699707 C9.41362832,9.51748009 9.78956523,9.07597279 9.64858889,9.26394124 C9.61099519,9.30765484 9.5734015,9.35573979 9.54050702,9.40382475 C9.41362832,9.58305048 9.30554645,9.77101894 9.21626144,9.96335875 C9.26325355,9.85844613 9.31024567,9.7535335 9.35723778,9.64862087 C9.23035907,9.9371306 9.13637484,10.2387544 9.08938273,10.5534923 C9.10817958,10.4354656 9.12227721,10.3218102 9.14107406,10.2037835 C9.117578,10.3698952 9.10348037,10.5316355 9.10348037,10.6977471 C9.09878115,11.4102787 9.10348037,12.1271817 9.10348037,12.8440846 C9.10348037,14.417774 9.10348037,15.9958348 9.10348037,17.5738955 C9.10348037,19.4054951 9.10348037,21.2370947 9.10348037,23.0686943 C9.10348037,24.5768133 9.10348037,26.080561 9.10348037,27.5843086 C9.10348037,28.3099543 9.04239062,29.0705708 9.14107406,29.7918451 C9.12227721,29.6738184 9.10817958,29.5601631 9.08938273,29.4421364 C9.13637484,29.7525029 9.22565986,30.0541267 9.35723778,30.3470078 C9.31024567,30.2420951 9.26325355,30.1371825 9.21626144,30.0322699 C9.31024567,30.2333524 9.42302674,30.4300636 9.55460466,30.6136607 C9.58279993,30.6530029 9.61569441,30.6923452 9.64388967,30.7316874 C9.7801668,30.9196559 9.42302674,30.4868913 9.5734015,30.6486316 C9.64858889,30.727316 9.72377627,30.8060005 9.80366286,30.8803136 C9.88354946,30.9546267 9.96813526,31.0245685 10.0527211,31.0945102 C10.2359903,31.2475078 9.76136996,30.8977991 9.96343605,31.0289398 C10.0104282,31.0639107 10.0621195,31.0988816 10.1138108,31.1294811 C10.3064785,31.2475078 10.5085446,31.3480491 10.7153099,31.4311049 C10.6025288,31.3873913 10.4897477,31.3436777 10.3769667,31.2999641 C10.6871146,31.4179908 11.0113602,31.505418 11.3497034,31.5491316 C11.2228247,31.5316462 11.1006452,31.5185321 10.9737665,31.5010467 C11.1523365,31.5229035 11.3262074,31.5360175 11.5047774,31.5360175 C12.2707488,31.5403889 13.0414195,31.5360175 13.8120902,31.5360175 C15.5038063,31.5360175 17.2002216,31.5360175 18.8966369,31.5360175 C20.8656065,31.5360175 22.834576,31.5360175 24.8035456,31.5360175 C26.4247735,31.5360175 28.0413022,31.5360175 29.657831,31.5360175 C30.4379001,31.5360175 31.2555628,31.5928452 32.0309327,31.5010467 C31.904054,31.5185321 31.7818745,31.5316462 31.6549958,31.5491316 C31.9886398,31.505418 32.3128854,31.4223622 32.6277326,31.2999641 C32.5149515,31.3436777 32.4021704,31.3873913 32.2893893,31.4311049 C32.5055531,31.3436777 32.7170176,31.2387651 32.9143845,31.116367 C32.9566774,31.0901389 32.9989703,31.0595394 33.0412632,31.0333112 C33.2433293,30.9065418 32.7781073,31.2387651 32.9519781,31.0988816 C33.036564,31.0289398 33.1211498,30.9589981 33.2010363,30.884685 C33.2809229,30.8103719 33.3561103,30.7316874 33.4312977,30.6530029 C33.5957701,30.4825199 33.2198332,30.9240272 33.3608095,30.7360588 C33.3984032,30.6923452 33.4359969,30.6442602 33.4688914,30.5961753 C33.5957701,30.4169495 33.703852,30.2289811 33.793137,30.0366412 C33.7461449,30.1415539 33.6991528,30.2464665 33.6521606,30.3513791 C33.7790394,30.0628694 33.8730236,29.7612456 33.9200157,29.4465077 C33.9012188,29.5645344 33.8871212,29.6781898 33.8683244,29.7962165 C33.8918204,29.6344762 33.9059181,29.4727359 33.9059181,29.3109956 C33.9106173,28.5766072 34.5450108,28.0301873 35.3062831,28.0039591 C36.0628561,27.9733596 36.7207457,28.6290635 36.7160465,29.3153669 C36.7019488,31.0639107 35.6681223,32.7556268 33.9905039,33.5818137 C33.1352474,34.0014642 32.2236004,34.1675759 31.2649613,34.1675759 C30.7903409,34.1675759 30.3204198,34.1675759 29.8457994,34.1675759 C29.3508158,34.1675759 28.8558322,34.1675759 28.3608486,34.1675759 Z M27.0967608,23.8948813 C27.8862283,23.8948813 28.4736297,24.4981289 28.5065242,25.2062891 C28.5394187,25.9144493 27.8345369,26.5176969 27.0967608,26.5176969 C26.6315388,26.5176969 26.1663169,26.5176969 25.701095,26.5176969 C23.7039301,26.5176969 21.7020661,26.5176969 19.700202,26.5176969 C18.4361142,26.5176969 17.1673271,26.5176969 15.9032392,26.5176969 C15.1372678,26.5176969 14.4934758,25.9144493 14.4934758,25.2062891 C14.4934758,24.7735245 14.4934758,24.3407599 14.4934758,23.9079953 C14.4934758,22.0501676 14.4934758,20.1879685 14.4934758,18.3257693 C14.4934758,17.1498737 14.4934758,15.9696066 14.4934758,14.7937109 C14.4934758,14.0811793 15.141967,13.4823031 15.9032392,13.4823031 C16.3684612,13.4823031 16.8336831,13.4823031 17.298905,13.4823031 C19.2960699,13.4823031 21.2979339,13.4823031 23.299798,13.4823031 C24.5638858,13.4823031 25.8326729,13.4823031 27.0967608,13.4823031 C27.8627322,13.4823031 28.5065242,14.0855507 28.5065242,14.7937109 C28.5065242,15.2264755 28.5065242,15.6592401 28.5065242,16.0920047 C28.5065242,17.9498324 28.5065242,19.8120315 28.5065242,21.6742307 C28.5065242,22.8501263 28.5065242,24.0303934 28.5065242,25.2062891 C28.5065242,25.9406775 27.8627322,26.4870974 27.0967608,26.5176969 C26.3354885,26.5482964 25.6869973,25.8925925 25.6869973,25.2062891 C25.6869973,24.7735245 25.6869973,24.3407599 25.6869973,23.9079953 C25.6869973,22.0501676 25.6869973,20.1879685 25.6869973,18.3257693 C25.6869973,17.1498737 25.6869973,15.9696066 25.6869973,14.7937109 C26.1569185,15.2308469 26.6268396,15.6679828 27.0967608,16.1051187 C26.6315388,16.1051187 26.1663169,16.1051187 25.701095,16.1051187 C23.7039301,16.1051187 21.7020661,16.1051187 19.700202,16.1051187 C18.4361142,16.1051187 17.1673271,16.1051187 15.9032392,16.1051187 C16.3731604,15.6679828 16.8430815,15.2308469 17.3130027,14.7937109 C17.3130027,15.2264755 17.3130027,15.6592401 17.3130027,16.0920047 C17.3130027,17.9498324 17.3130027,19.8120315 17.3130027,21.6742307 C17.3130027,22.8501263 17.3130027,24.0303934 17.3130027,25.2062891 C16.8430815,24.7691531 16.3731604,24.3320172 15.9032392,23.8948813 C16.3684612,23.8948813 16.8336831,23.8948813 17.298905,23.8948813 C19.2960699,23.8948813 21.2979339,23.8948813 23.299798,23.8948813 C24.5638858,23.8948813 25.8326729,23.8948813 27.0967608,23.8948813 Z" id="icon-2" fill="#FFEB89" fill-rule="nonzero"></path>
    </g>
</svg>