<?xml version="1.0" encoding="UTF-8"?>
<svg width="17.1px" height="13.5px" viewBox="0 0 17.1 13.5" version="1.1" xmlns="http://www.w3.org/2000/svg" xmlns:xlink="http://www.w3.org/1999/xlink">
    <!-- Generator: Sketch 55.1 (78136) - https://sketchapp.com -->
    <desc>Created with Sketch.</desc>
    <g id="Responsive" stroke="none" stroke-width="1" fill="none" fill-rule="evenodd">
        <path d="M2.1375,11.88 L1.06968142,11.88 C0.478912753,11.88 0,11.3995761 0,10.8047763 L0,1.0752237 C0,0.481394048 0.479982038,0 1.06383108,0 L9.62366892,0 C10.2112068,0 10.6875,0.482705892 10.6875,1.08263601 L10.6875,2.7 L13.6313692,2.7 C13.7762778,2.7 13.9667414,2.79219938 14.0616175,2.91204331 L16.9321325,6.53795669 C17.0248434,6.65506498 17.1,6.86678585 17.1,7.01858822 L17.1,10.8045839 C17.1,11.3985198 16.6248006,11.88 16.0303186,11.88 L14.9625,11.88 C14.9625,10.6870649 14.0055087,9.72 12.825,9.72 C11.6444913,9.72 10.6875,10.6870649 10.6875,11.88 L6.4125,11.88 C6.4125,10.6870649 5.45550865,9.72 4.275,9.72 C3.09449135,9.72 2.1375,10.6870649 2.1375,11.88 Z M10.6875,3.78 L10.6875,7.02 L16.03125,7.02 L13.359375,3.78 L10.6875,3.78 Z M12.825,13.5 C11.9396186,13.5 11.221875,12.7747013 11.221875,11.88 C11.221875,10.9852987 11.9396186,10.26 12.825,10.26 C13.7103814,10.26 14.428125,10.9852987 14.428125,11.88 C14.428125,12.7747013 13.7103814,13.5 12.825,13.5 Z M4.275,13.5 C3.38961864,13.5 2.671875,12.7747013 2.671875,11.88 C2.671875,10.9852987 3.38961864,10.26 4.275,10.26 C5.16038136,10.26 5.878125,10.9852987 5.878125,11.88 C5.878125,12.7747013 5.16038136,13.5 4.275,13.5 Z" id="icon" fill="#000000"></path>
    </g>
</svg>