<?xml version="1.0" encoding="UTF-8"?>
<svg width="17.1px" height="13.3977273px" viewBox="0 0 17.1 13.3977273" version="1.1" xmlns="http://www.w3.org/2000/svg" xmlns:xlink="http://www.w3.org/1999/xlink">
    <!-- Generator: Sketch 55.1 (78136) - https://sketchapp.com -->
    <desc>Created with Sketch.</desc>
    <g id="Responsive" stroke="none" stroke-width="1" fill="none" fill-rule="evenodd">
        <path d="M2.1375,11.79 L1.06968142,11.79 C0.478912753,11.79 0,11.3132157 0,10.7229219 L0,1.06707807 C0,0.477747124 0.479982038,0 1.06383108,0 L9.62366892,0 C10.2112068,0 10.6875,0.479049029 10.6875,1.07443422 L10.6875,2.67954545 L13.6313692,2.67954545 C13.7762778,2.67954545 13.9667414,2.77104636 14.0616175,2.88998238 L16.9321325,6.48842671 C17.0248434,6.60464782 17.1,6.81476475 17.1,6.9654171 L17.1,10.722731 C17.1,11.3121674 16.6248006,11.79 16.0303186,11.79 L14.9625,11.79 C14.9625,10.6061023 14.0055087,9.64636364 12.825,9.64636364 C11.6444913,9.64636364 10.6875,10.6061023 10.6875,11.79 L6.4125,11.79 C6.4125,10.6061023 5.45550865,9.64636364 4.275,9.64636364 C3.09449135,9.64636364 2.1375,10.6061023 2.1375,11.79 Z M10.6875,3.75136364 L10.6875,6.96681818 L16.03125,6.96681818 L13.359375,3.75136364 L10.6875,3.75136364 Z M12.825,13.3977273 C11.9396186,13.3977273 11.221875,12.6779232 11.221875,11.79 C11.221875,10.9020768 11.9396186,10.1822727 12.825,10.1822727 C13.7103814,10.1822727 14.428125,10.9020768 14.428125,11.79 C14.428125,12.6779232 13.7103814,13.3977273 12.825,13.3977273 Z M4.275,13.3977273 C3.38961864,13.3977273 2.671875,12.6779232 2.671875,11.79 C2.671875,10.9020768 3.38961864,10.1822727 4.275,10.1822727 C5.16038136,10.1822727 5.878125,10.9020768 5.878125,11.79 C5.878125,12.6779232 5.16038136,13.3977273 4.275,13.3977273 Z" id="Shape" fill="#000000"></path>
    </g>
</svg>