<?xml version="1.0" encoding="UTF-8"?>
<svg width="19px" height="15px" viewBox="0 0 19 15" version="1.1" xmlns="http://www.w3.org/2000/svg" xmlns:xlink="http://www.w3.org/1999/xlink">
    <!-- Generator: Sketch 55.1 (78136) - https://sketchapp.com -->
    <desc>Created with Sketch.</desc>
    <g id="Responsive" stroke="none" stroke-width="1" fill="none" fill-rule="evenodd">
        <path d="M2.375,13.2 L1.18853491,13.2 C0.532125281,13.2 0,12.6661957 0,12.005307 L0,1.194693 C0,0.534882276 0.533313375,0 1.18203453,0 L10.6929655,0 C11.3457853,0 11.875,0.53633988 11.875,1.2029289 L11.875,3 L15.1459658,3 C15.3069753,3 15.5186015,3.10244376 15.6240194,3.23560368 L18.8134806,7.26439632 C18.9164926,7.39451664 19,7.62976206 19,7.79843136 L19,12.0050932 C19,12.665022 18.4720007,13.2 17.8114651,13.2 L16.625,13.2 C16.625,11.8745166 15.5616763,10.8 14.25,10.8 C12.9383237,10.8 11.875,11.8745166 11.875,13.2 L7.125,13.2 C7.125,11.8745166 6.06167628,10.8 4.75,10.8 C3.43832372,10.8 2.375,11.8745166 2.375,13.2 Z M11.875,4.2 L11.875,7.8 L17.8125,7.8 L14.84375,4.2 L11.875,4.2 Z M14.25,15 C13.2662429,15 12.46875,14.1941125 12.46875,13.2 C12.46875,12.2058875 13.2662429,11.4 14.25,11.4 C15.2337571,11.4 16.03125,12.2058875 16.03125,13.2 C16.03125,14.1941125 15.2337571,15 14.25,15 Z M4.75,15 C3.76624294,15 2.96875,14.1941125 2.96875,13.2 C2.96875,12.2058875 3.76624294,11.4 4.75,11.4 C5.73375706,11.4 6.53125,12.2058875 6.53125,13.2 C6.53125,14.1941125 5.73375706,15 4.75,15 Z" id="Shape" fill="#000000"></path>
    </g>
</svg>