<?xml version="1.0" encoding="UTF-8"?>
<svg width="48px" height="48px" viewBox="0 0 48 48" version="1.1" xmlns="http://www.w3.org/2000/svg" xmlns:xlink="http://www.w3.org/1999/xlink">
    <!-- Generator: Sketch 55.1 (78136) - https://sketchapp.com -->
    <desc>Created with Sketch.</desc>
    <g id="Responsive" stroke="none" stroke-width="1" fill="none" fill-rule="evenodd">
        <path d="M23.9991609,12.6187444 C23.7399806,12.6187444 23.4914296,12.5157462 23.3082515,12.3324357 C23.1250734,12.1491251 23.022293,11.9005377 23.0225474,11.6414249 C23.0225474,11.2460489 23.2608302,10.8896224 23.6262422,10.7384084 C23.9916543,10.5871944 24.4122012,10.6709857 24.6917096,10.9506961 C24.9712179,11.2304065 25.0546177,11.6509262 24.9030053,12.0160944 C24.7513929,12.3812626 24.3946396,12.6191323 23.9991609,12.6187444 Z M23.9991609,9.06372243 C23.7394801,9.06372243 23.4904909,8.96033089 23.3072296,8.77639666 C23.1239683,8.59246244 23.0215265,8.34313403 23.0225403,8.08352281 C23.0241384,7.5440173 23.4627097,7.10785094 24.0023565,7.10908431 C24.5420034,7.11032291 24.9785711,7.54849365 24.9776904,8.08800078 C24.976807,8.62750791 24.5388089,9.06424958 23.9991609,9.06372243 Z M25.5337014,4.53138096 C25.5337014,5.0709225 25.1082938,5.50869999 24.8000413,5.50869999 L23.1973203,5.50869999 C22.8890678,5.50869999 22.4636601,5.06996247 22.4636601,4.53138096 C22.4636601,3.99279945 22.8890678,3.55502197 23.1973203,3.55502197 L24.8000413,3.55502197 C25.1082938,3.55502197 25.5337014,3.99279945 25.5337014,4.53138096 Z M19.8814452,3.95535795 C20.1800948,3.88431512 20.700571,4.20112777 20.8282894,4.72434866 C20.9560077,5.24756956 20.6467949,5.77367057 20.3481453,5.84759352 L18.7924784,6.23160885 C18.4928685,6.30937196 17.9733526,5.98775912 17.8456343,5.46357818 C17.7179159,4.93939725 18.0261684,4.41329624 18.3257784,4.33937329 L19.8814452,3.95535795 Z M13.782655,6.27097043 L15.2019609,5.52598068 C15.4746828,5.37813477 16.0518159,5.57302255 16.305332,6.05016161 C16.5588481,6.52730066 16.3859962,7.11196401 16.1132744,7.25500972 L14.6939685,7.99999947 C14.4212466,8.14304519 13.8441134,7.95487767 13.5905973,7.47677858 C13.3370813,6.99867949 13.5099331,6.41401614 13.782655,6.27097043 Z M9.93381995,10.4480972 C9.57563246,10.0448811 9.6044411,9.43525679 9.83491027,9.23556882 L11.0371911,8.16896622 C11.2676602,7.96447806 11.8784035,8.00863982 12.2337101,8.41281596 C12.5890168,8.8169921 12.5602081,9.42565641 12.329739,9.63014457 L11.130339,10.692907 C10.8998699,10.8973952 10.2920074,10.8522734 9.93381995,10.4480972 Z M7.09712866,14.2085674 C6.65347552,13.9023152 6.53536008,13.3042113 6.71301339,13.0507612 L7.62336659,11.7316685 C7.79813904,11.4782184 8.40312059,11.3764543 8.84389286,11.6827065 C9.28466514,11.9889588 9.40278059,12.5870627 9.22800814,12.8405128 L8.31861523,14.1596055 C8.14288249,14.4130556 7.54174209,14.5148196 7.09712866,14.2085674 Z M5.24665334,18.5383403 C4.73962118,18.3472927 4.47842279,17.7943106 4.59269709,17.5062991 L5.1602274,16.0086393 C5.26970026,15.7196678 5.82954826,15.4767781 6.33369956,15.6678257 C6.83785085,15.8588733 7.09616838,16.4118554 6.98765581,16.6998669 L6.41916521,18.1984867 C6.31065264,18.4864982 5.75080463,18.730348 5.24665334,18.5383403 Z M3.79277703,20.7493086 C3.82926798,20.4440164 4.31325323,20.0744017 4.84909403,20.1387242 C5.38493484,20.2030468 5.76808982,20.6782658 5.73063858,20.984518 L5.53858095,22.5743415 C5.50305028,22.8805937 5.01714446,23.2492484 4.48226395,23.1849259 C3.94738343,23.1206033 3.56422845,22.6453843 3.6007194,22.3400921 L3.79277703,20.7493086 Z M4.85389547,27.8795133 C4.31805467,27.944796 3.83310914,27.5723011 3.79757847,27.269889 L3.60552084,25.6800655 C3.5680696,25.3738133 3.95218487,24.8957142 4.4861051,24.8333117 C5.02002533,24.7709092 5.50497086,25.1376439 5.5424221,25.442936 L5.73447973,27.0337196 C5.77193097,27.3390118 5.38973628,27.8142307 4.85389547,27.8795133 Z M5.16598913,32.0095983 L4.59653824,30.5119385 C4.48706539,30.223927 4.74826377,29.6709449 5.2495342,29.4798973 C5.75080463,29.2888496 6.31353351,29.5307793 6.42300636,29.8187908 L6.99149696,31.3164506 C7.10096982,31.6044621 6.84073172,32.1564841 6.33946129,32.3484918 C5.83819086,32.5404995 5.27546198,32.2976098 5.16598913,32.0095983 Z M8.85157517,36.3326509 C8.40792203,36.6389031 7.80582134,36.5380991 7.63104889,36.284649 L6.71973541,34.9665164 C6.54304238,34.7130662 6.65923725,34.1140023 7.10385068,33.8077501 C7.54846411,33.5014979 8.14960451,33.6023019 8.32533725,33.855752 L9.23569044,35.1738846 C9.41334376,35.4273348 9.29522831,36.0254387 8.85157517,36.3326509 Z M12.2442733,39.5987013 C11.8870461,40.0028775 11.2782234,40.0527995 11.0477542,39.8444712 L9.84739401,38.7826688 C9.61500427,38.5791406 9.58619563,37.9695163 9.94342283,37.5653401 C10.30065,37.161164 10.9094727,37.1160422 11.1399419,37.3195703 L12.3403021,38.3813727 C12.5736522,38.5858609 12.6024608,39.1945252 12.2442733,39.5987013 Z M16.1247979,40.7526674 C16.3975197,40.8957131 16.5703716,41.4803765 16.3206966,41.9584756 C16.0710217,42.4365747 15.4910077,42.6257022 15.2182858,42.4826565 L13.7989799,41.7395868 C13.5252977,41.5965411 13.3514856,41.0128378 13.6021208,40.5347387 C13.852756,40.0566396 14.4327701,39.866552 14.7054919,40.0095978 L16.1247979,40.7526674 Z M20.3654305,42.1504833 C20.6640801,42.2244062 20.9732929,42.7495472 20.8446143,43.2737281 C20.7159356,43.797909 20.1983403,44.1204819 19.8987304,44.047519 L18.3430635,43.6635037 C18.0434536,43.5895807 17.7342408,43.0625197 17.8629195,42.5392988 C17.9915981,42.0160779 18.5091934,41.692545 18.8088033,41.7664679 L20.3654305,42.1504833 Z M23.2155658,44.446895 C22.9073133,44.446895 22.4809453,44.0100775 22.4809453,43.470536 C22.4809453,42.9309944 22.9053927,42.4932169 23.2136452,42.4932169 L24.8163662,42.4932169 C25.1246187,42.4932169 25.5509866,42.9309944 25.5509866,43.4695759 C25.5509866,44.0081574 25.1265393,44.446895 24.8182868,44.446895 L23.2155658,44.446895 Z M28.1341618,44.0398387 C27.8345519,44.1137617 27.3140757,43.7950289 27.1873177,43.271808 C27.0605597,42.7485871 27.3688122,42.2215261 27.6674618,42.1476031 L29.2231286,41.7635878 C29.5227385,41.6858247 30.0432147,42.0074375 30.1699728,42.5316185 C30.2967308,43.0557994 29.9884783,43.5819004 29.6898287,43.6558234 L28.1341618,44.0398387 Z M34.2300712,41.7213461 L32.8107653,42.4672959 C32.5390037,42.6113017 31.9609102,42.4221741 31.7073942,41.945035 C31.4538781,41.467896 31.62673,40.8822726 31.8994518,40.7392269 L33.3177974,39.9932771 C33.5905193,39.8502314 34.1686128,40.0393589 34.4221288,40.516498 C34.6756449,40.9936371 34.5027931,41.5783004 34.2300712,41.7213461 Z M38.0760254,37.5413392 C38.4342129,37.9407151 38.4063645,38.5532196 38.1720542,38.7577078 L36.9736145,39.8214302 C36.7431454,40.0259184 36.1314418,39.9817566 35.7770955,39.5785405 C35.4227491,39.1753244 35.4505975,38.5657001 35.6810667,38.3612119 L36.878546,37.2974894 C37.1090152,37.0930013 37.7178379,37.137163 38.0760254,37.5413392 Z M40.9088755,33.7779889 C41.3534889,34.0842411 41.4716044,34.682345 41.2929908,34.9357951 L40.3845582,36.2558479 C40.2097857,36.509298 39.6048042,36.611062 39.1640319,36.3057698 C38.7232596,36.0004777 38.6051442,35.4014137 38.7799166,35.1479636 L39.6883492,33.8288709 C39.8631217,33.5744608 40.4642621,33.4726967 40.9088755,33.7779889 Z M41.6732649,32.3177706 C41.1681533,32.127683 40.9098358,31.5747009 41.0193086,31.2866894 L41.5849184,29.7880696 C41.6943912,29.5000581 42.2542393,29.2562083 42.7583905,29.447256 C43.2625418,29.6383036 43.5218196,30.1903256 43.4123468,30.4783371 L42.8467371,31.976957 C42.7372642,32.2649685 42.1774162,32.5097783 41.6732649,32.3177706 Z M44.2084257,27.2343676 C44.1709745,27.5406198 43.6879495,27.9102346 43.1521087,27.845912 C42.6162679,27.7815894 42.2331129,27.3073305 42.2696039,27.0020383 L42.4616615,25.4112548 C42.4971922,25.1050026 42.9821377,24.7353878 43.5179785,24.7997104 C44.0538193,24.8640329 44.4369743,25.3382919 44.4004833,25.6435841 L44.2084257,27.2343676 Z M42.2609613,20.9480365 C42.22351,20.6465845 42.6076253,20.1646453 43.1405852,20.1012827 C43.6735452,20.0379202 44.159451,20.4046548 44.1969022,20.709947 L44.3889599,22.2997705 C44.4264111,22.6060228 44.0422958,23.0850819 43.5093359,23.1474844 C42.976376,23.2098869 42.4904701,22.8441123 42.4530189,22.53786 L42.2609613,20.9480365 Z M42.8256107,15.975038 L43.3960219,17.4726978 C43.5054947,17.7597492 43.2462169,18.3146514 42.7439862,18.505699 C42.2417555,18.6967466 41.6799869,18.455777 41.5695538,18.1677655 L41.0001029,16.6701057 C40.8896697,16.3820942 41.1489476,15.8291121 41.6511783,15.6371045 C42.153409,15.4450968 42.7161379,15.6870265 42.8256107,15.975038 Z M39.1352232,11.6558255 C39.5788764,11.3476532 40.1809771,11.4494172 40.3557495,11.7028673 L41.2680233,13.0200399 C41.4447163,13.2734901 41.3275612,13.871594 40.883908,14.1788062 C40.4402549,14.4860185 39.8391145,14.3852145 39.6633817,14.1317643 L38.751108,12.8145917 C38.5744149,12.5611416 38.6925304,11.9630377 39.1352232,11.6558255 Z M35.7396442,8.39265515 C36.0968714,7.98751898 36.7047339,7.94239717 36.9361633,8.1459253 L38.1374838,9.20292751 C38.3689133,9.40645564 38.3986822,10.01608 38.041455,10.4202561 C37.6842278,10.8244323 37.0754051,10.8705141 36.8449359,10.6660259 L35.6436154,9.60998377 C35.412186,9.4054956 35.382417,8.7968313 35.7396442,8.39265515 Z M31.8581594,7.24156919 C31.5854376,7.09852347 31.4116254,6.51866032 31.6613003,6.04056123 C31.9109753,5.56246213 32.490029,5.37237454 32.7637112,5.51446022 L34.1839774,6.25656985 C34.4566992,6.39961556 34.6305114,6.98427891 34.3808365,7.462378 C34.1311615,7.9404771 33.5521078,8.13056469 33.2784256,7.98751898 L31.8581594,7.24156919 Z M27.621368,5.84759352 C27.3179169,5.7794308 27.011585,5.24948963 27.1402636,4.7253087 C27.2689422,4.20112777 27.7855772,3.87759485 28.0851871,3.95055776 L29.6418143,4.3345731 C29.9414242,4.40753601 30.2496767,4.93459706 30.1219584,5.45781795 C29.99424,5.98103885 29.4766447,6.30457177 29.1770348,6.23160885 L27.621368,5.84759352 Z M22.6393929,1.95367802 C22.3311404,1.95367802 21.9057327,1.51686057 21.9057327,0.977319029 C21.9057327,0.437777482 22.3311404,-1.13242749e-14 22.6393929,-1.13242749e-14 L25.3579687,-1.13242749e-14 C25.6662212,-1.13242749e-14 26.0916289,0.438737521 26.0916289,0.977319029 C26.0916289,1.51590054 25.6662212,1.95367802 25.3579687,1.95367802 L22.6393929,1.95367802 Z M17.4000606,2.91947659 C17.1014109,2.99531962 16.581895,2.6717867 16.4541767,2.14760576 C16.3264584,1.62342483 16.6347109,1.09732382 16.9343208,1.02340087 L19.574153,0.372494875 C19.8728026,0.299531962 20.3932788,0.621144805 20.5200369,1.14532574 C20.6467949,1.66950667 20.3385424,2.19560768 20.0398928,2.26953063 L17.4000606,2.91947659 Z M12.5448435,5.11220415 C12.2711614,5.25524986 11.6988296,5.06228216 11.4443533,4.5851431 C11.1898769,4.10800405 11.3636891,3.5233407 11.6364109,3.37933495 L14.0409725,2.11976465 C14.3136943,1.97095871 14.8898673,2.16584649 15.1443436,2.64298555 C15.39882,3.1201246 15.2250078,3.70574799 14.952286,3.8487937 L12.5448435,5.11220415 Z M8.35414589,8.40225554 C8.12751788,8.6067437 7.51005258,8.56258194 7.15474595,8.1584058 C6.79943933,7.75422966 6.82824797,7.14556535 7.05871714,6.94107719 L9.09548837,5.13812519 C9.32691782,4.93363702 9.9376611,4.97971886 10.2929677,5.38293496 C10.6482744,5.78615107 10.6194657,6.39577541 10.3889965,6.60026358 L8.35414589,8.40225554 Z M3.85423548,12.6494651 C3.40962205,12.3432129 3.2915066,11.744149 3.46915992,11.4906989 L5.01234302,9.25380954 C5.18807576,9.00035942 5.79305731,8.89859536 6.23382959,9.20484759 C6.67460186,9.51109982 6.79271731,10.1092037 6.61794486,10.3626538 L5.07476175,12.5995432 C4.89902902,12.8539533 4.29788862,12.9557174 3.85423548,12.6494651 Z M1.72143543,17.8000708 C1.21344298,17.6090232 0.958966612,17.0570012 1.07036004,16.7689897 L2.03064822,14.2277682 C2.14012107,13.9397567 2.69612793,13.6959069 3.20123951,13.8869546 C3.7063511,14.0780022 3.96466862,14.6309843 3.85519577,14.9189958 L2.89490758,17.4602173 C2.78543473,17.7482288 2.22558672,17.9920785 1.72143543,17.8000708 Z M0.884064134,23.3116509 C0.349183617,23.2521286 -0.0349316553,22.7721094 0.00251958378,22.4668172 L0.329017565,19.7681494 C0.364548228,19.4628572 0.849493759,19.0922824 1.38533456,19.157565 C1.92117537,19.2228477 2.30433035,19.6971066 2.26687911,20.0033588 L1.94038113,22.7010666 C1.90485047,23.0073188 1.41990494,23.3769335 0.884064134,23.3116509 Z M1.39109629,28.8635526 C0.856215777,28.9288353 0.370309957,28.5592205 0.332858718,28.2539283 L0.00444016014,25.5562206 C-0.0349316553,25.2499683 0.35302477,24.7709092 0.886944998,24.7094668 C1.42086523,24.6480243 1.90581076,25.0137989 1.943262,25.3200511 L2.27264084,28.0177589 C2.31009208,28.3230511 1.9269371,28.79827 1.39109629,28.8635526 Z M3.86575894,33.1002018 C3.97523179,33.3882133 3.71883484,33.9402354 3.21756441,34.132243 C2.71629398,34.3242507 2.15356511,34.0823211 2.04409226,33.7943096 L1.07900263,31.2530881 C0.969529782,30.9650766 1.23072817,30.4130545 1.7319986,30.2210469 C2.23326903,30.0290392 2.7959979,30.2719289 2.90547075,30.5599404 L3.86575894,33.1002018 Z M5.08436464,35.4186944 L6.62946832,37.6536637 C6.80712163,37.9071138 6.68900619,38.5061777 6.24535305,38.8124299 C5.80169991,39.1186822 5.20055951,39.0178782 5.02482677,38.764428 L3.47972309,36.5284987 C3.30206977,36.2750486 3.42018522,35.6759847 3.86383836,35.3697325 C4.3074915,35.0634802 4.90959219,35.1652443 5.08436464,35.4186944 Z M8.36855021,39.6131019 L10.4034009,41.4141338 C10.6357906,41.617662 10.6645993,42.2263263 10.3073721,42.6305024 C9.95014485,43.0346786 9.34132214,43.0807604 9.11085298,42.8762722 L7.07504204,41.0752403 C6.8426523,40.8717122 6.81288336,40.2611278 7.17107085,39.8579117 C7.52925834,39.4546956 8.13712076,39.4086138 8.36855021,39.6131019 Z M14.9686109,44.1608035 C15.242293,44.3038492 15.4113037,44.8894726 15.1606685,45.3666117 C14.9100333,45.8437507 14.3300192,46.0338383 14.0572974,45.8907926 L11.6498549,44.6293022 C11.3809742,44.4872166 11.2071621,43.9025532 11.4577973,43.4244541 C11.7084325,42.946355 12.2874863,42.7562674 12.5611684,42.8993132 L14.9686109,44.1608035 Z M20.0581382,45.7362264 C20.3577482,45.8130295 20.6679212,46.3458508 20.5392426,46.8642715 C20.410564,47.3826922 19.8929687,47.7062251 19.5933588,47.6323022 L16.9535266,46.9842763 C16.6529564,46.9103533 16.3447038,46.3852124 16.4733825,45.8610314 C16.6020611,45.3368505 17.1196564,45.0142776 17.418306,45.0872405 L20.0581382,45.7362264 Z M25.3771745,46.0472773 C25.685427,46.0463188 26.1117949,46.4831363 26.1117949,47.0226778 C26.1117949,47.5622194 25.6873476,47.9999984 25.379095,47.9999984 L22.6605192,47.9999984 C22.3522667,48.0009569 21.9258988,47.5641394 21.9258988,47.0245979 C21.9258988,46.4850563 22.3513064,46.0472773 22.6585986,46.0472773 L25.3771745,46.0472773 Z M30.6165068,45.0757201 C30.9151564,45.0017971 31.4365929,45.3195698 31.5633509,45.8437507 C31.690109,46.3679317 31.3828168,46.8940327 31.0832068,46.9679556 L28.4443349,47.6207817 C28.1456853,47.6985448 27.6252091,47.3759719 27.4974908,46.852751 C27.3697724,46.3295301 27.678025,45.8024691 27.9776349,45.7285461 L30.6165068,45.0757201 Z M35.4698033,42.8801124 C35.7425251,42.7409068 36.3215789,42.9252342 36.5741347,43.4023732 C36.8266905,43.8795123 36.6547989,44.4651357 36.382077,44.6081814 L33.9755948,45.8735119 C33.702873,46.0165576 33.1257398,45.8293502 32.8722237,45.3512511 C32.6187076,44.873152 32.7915595,44.2884886 33.0642814,44.1454429 L35.4698033,42.8801124 Z M39.6566597,39.5852608 C39.8871289,39.3807726 40.4997927,39.4258944 40.8541391,39.8291105 C41.2084854,40.2323266 41.1806371,40.840991 40.9501679,41.0464392 L38.9172378,42.8503512 C38.6867687,43.0548394 38.0731445,43.0116376 37.7197585,42.6074615 C37.3663724,42.2032854 37.3932605,41.5946211 37.6237296,41.3901329 L39.6566597,39.5852608 Z M44.1536893,35.3351711 C44.5983027,35.6366231 44.7144976,36.2385672 44.5387648,36.4929773 L42.996542,38.7308267 C42.8217696,38.9852368 42.2158277,39.087961 41.7760157,38.7817087 C41.3362037,38.4754565 41.217128,37.8773526 41.3919005,37.6239025 L42.933163,35.3850931 C43.1079354,35.131643 43.7100361,35.0289189 44.1536893,35.3351711 Z M46.2816879,30.1816853 C46.7867995,30.3727329 47.045117,30.924755 46.9366044,31.2127665 L45.9763162,33.754948 C45.8678037,34.0439195 45.3069954,34.2877693 44.8028441,34.0967216 C44.2986928,33.905674 44.0403753,33.3526919 44.1488878,33.0646804 L45.109176,30.5224989 C45.2176886,30.2344874 45.7775366,29.9896776 46.2816879,30.1816853 Z M47.115218,24.6691451 C47.6491383,24.7334677 48.0332535,25.2086867 47.9977229,25.5139789 L47.6731455,28.2126467 C47.6376148,28.5179388 47.1526693,28.8885136 46.6168285,28.8241911 C46.0809877,28.7598685 45.6978327,28.2856096 45.7343236,27.9793573 L46.058901,25.2806896 C46.0944317,24.9753974 46.5793772,24.6048226 47.115218,24.6691451 Z M46.6024241,19.1182035 C47.1373046,19.0529209 47.6232105,19.4215756 47.6577808,19.7268678 L47.9890803,22.4245755 C48.0265315,22.7298677 47.6424162,23.2079668 47.1094563,23.2713293 C46.5764964,23.3346919 46.0905905,22.9679572 46.0531393,22.662665 L45.7218399,19.9649573 C45.6843886,19.6596651 46.0665833,19.1844461 46.6024241,19.1182035 Z M44.1239203,14.8834744 C44.0144475,14.5954629 44.2746856,14.0424808 44.775956,13.8504731 C45.2772264,13.6584654 45.8399553,13.9003951 45.9494282,14.1884066 L46.9173987,16.728668 C47.0268715,17.0157195 46.7666334,17.5696616 46.265363,17.7616693 C45.7640926,17.953677 45.2013637,17.7117473 45.0918908,17.4237358 L44.1239203,14.8834744 Z M42.9033941,12.5669019 L41.3554095,10.3328926 C41.1787165,10.0794425 41.2958716,9.48133863 41.7395248,9.17412636 C42.1831779,8.86691409 42.7843183,8.96771812 42.9600511,9.2202082 L44.5080356,11.4551775 C44.6847286,11.7086276 44.5675735,12.3067315 44.1239203,12.6139437 C43.6802672,12.921156 43.0791268,12.820352 42.9033941,12.5669019 Z M39.6163276,8.37153431 L37.5795564,6.57242247 C37.3471666,6.3679343 37.318358,5.75926999 37.6755852,5.35509385 C38.0328124,4.95091771 38.6406748,4.90387583 38.871144,5.108364 L40.9088755,6.90747585 C41.140305,7.11100397 41.1700739,7.72062832 40.8128467,8.12480446 C40.4556195,8.5289806 39.8467968,8.57506244 39.6163276,8.37153431 Z M33.0114655,3.83247305 C32.7387437,3.69038737 32.5630109,3.10572402 32.8136461,2.62762493 C33.0642814,2.14952584 33.6433351,1.95943825 33.916057,2.10152392 L36.32542,3.36109422 C36.5991022,3.50413994 36.7729143,4.08784325 36.5232394,4.56594234 C36.2735645,5.04404143 35.6935504,5.23508906 35.4208286,5.09204335 L33.0114655,3.83247305 Z M27.9200176,2.26185033 C27.621368,2.18888741 27.3159963,1.66374644 27.4446749,1.13956551 C27.5733535,0.615384575 28.0899886,0.291851655 28.3895985,0.364814569 L31.0255896,1.01092037 C31.3242392,1.08484332 31.6344123,1.60998429 31.5057336,2.13416523 C31.377055,2.65834616 30.86042,2.98187908 30.5608101,2.90795613 L27.9200176,2.26185033 Z M19.9544271,7.60350364 C20.205929,7.5414833 20.4717742,7.58189643 20.693469,7.71585093 C20.9151637,7.84980543 21.0745442,8.06632617 21.1365419,8.31777216 C21.2656277,8.84130957 20.9457672,9.37034202 20.4221001,9.49942116 C19.8984331,9.62850029 19.3692466,9.3087502 19.2401069,8.78522606 C19.1109673,8.26170192 19.4307734,7.7326366 19.9544271,7.60350364 Z M17.058198,10.7716302 C16.5806121,11.0221193 15.9903378,10.8381632 15.7397223,10.3607337 C15.5561637,10.0110495 15.601386,9.5852522 15.854301,9.28190003 C16.1072161,8.97854787 16.5180136,8.8573845 16.89513,8.97491096 C17.2722464,9.09243743 17.5414106,9.42550751 17.5771057,9.81880358 C17.6128008,10.2120997 17.4079967,10.5881641 17.058198,10.7716302 Z M14.0889869,12.822272 C13.8950744,12.9940767 13.6408194,13.0818019 13.3821908,13.066137 C13.1235622,13.0504721 12.8817605,12.9327011 12.7100131,12.7387487 C12.4475505,12.4429387 12.3892433,12.0181635 12.5622951,11.6626034 C12.7353469,11.3070433 13.1056549,11.0907673 13.5004505,11.1146798 C13.8952462,11.1385922 14.2367285,11.3979808 14.3655778,11.7718268 C14.494427,12.1456728 14.3852513,12.5603037 14.0889869,12.822272 Z M11.4510753,14.1605655 C11.6642834,14.3077051 11.8102754,14.5335094 11.8569209,14.7882827 C11.9035665,15.043056 11.8470429,15.3059189 11.6997899,15.5190197 C11.3932474,15.9626405 10.7850439,16.0738627 10.3412717,15.767452 C9.89749954,15.4610413 9.78617704,14.8530091 10.0926154,14.4093164 C10.3990538,13.9656238 11.0072312,13.8542589 11.4510753,14.1605655 Z M9.45943759,17.4496568 C9.96374716,17.6405933 10.2178136,18.2040356 10.0269679,18.7082671 C9.887167,19.0776337 9.53856103,19.3264281 9.14372161,19.3386255 C8.7488822,19.3508229 8.38557642,19.124021 8.22323112,18.7639883 C8.06088581,18.4039556 8.13147631,17.9816037 8.40208288,17.6938955 C8.67268946,17.4061873 9.09001378,17.3097895 9.45943759,17.4496568 Z M7.22676757,21.9714374 C7.25774564,21.7143025 7.38974325,21.4800416 7.59365972,21.3203005 C7.79757619,21.1605595 8.05666763,21.088455 8.31381379,21.1198834 C8.70596124,21.16742 9.03084797,21.4464475 9.13696909,21.8268467 C9.2430902,22.2072458 9.10954513,22.6140969 8.79861013,22.8576725 C8.48767513,23.1012481 8.06058891,23.133576 7.71651519,22.9395806 C7.37244147,22.7455852 7.17914562,22.363474 7.22676757,21.9714374 Z M8.31957552,26.9002742 C8.06247053,26.9317265 7.80339861,26.859779 7.59935619,26.7002604 C7.39531378,26.5407418 7.26301611,26.30672 7.23156901,26.0496803 C7.16608681,25.5144474 7.5470027,25.0274834 8.08237376,24.962009 C8.61774481,24.8965346 9.10484209,25.277343 9.17034275,25.8125736 C9.23584341,26.3478043 8.85494432,26.8347814 8.31957552,26.9002742 Z M9.46519932,30.5647406 C8.96084765,30.7556971 8.39708688,30.5022426 8.20530122,29.998318 C8.01400846,29.4941992 8.26766563,28.9304915 8.77188893,28.7391781 C9.27611223,28.5478648 9.840002,28.8013773 10.0314355,29.3054427 C10.222869,29.8095081 9.96936919,30.3732866 9.46519932,30.5647406 Z M11.4597179,33.8519119 C11.2466787,33.9992215 10.9838285,34.0558839 10.7289987,34.0094323 C10.4741688,33.9629807 10.2482364,33.8172208 10.1009101,33.604222 C9.79414681,33.1607151 9.90508199,32.5525671 10.3486938,32.2458685 C10.7923056,31.93917 11.4006157,32.0500556 11.7074092,32.4935416 C12.0142026,32.9370275 11.9033088,33.5451831 11.4597179,33.8519119 Z M14.1830951,36.5669003 C14.0114811,36.7609897 13.7697494,36.8789405 13.5111174,36.8947857 C13.2524855,36.9106309 12.9981565,36.8230714 12.8041213,36.6513836 C12.400283,36.2940562 12.3625923,35.6771178 12.7199306,35.2733119 C13.0772689,34.869506 13.6943602,34.8316997 14.0983438,35.1888629 C14.5023275,35.5460261 14.5402691,36.1629491 14.1830951,36.5669003 Z M16.1584079,38.9621959 C15.9289102,38.8420438 15.7565672,38.6356538 15.6793056,38.3884451 C15.6020441,38.1412365 15.6261952,37.873467 15.7464443,37.6440633 C15.9967864,37.1664764 16.5869727,36.9821798 17.0647078,37.2324111 C17.5424429,37.4826425 17.7268437,38.0726577 17.4765928,38.5502923 C17.2263419,39.027927 16.6361908,39.2123362 16.1584079,38.9621959 Z M20.4345712,38.5071378 C20.6862274,38.5687082 20.9030992,38.7277258 21.0374539,38.9491913 C21.1718086,39.1706569 21.2126346,39.4364192 21.1509462,39.6879849 C21.022533,40.2116548 20.4938374,40.5321298 19.9700139,40.4038207 C19.4461904,40.2755117 19.1255607,39.7469969 19.2538324,39.2232924 C19.3821041,38.6995879 19.9107131,38.3789701 20.4345712,38.5071378 Z M24.0135653,40.8909148 C23.7544734,40.8914228 23.5058187,40.788883 23.3224327,40.6059049 C23.1390467,40.4229269 23.0359914,40.1745389 23.0359914,39.915514 C23.0354618,39.3762862 23.4722762,38.938726 24.0116444,38.9381954 C24.5510125,38.9376658 24.9886867,39.3743664 24.9892176,39.9135942 C24.9897475,40.452822 24.5529334,40.8903825 24.0135653,40.8909148 Z M28.0573388,40.3964932 C27.8058334,40.458832 27.5398573,40.4186907 27.3179664,40.2849065 C27.0960755,40.1511224 26.9364613,39.9346636 26.8742637,39.6831847 C26.7448161,39.1597984 27.0642115,38.6305829 27.587707,38.5010597 C28.1112025,38.3715366 28.6406223,38.6907384 28.7702885,39.2140706 C28.8999546,39.7374029 28.5807802,40.2667516 28.0573388,40.3964932 Z M31.8658417,38.9487554 C31.6365183,39.0694217 31.3686259,39.0940195 31.1211538,39.0171322 C30.8736817,38.9402449 30.6669231,38.7681776 30.5464058,38.538819 C30.2956168,38.0615383 30.4792405,37.4713739 30.9565796,37.2205251 C31.4339188,36.9696763 32.0242849,37.1530975 32.2753241,37.6302466 C32.5263634,38.1073958 32.3430492,38.6976564 31.8658417,38.9487554 Z M35.2162872,36.6312228 C35.02262,36.8032615 34.768513,36.8913187 34.509891,36.8760143 C34.251269,36.8607098 34.0093272,36.7432981 33.8373133,36.5496196 C33.4792273,36.1464337 33.5158354,35.5293855 33.9190834,35.1713443 C34.3223313,34.8133032 34.9395444,34.8498279 35.2977271,35.2529281 C35.6559097,35.6560283 35.6194494,36.2730852 35.2162872,36.6312228 Z M36.552048,33.830791 C36.1078848,33.5246809 35.9957166,32.9167242 36.3014128,32.4723368 C36.6074237,32.0284269 37.2154056,31.9164915 37.6595181,32.2222963 C38.1036306,32.528101 38.2157684,33.1358928 37.9100106,33.5799769 C37.6042528,34.024061 36.9963348,34.1363427 36.552048,33.830791 Z M38.5436857,30.5397796 C38.0401599,30.3480107 37.7864526,29.785365 37.9761554,29.2811693 C38.1159563,28.9118027 38.4645623,28.6630083 38.8594017,28.6508109 C39.2542411,28.6386135 39.6175469,28.8654154 39.7798922,29.2254481 C39.9422375,29.5854808 39.871647,30.0078327 39.6010404,30.2955409 C39.3304339,30.5832491 38.9131095,30.679647 38.5436857,30.5397796 Z M40.777316,26.0151189 C40.7465534,26.272307 40.6148282,26.5067345 40.411134,26.6668027 C40.2074397,26.8268708 39.9484717,26.89946 39.6912301,26.868593 C39.1557603,26.8043407 38.7737497,26.3183215 38.8379407,25.7829816 C38.9021318,25.2476417 39.3882218,24.8656597 39.9237103,24.9297561 C40.4591989,24.9938524 40.841351,25.4797603 40.777316,26.0151189 Z M38.8288913,22.1807258 C38.7971573,21.9235345 38.8689966,21.664281 39.0285835,21.4600773 C39.1881704,21.2558736 39.4224122,21.1234729 39.6797066,21.0920423 C40.2149484,21.0266582 40.7019097,21.4073246 40.7675156,21.9424021 C40.8331215,22.4774795 40.4525423,22.9644598 39.9173507,23.0302532 C39.3821592,23.0960467 38.8949066,22.7157529 38.8288913,22.1807258 Z M38.5273608,17.4237358 C39.0314427,17.2326799 39.5950877,17.4856528 39.7872589,17.9891984 C39.927709,18.3583067 39.8319177,18.7756535 39.544555,19.0466194 C39.2571923,19.3175854 38.8348533,19.3888045 38.4744855,19.2270656 C38.1141176,19.0653267 37.8866942,18.7024837 37.8982684,18.3077395 C37.9098427,17.9129953 38.1581352,17.5640935 38.5273608,17.4237358 Z M36.5299614,14.1384846 C36.7428025,13.9908256 37.0056468,13.9338581 37.2605439,13.9801419 C37.515441,14.0264256 37.7414599,14.17216 37.8887692,14.3852145 C38.1137008,14.7098507 38.1208693,15.1379836 37.9069319,15.4699643 C37.6929944,15.801945 37.3000853,15.9723911 36.9114275,15.9018193 C36.5227698,15.8312475 36.2149084,15.5335568 36.1314064,15.1475676 C36.0479045,14.7615784 36.2052076,14.36331 36.5299614,14.1384846 Z M33.8037033,11.4263763 C33.9751838,11.2321497 34.2168456,11.1140191 34.475481,11.0979936 C34.7341163,11.0819682 34.9885193,11.1693619 35.1826771,11.3409329 C35.5867398,11.6979902 35.6248401,12.3148883 35.2677835,12.7189287 C34.9107269,13.122969 34.2936772,13.1612024 33.8894489,12.8043325 C33.4852206,12.4474625 33.4468342,11.8305822 33.8037033,11.4263763 Z M30.9209181,10.7629898 C30.6912535,10.643005 30.5187021,10.4366874 30.4412555,10.189463 C30.3638089,9.94223859 30.3878172,9.67437786 30.5079942,9.44485717 C30.758094,8.96720299 31.3481131,8.78261866 31.8259501,9.03254171 C32.303787,9.28246476 32.4885574,9.87228718 32.238681,10.3500582 C31.9888046,10.8278293 31.3988719,11.0126894 30.9209181,10.7629898 Z M27.5503066,9.49093901 C27.0267187,9.36270787 26.7060775,8.83460393 26.8339316,8.3110519 C26.9276333,7.92735168 27.2433403,7.63788652 27.6337952,7.57767376 C28.0242501,7.51746101 28.412531,7.69836291 28.6175293,8.03600007 C28.8225276,8.37363724 28.8038573,8.80149324 28.5702271,9.12000007 C28.3365969,9.43850689 27.9340332,9.58491691 27.5503066,9.49093901 Z M20.8033219,11.0529214 C21.0548237,10.9909011 21.320669,11.0313142 21.5423637,11.1652687 C21.7640585,11.2992232 21.9234389,11.5157439 21.9854366,11.7671899 C22.1145224,12.2907273 21.7946619,12.8197598 21.2709949,12.9488389 C20.7473279,13.077918 20.2181413,12.7581679 20.0890017,12.2346438 C19.959862,11.7111197 20.2796681,11.1820544 20.8033219,11.0529214 Z M19.1189764,12.6033833 C19.3696103,13.0811268 19.1856488,13.6715413 18.7079731,13.922476 C18.3579003,14.1063777 17.9314833,14.0613055 17.6276175,13.8082825 C17.3237517,13.5552596 17.2022999,13.1441325 17.3199114,12.766665 C17.4375228,12.3891974 17.7710276,12.1197521 18.1648677,12.0840075 C18.5587078,12.0482629 18.9352951,12.2532609 19.1189764,12.6033833 Z M15.0704014,15.3970949 C14.8981922,15.2034664 14.8101184,14.9492949 14.8256117,14.6906588 C14.8411051,14.4320226 14.9588925,14.1901767 15.1529862,14.0184798 C15.5565324,13.6607904 16.1736999,13.6978333 16.5315418,14.1012218 C16.8893837,14.5046103 16.8524221,15.1216227 16.4489813,15.4794309 C16.0455406,15.8372391 15.4283622,15.800378 15.0704014,15.3970949 Z M14.3799542,16.176646 C14.823464,16.4833653 14.9347525,17.0912119 14.6286689,17.5351003 C14.3221264,17.978721 13.7139228,18.0899432 13.2701507,17.7835325 C12.8263785,17.4771218 12.715056,16.8690896 13.0214944,16.4253969 C13.3279327,15.9817043 13.9361102,15.8703394 14.3799542,16.176646 Z M11.526938,19.2718096 C11.718727,18.7684028 12.2818008,18.515064 12.7858758,18.705387 C13.1553373,18.8452983 13.4040864,19.1939692 13.4160945,19.5887625 C13.4281027,19.9835558 13.201004,20.3466927 12.8407284,20.5087882 C12.4804529,20.6708838 12.057979,20.6000033 11.7703693,20.3292089 C11.4827596,20.0584145 11.3866766,19.6410559 11.526938,19.2718096 Z M11.8447934,21.5413402 C12.3800164,21.607323 12.7609543,22.0937834 12.696569,22.6290637 C12.631136,23.1641928 12.1442517,23.5450266 11.6089635,23.4797727 C11.0736753,23.4145188 10.692595,22.9278766 10.7577037,22.3927079 C10.8228124,21.8575392 11.3094658,21.4764106 11.8447934,21.5413402 Z M11.6095228,24.5212992 C12.1448991,24.4564003 12.6315535,24.8376284 12.696569,25.3728532 C12.744191,25.7648898 12.5508951,26.147001 12.2068214,26.3409964 C11.8627477,26.5349918 11.4356615,26.502664 11.1247265,26.2590884 C10.8137915,26.0155128 10.6802464,25.6086617 10.7863675,25.2282625 C10.8924886,24.8478634 11.2173754,24.5688358 11.6095228,24.5212992 Z M12.7858758,29.3003701 C12.2817833,29.4912648 11.7183105,29.2377466 11.526938,28.7339475 C11.3866766,28.3647011 11.4827596,27.9473425 11.7703693,27.6765482 C12.057979,27.4057538 12.4804529,27.3348733 12.8407284,27.4969689 C13.201004,27.6590644 13.4281027,28.0222012 13.4160945,28.4169946 C13.4040864,28.8117879 13.1553373,29.1604588 12.7858758,29.3003701 Z M14.6286689,30.4668167 C14.7759218,30.6799175 14.8324454,30.9427804 14.7857999,31.1975537 C14.7391543,31.452327 14.5931624,31.6781313 14.3799542,31.8252709 C13.9361102,32.1315775 13.3279327,32.0202127 13.0214944,31.57652 C12.715056,31.1328273 12.8263785,30.5247951 13.2701507,30.2183844 C13.7139228,29.9119737 14.3221264,30.0231959 14.6286689,30.4668167 Z M15.1529862,33.9824771 C14.9588925,33.8107802 14.8411051,33.5689343 14.8256117,33.3102981 C14.8101184,33.051662 14.8981922,32.7974905 15.0704014,32.603862 C15.332636,32.30784 15.747456,32.1989651 16.1213195,32.3280348 C16.495183,32.4571045 16.7544112,32.7986826 16.7780564,33.1933994 C16.8017016,33.5881163 16.5851039,33.9581834 16.229321,34.1309392 C15.8735381,34.3036951 15.4486856,34.2450939 15.1529862,33.9824771 Z M19.1189764,35.3975736 C18.9986263,35.6270988 18.79194,35.7993744 18.5444522,35.8764466 C18.2969645,35.9535188 18.0289809,35.9290641 17.7995404,35.80847 C17.3222647,35.5576134 17.138662,34.9675193 17.3893929,34.4902675 C17.6401239,34.0130157 18.230298,33.8292247 18.7077743,34.0796995 C19.1852506,34.3301743 19.3693254,34.9201214 19.1189764,35.3975736 Z M21.2738631,35.0529198 C21.5255519,35.1146903 21.7423615,35.2739416 21.8765457,35.4956032 C22.01073,35.7172647 22.0512843,35.9831578 21.9892778,36.234727 C21.8602561,36.758186 21.3312759,37.0780305 20.8076432,36.9491949 C20.2840104,36.8203593 19.9639285,36.29161 20.0926451,35.7680759 C20.2213616,35.2445419 20.7501553,34.9243893 21.2738631,35.0529198 Z M23.9991609,37.3368515 C23.7399806,37.3368515 23.4914296,37.2338533 23.3082515,37.0505428 C23.1250734,36.8672322 23.022293,36.6186448 23.0225474,36.359532 C23.0225474,35.964156 23.2608302,35.6077295 23.6262422,35.4565155 C23.9916543,35.3053015 24.4122012,35.3890928 24.6917096,35.6688032 C24.9712179,35.9485136 25.0546177,36.3690333 24.9030053,36.7342015 C24.7513929,37.0993697 24.3946396,37.3372394 23.9991609,37.3368515 Z M27.1911588,36.9489955 C26.939657,37.0110159 26.6738117,36.9706027 26.452117,36.8366482 C26.2304222,36.7026937 26.0710418,36.486173 26.0090441,36.234727 C25.8799583,35.7111896 26.1998188,35.1821572 26.7234858,35.053078 C27.2471528,34.9239989 27.7763394,35.243749 27.905479,35.7672731 C28.0346187,36.2907973 27.7148126,36.8198626 27.1911588,36.9489955 Z M28.8793455,35.3975736 C28.758762,35.1683362 28.7343265,34.9005647 28.8114263,34.653297 C28.8885262,34.4060294 29.0608301,34.1995707 29.2903488,34.0794409 C29.640124,33.8959301 30.0660322,33.9411406 30.3694633,34.1939898 C30.6728944,34.4468391 30.7940893,34.8575297 30.6765322,35.234548 C30.5589752,35.6115663 30.2258184,35.8806605 29.83242,35.9163463 C29.4390216,35.9520321 29.0628593,35.7472813 28.8793455,35.3975736 Z M32.9279204,32.603862 C33.285246,33.0077573 33.2478611,33.6246635 32.8443754,33.9824771 C32.4405741,34.3398625 31.8234483,34.3023752 31.4658991,33.8987416 C31.1083499,33.4951079 31.1457389,32.8781362 31.5494149,32.5206093 C31.953091,32.1630825 32.5702299,32.2003536 32.9279204,32.603862 Z M33.6183676,31.8252709 C33.1745312,31.5188561 33.0628029,30.9109545 33.3686927,30.4668167 C33.6749693,30.0230511 34.2830622,29.9114721 34.7270047,30.2175798 C35.1709473,30.5236876 35.2826776,31.1315998 34.9765794,31.5754884 C34.6704812,32.0193769 34.0624332,32.1312003 33.6183676,31.8252709 Z M36.4713838,28.7301073 C36.3802818,28.9739154 36.1955825,29.1712689 35.9583015,29.2783421 C35.7210205,29.3854152 35.450799,29.3933448 35.2076446,29.3003701 C34.7047906,29.1080943 34.4524274,28.5452388 34.6434469,28.0420181 C34.8344663,27.5387974 35.3968111,27.2850392 35.900657,27.4747016 C36.404503,27.664364 36.6597867,28.2259016 36.4713838,28.7301073 Z M36.388799,24.5212992 C36.6460008,24.5522693 36.8803228,24.6842325 37.0401054,24.8880959 C37.199888,25.0919594 37.2720113,25.3509834 37.2405747,25.6080626 C37.1930257,26.0001081 36.9139256,26.3249103 36.5334274,26.4310038 C36.1529293,26.5370973 35.7459723,26.4035869 35.5023333,26.0927329 C35.2586943,25.7818788 35.226358,25.3549036 35.4204039,25.0109194 C35.6144498,24.6669352 35.9966604,24.4736897 36.388799,24.5212992 Z M37.2405747,22.3928942 C37.3055108,22.9283282 36.9243034,23.4151327 36.388799,23.4806177 C35.8534714,23.5455473 35.366818,23.1644187 35.3017093,22.62925 C35.2366006,22.0940813 35.6176809,21.6074391 36.1529691,21.5421852 C36.6882574,21.4769314 37.1751416,21.8577651 37.2405747,22.3928942 Z M35.2076446,18.705387 C35.4498281,18.6131469 35.7187691,18.6210282 35.9551324,18.727292 C36.1914957,18.8335558 36.3758574,19.0294695 36.4675427,19.2718096 C36.6588354,19.7759284 36.4051783,20.3396361 35.900955,20.5309494 C35.3967317,20.7222628 34.8328419,20.4687503 34.6414084,19.9646849 C34.4499749,19.4606194 34.7034747,18.896841 35.2076446,18.705387 Z M33.3686927,17.5351003 C33.0628029,17.0909624 33.1745312,16.4830608 33.6183676,16.176646 C33.9438214,15.9519599 34.3726316,15.9454682 34.7047412,16.1601995 C35.0368507,16.3749308 35.2068144,16.7685702 35.1353373,17.1574694 C35.0638602,17.5463686 34.7650275,17.8538913 34.3782568,17.9365659 C33.991486,18.0192404 33.5929938,17.8607751 33.3686927,17.5351003 Z M32.8443754,14.0184798 C33.2478611,14.3762934 33.285246,14.9931996 32.9279204,15.3970949 C32.5702299,15.8006033 31.953091,15.8378744 31.5494149,15.4803476 C31.1457389,15.1228207 31.1083499,14.5058489 31.4658991,14.1022153 C31.8234483,13.6985817 32.4405741,13.6610944 32.8443754,14.0184798 Z M28.8793455,12.6033833 C29.1303277,12.1263939 29.7201837,11.9425682 30.1978211,12.1924869 C30.5476199,12.3759529 30.7524239,12.7520174 30.7167289,13.1453135 C30.6810338,13.5386096 30.4118696,13.8716796 30.0347532,13.9892061 C29.6576367,14.1067326 29.2468392,13.9855692 28.9939242,13.682217 C28.7410091,13.3788649 28.6957869,12.9530675 28.8793455,12.6033833 Z M26.7234985,12.9489971 C26.4719871,12.8870155 26.25541,12.7276766 26.1214206,12.5060395 C25.9874313,12.2844024 25.9470076,12.0186264 26.0090441,11.7671899 C26.1382107,11.2436724 26.6674137,10.9239495 27.191074,11.0530556 C27.7147344,11.1821616 28.0345677,11.7112105 27.905455,12.2347413 C27.7763423,12.758272 27.2471722,13.0780493 26.7234985,12.9489971 Z" id="logo" fill="#262529" fill-rule="nonzero"></path>
    </g>
</svg>