<?xml version="1.0" encoding="UTF-8"?>
<svg width="964px" height="609px" viewBox="0 0 964 609" version="1.1" xmlns="http://www.w3.org/2000/svg" xmlns:xlink="http://www.w3.org/1999/xlink">
    <!-- Generator: Sketch 55.1 (78136) - https://sketchapp.com -->
    <desc>Created with Sketch.</desc>
    <g id="Responsive" stroke="none" stroke-width="1" fill="none" fill-rule="evenodd">
        <g id="Scheme" transform="translate(0.000000, 2.000000)">
            <g id="SD/eMMC" transform="translate(180.500000, 58.000000)" stroke="#49494A" stroke-width="1.8">
                <path d="M3.11649583,1.03994843 L5.65106619,0.943675778 L6.45295086,-1 L49.8,-1 C51.0150264,-1 52,-0.0150264496 52,1.2 L52,45.2293749 C52,46.4354828 51.0289042,47.4167228 49.8228614,47.4292561 L18.0000901,47.7599615 L14.3114206,52 L3.2,52 C1.98497355,52 1,51.0150264 1,49.8 L1,3.23836309 C1,2.05582812 1.934813,1.08483325 3.11649583,1.03994843 Z" id="Rectangle" fill="#FFEB89" transform="translate(26.500000, 25.500000) rotate(-270.000000) translate(-26.500000, -25.500000) "></path>
                <path d="M3.11649583,146.039948 L5.65106619,145.943676 L6.45295086,144 L49.8,144 C51.0150264,144 52,144.984974 52,146.2 L52,190.229375 C52,191.435483 51.0289042,192.416723 49.8228614,192.429256 L18.0000901,192.759962 L14.3114206,197 L3.2,197 C1.98497355,197 1,196.015026 1,194.8 L1,148.238363 C1,147.055828 1.934813,146.084833 3.11649583,146.039948 Z" id="Rectangle" fill="#FFFFFF" transform="translate(26.500000, 170.500000) rotate(-270.000000) translate(-26.500000, -170.500000) "></path>
                <path d="M3.11649583,362.039948 L5.65106619,361.943676 L6.45295086,360 L49.8,360 C51.0150264,360 52,360.984974 52,362.2 L52,406.229375 C52,407.435483 51.0289042,408.416723 49.8228614,408.429256 L18.0000901,408.759962 L14.3114206,413 L3.2,413 C1.98497355,413 1,412.015026 1,410.8 L1,364.238363 C1,363.055828 1.934813,362.084833 3.11649583,362.039948 Z" id="Rectangle" fill="#FFFFFF" transform="translate(26.500000, 386.500000) rotate(-270.000000) translate(-26.500000, -386.500000) "></path>
                <path d="M3.11649583,74.0399484 L5.65106619,73.9436758 L6.45295086,72 L49.8,72 C51.0150264,72 52,72.9849736 52,74.2 L52,118.229375 C52,119.435483 51.0289042,120.416723 49.8228614,120.429256 L18.0000901,120.759962 L14.3114206,125 L3.2,125 C1.98497355,125 1,124.015026 1,122.8 L1,76.2383631 C1,75.0558281 1.934813,74.0848332 3.11649583,74.0399484 Z" id="Rectangle" fill="#FFFFFF" transform="translate(26.500000, 98.500000) rotate(-270.000000) translate(-26.500000, -98.500000) "></path>
                <path d="M3.11649583,290.039948 L5.65106619,289.943676 L6.45295086,288 L49.8,288 C51.0150264,288 52,288.984974 52,290.2 L52,334.229375 C52,335.435483 51.0289042,336.416723 49.8228614,336.429256 L18.0000901,336.759962 L14.3114206,341 L3.2,341 C1.98497355,341 1,340.015026 1,338.8 L1,292.238363 C1,291.055828 1.934813,290.084833 3.11649583,290.039948 Z" id="Rectangle" fill="#FFFFFF" transform="translate(26.500000, 314.500000) rotate(-270.000000) translate(-26.500000, -314.500000) "></path>
                <path d="M3.11649583,218.039948 L5.65106619,217.943676 L6.45295086,216 L49.8,216 C51.0150264,216 52,216.984974 52,218.2 L52,262.229375 C52,263.435483 51.0289042,264.416723 49.8228614,264.429256 L18.0000901,264.759962 L14.3114206,269 L3.2,269 C1.98497355,269 1,268.015026 1,266.8 L1,220.238363 C1,219.055828 1.934813,218.084833 3.11649583,218.039948 Z" id="Rectangle" fill="#FFFFFF" transform="translate(26.500000, 242.500000) rotate(-270.000000) translate(-26.500000, -242.500000) "></path>
                <path d="M3.61649583,434.039948 L6.15106619,433.943676 L6.95295086,432 L50.3,432 C51.5150264,432 52.5,432.984974 52.5,434.2 L52.5,478.229375 C52.5,479.435483 51.5289042,480.416723 50.3228614,480.429256 L18.5000901,480.759962 L14.8114206,485 L3.7,485 C2.48497355,485 1.5,484.015026 1.5,482.8 L1.5,436.238363 C1.5,435.055828 2.434813,434.084833 3.61649583,434.039948 Z" id="Rectangle" fill="#FFFFFF" transform="translate(27.000000, 458.500000) rotate(-270.000000) translate(-27.000000, -458.500000) "></path>
            </g>
            <rect id="Rectangle" stroke="#49494A" stroke-width="3" fill="#F3F3F3" x="192" y="0" width="605" height="605" rx="6.6"></rect>
            <g id="O" transform="translate(209.600000, 17.600000)">
                <circle id="Oval" fill="#49494A" cx="11" cy="11" r="11"></circle>
                <circle id="Oval" fill="#F3F3F3" cx="11" cy="11" r="4.4"></circle>
            </g>
            <g id="O" transform="translate(209.600000, 565.400000)">
                <circle id="Oval" fill="#49494A" cx="11" cy="11" r="11"></circle>
                <circle id="Oval" fill="#F3F3F3" cx="11" cy="11" r="4.4"></circle>
            </g>
            <g id="O" transform="translate(674.900000, 565.400000)">
                <circle id="Oval" fill="#49494A" cx="11" cy="11" r="11"></circle>
                <circle id="Oval" fill="#F3F3F3" cx="11" cy="11" r="4.4"></circle>
            </g>
            <g id="O" transform="translate(757.400000, 17.600000)">
                <circle id="Oval" fill="#49494A" cx="11" cy="11" r="11"></circle>
                <circle id="Oval" fill="#F3F3F3" cx="11" cy="11" r="4.4"></circle>
            </g>
            <rect id="Rectangle-" stroke="#49494A" stroke-width="1.8" fill="#FFEB89" x="212" y="257" width="22" height="91.3" rx="2.2"></rect>
            <g id="Group-3" transform="translate(212.000000, 257.000000)" stroke="#262529" stroke-linecap="square" stroke-linejoin="round">
                <path d="M0.9,41.3 L21.5,27.5" id="Line-Copy"></path>
                <path d="M0.9,30.3 L21.5,16.5" id="Line-Copy-2"></path>
                <path d="M0.9,18.3 L20.5,5.5" id="Line-Copy-3"></path>
                <path d="M0.9,75.3 L21.5,61.5" id="Line-Copy-11"></path>
                <path d="M0.9,64.3 L21.5,50.5" id="Line-Copy-10"></path>
                <path d="M0.9,52.3 L20.5,39.5" id="Line-Copy-9"></path>
                <path d="M0.9,86.3 L20.5,73.5" id="Line-Copy-12"></path>
                <path d="M0.9,7.3 L11.9,0.3" id="Line-Copy-4"></path>
                <path d="M10.9,90.3 L20.5,83.5" id="Line-Copy-13"></path>
            </g>
            <rect id="Rectangle-" stroke="#49494A" stroke-width="1.8" fill="#FFEB89" x="212" y="110" width="22" height="91.3" rx="2.2"></rect>
            <g id="Group-2" transform="translate(212.000000, 110.000000)" stroke="#262529" stroke-linecap="square" stroke-linejoin="round">
                <g id="Group-3">
                    <path d="M0.9,41.3 L21.5,27.5" id="Line-Copy"></path>
                    <path d="M0.9,30.3 L21.5,16.5" id="Line-Copy-2"></path>
                    <path d="M0.9,18.3 L20.5,5.5" id="Line-Copy-3"></path>
                    <path d="M0.9,75.3 L21.5,61.5" id="Line-Copy-11"></path>
                    <path d="M0.9,64.3 L21.5,50.5" id="Line-Copy-10"></path>
                    <path d="M0.9,52.3 L20.5,39.5" id="Line-Copy-9"></path>
                    <path d="M0.9,86.3 L20.5,73.5" id="Line-Copy-12"></path>
                    <path d="M0.9,7.3 L11.9,0.3" id="Line-Copy-4"></path>
                    <path d="M10.9,90.3 L20.5,83.5" id="Line-Copy-13"></path>
                </g>
            </g>
            <rect id="Rectangle-" stroke="#49494A" stroke-width="1.8" fill="#FFEB89" x="212" y="404" width="22" height="91.3" rx="2.2"></rect>
            <g id="Group-3" transform="translate(212.000000, 404.000000)" stroke="#262529" stroke-linecap="square" stroke-linejoin="round">
                <path d="M0.9,41.3 L21.5,27.5" id="Line-Copy"></path>
                <path d="M0.9,30.3 L21.5,16.5" id="Line-Copy-2"></path>
                <path d="M0.9,18.3 L20.5,5.5" id="Line-Copy-3"></path>
                <path d="M0.9,75.3 L21.5,61.5" id="Line-Copy-11"></path>
                <path d="M0.9,64.3 L21.5,50.5" id="Line-Copy-10"></path>
                <path d="M0.9,52.3 L20.5,39.5" id="Line-Copy-9"></path>
                <path d="M0.9,86.3 L20.5,73.5" id="Line-Copy-12"></path>
                <path d="M0.9,7.3 L11.9,0.3" id="Line-Copy-4"></path>
                <path d="M10.9,90.3 L20.5,83.5" id="Line-Copy-13"></path>
            </g>
            <g id="DDR" transform="translate(260.200000, 26.400000)">
                <g id="7">
                    <rect id="Rectangle-Copy-30" stroke="#49494A" stroke-width="1.8" fill="#F3F3F3" x="0" y="32" width="301.4" height="35.2" rx="2.2"></rect>
                    <path d="M113.3,0 L244.2,0 C244.807513,-3.33642974e-16 245.3,0.492486775 245.3,1.1 L245.3,23.1 C245.3,23.7075132 244.807513,24.2 244.2,24.2 L113.3,24.2 C112.692487,24.2 112.2,23.7075132 112.2,23.1 L112.2,1.1 C112.2,0.492486775 112.692487,-3.32490841e-16 113.3,0 Z" id="Rectangle-Copy-31" stroke="#B0B0B0" stroke-width="1.6" fill-opacity="0" fill="#242333" stroke-linejoin="round" stroke-dasharray="2,4"></path>
                    <text id="Rapsberry-Pi-#1" font-family="Lekton-Bold, Lekton" font-size="14" font-weight="bold" fill="#262529">
                        <tspan x="87.7" y="54.7">Rapsberry Pi	#1</tspan>
                    </text>
                    <text id="GPIO-40-pin-Copy" font-family="Lekton-Bold, Lekton" font-size="12" font-weight="bold" fill="#262529">
                        <tspan x="143.55" y="16.5">GPIO 40-pin</tspan>
                    </text>
                </g>
                <g id="6" transform="translate(0.000000, 149.600000)">
                    <rect id="Rectangle-Copy-30" stroke="#49494A" stroke-width="1.8" fill="#F3F3F3" x="0" y="31.9" width="301.4" height="35.2" rx="2.2"></rect>
                    <path d="M114.4,0 L243.1,0 C243.707513,-1.11598369e-16 244.2,0.492486775 244.2,1.1 L244.2,23.1 C244.2,23.7075132 243.707513,24.2 243.1,24.2 L114.4,24.2 C113.792487,24.2 113.3,23.7075132 113.3,23.1 L113.3,1.1 C113.3,0.492486775 113.792487,-3.32490841e-16 114.4,0 Z" id="Rectangle-Copy-31" stroke="#B0B0B0" stroke-width="1.6" fill-opacity="0" fill="#242333" stroke-linejoin="round" stroke-dasharray="2,4"></path>
                    <text id="Rapsberry-Pi-#3" font-family="Lekton-Bold, Lekton" font-size="14" font-weight="bold" fill="#262529">
                        <tspan x="87.7" y="54.7">Rapsberry Pi	#3</tspan>
                    </text>
                    <text id="GPIO-40-pin-Copy-2" font-family="Lekton-Bold, Lekton" font-size="12" font-weight="bold" fill="#262529">
                        <tspan x="143.55" y="16.5">GPIO 40-pin</tspan>
                    </text>
                </g>
                <g id="5" transform="translate(0.000000, 374.000000)">
                    <rect id="Rectangle-Copy-30" stroke="#49494A" stroke-width="1.8" fill="#F3F3F3" x="0" y="31.9" width="301.4" height="35.2" rx="2.2"></rect>
                    <path d="M114.4,8.52651283e-14 L243.1,8.52651283e-14 C243.707513,8.51535299e-14 244.2,0.492486775 244.2,1.1 L244.2,23.1 C244.2,23.7075132 243.707513,24.2 243.1,24.2 L114.4,24.2 C113.792487,24.2 113.3,23.7075132 113.3,23.1 L113.3,1.1 C113.3,0.492486775 113.792487,8.49326375e-14 114.4,8.52651283e-14 Z" id="Rectangle-Copy-31" stroke="#B0B0B0" stroke-width="1.6" fill-opacity="0" fill="#242333" stroke-linejoin="round" stroke-dasharray="2,4"></path>
                    <text id="Rapsberry-Pi-#6" font-family="Lekton-Bold, Lekton" font-size="14" font-weight="bold" fill="#262529">
                        <tspan x="87.7" y="54.7">Rapsberry Pi	#6</tspan>
                    </text>
                    <text id="GPIO-40-pin-Copy-3" font-family="Lekton-Bold, Lekton" font-size="12" font-weight="bold" fill="#262529">
                        <tspan x="143.55" y="16.5">GPIO 40-pin</tspan>
                    </text>
                </g>
                <g id="4" transform="translate(0.000000, 74.800000)">
                    <rect id="Rectangle-Copy-30" stroke="#49494A" stroke-width="1.8" fill="#F3F3F3" x="0" y="32" width="301.4" height="35.2" rx="2.2"></rect>
                    <path d="M113.3,-2.4158453e-13 L244.2,-2.4158453e-13 C244.807513,-2.41918173e-13 245.3,0.492486775 245.3,1.1 L245.3,23.1 C245.3,23.7075132 244.807513,24.2 244.2,24.2 L113.3,24.2 C112.692487,24.2 112.2,23.7075132 112.2,23.1 L112.2,1.1 C112.2,0.492486775 112.692487,-2.41917021e-13 113.3,-2.4158453e-13 Z" id="Rectangle-Copy-31" stroke="#B0B0B0" stroke-width="1.6" fill-opacity="0" fill="#242333" stroke-linejoin="round" stroke-dasharray="2,4"></path>
                    <text id="Rapsberry-Pi-#2" font-family="Lekton-Bold, Lekton" font-size="14" font-weight="bold" fill="#262529">
                        <tspan x="88" y="55">Rapsberry Pi	#2</tspan>
                    </text>
                    <text id="GPIO-40-pin-Copy-4" font-family="Lekton-Bold, Lekton" font-size="12" font-weight="bold" fill="#262529">
                        <tspan x="143.55" y="16.5">GPIO 40-pin</tspan>
                    </text>
                </g>
                <g id="3" transform="translate(0.000000, 299.200000)">
                    <rect id="Rectangle-Copy-30" stroke="#49494A" stroke-width="1.8" fill="#F3F3F3" x="0" y="31.9" width="301.4" height="35.2" rx="2.2"></rect>
                    <path d="M114.4,-1.13686838e-13 L243.1,-1.13686838e-13 C243.707513,-1.13798436e-13 244.2,0.492486775 244.2,1.1 L244.2,23.1 C244.2,23.7075132 243.707513,24.2 243.1,24.2 L114.4,24.2 C113.792487,24.2 113.3,23.7075132 113.3,23.1 L113.3,1.1 C113.3,0.492486775 113.792487,-1.14019329e-13 114.4,-1.13686838e-13 Z" id="Rectangle-Copy-31" stroke="#B0B0B0" stroke-width="1.6" fill-opacity="0" fill="#242333" stroke-linejoin="round" stroke-dasharray="2,4"></path>
                    <text id="Rapsberry-Pi-#5" font-family="Lekton-Bold, Lekton" font-size="14" font-weight="bold" fill="#262529">
                        <tspan x="87.7" y="54.7">Rapsberry Pi	#5</tspan>
                    </text>
                    <text id="GPIO-40-pin-Copy-5" font-family="Lekton-Bold, Lekton" font-size="12" font-weight="bold" fill="#262529">
                        <tspan x="143.55" y="16.5">GPIO 40-pin</tspan>
                    </text>
                </g>
                <g id="2" transform="translate(0.000000, 224.400000)">
                    <rect id="Rectangle-Copy-30" stroke="#49494A" stroke-width="1.8" fill="#F3F3F3" x="0" y="31.9" width="301.4" height="35.2" rx="2.2"></rect>
                    <path d="M114.4,-5.68434189e-14 L243.1,-5.68434189e-14 C243.707513,-5.69550172e-14 244.2,0.492486775 244.2,1.1 L244.2,23.1 C244.2,23.7075132 243.707513,24.2 243.1,24.2 L114.4,24.2 C113.792487,24.2 113.3,23.7075132 113.3,23.1 L113.3,1.1 C113.3,0.492486775 113.792487,-5.71759097e-14 114.4,-5.68434189e-14 Z" id="Rectangle-Copy-31" stroke="#B0B0B0" stroke-width="1.6" fill-opacity="0" fill="#242333" stroke-linejoin="round" stroke-dasharray="2,4"></path>
                    <text id="Rapsberry-Pi-#4" font-family="Lekton-Bold, Lekton" font-size="14" font-weight="bold" fill="#262529">
                        <tspan x="87.7" y="54.7">Rapsberry Pi	#4</tspan>
                    </text>
                    <text id="GPIO-40-pin-Copy-6" font-family="Lekton-Bold, Lekton" font-size="12" font-weight="bold" fill="#262529">
                        <tspan x="143.55" y="16.5">GPIO 40-pin</tspan>
                    </text>
                </g>
                <g id="1" transform="translate(0.000000, 448.800000)">
                    <rect id="Rectangle-Copy-30" stroke="#49494A" stroke-width="1.8" fill="#F3F3F3" x="0" y="32" width="301.4" height="35.2" rx="2.2"></rect>
                    <path d="M114.4,5.68434189e-14 L243.1,5.68434189e-14 C243.707513,5.67318205e-14 244.2,0.492486775 244.2,1.1 L244.2,23.1 C244.2,23.7075132 243.707513,24.2 243.1,24.2 L114.4,24.2 C113.792487,24.2 113.3,23.7075132 113.3,23.1 L113.3,1.1 C113.3,0.492486775 113.792487,5.6510928e-14 114.4,5.68434189e-14 Z" id="Rectangle-Copy-31" stroke="#B0B0B0" stroke-width="1.6" fill-opacity="0" fill="#242333" stroke-linejoin="round" stroke-dasharray="2,4"></path>
                    <text id="Rapsberry-Pi-#7" font-family="Lekton-Bold, Lekton" font-size="14" font-weight="bold" fill="#262529">
                        <tspan x="87.7" y="54.7">Rapsberry Pi	#7</tspan>
                    </text>
                    <text id="GPIO-40-pin-Copy-7" font-family="Lekton-Bold, Lekton" font-size="12" font-weight="bold" fill="#262529">
                        <tspan x="143.55" y="16">GPIO 40-pin</tspan>
                    </text>
                </g>
            </g>
            <g id="eth" transform="translate(579.200000, 50.600000)">
                <g id="7">
                    <rect id="Rectangle-" stroke="#49494A" stroke-width="1.8" fill="#F3F3F3" x="0" y="0" width="42.9" height="42.9" rx="2.2"></rect>
                    <text id="eth-copy" font-family="Lekton-Bold, Lekton" font-size="14" font-weight="bold" fill="#262529">
                        <tspan x="11" y="26">eth</tspan>
                    </text>
                </g>
                <g id="6" transform="translate(0.000000, 74.800000)">
                    <rect id="Rectangle-" stroke="#49494A" stroke-width="1.8" fill="#F3F3F3" x="0" y="0" width="42.9" height="42.9" rx="2.2"></rect>
                    <text id="eth-copy-2" font-family="Lekton-Bold, Lekton" font-size="14" font-weight="bold" fill="#262529">
                        <tspan x="11" y="25">eth</tspan>
                    </text>
                </g>
                <g id="5" transform="translate(0.000000, 149.600000)">
                    <rect id="Rectangle-" stroke="#49494A" stroke-width="1.8" fill="#F3F3F3" x="0" y="0" width="42.9" height="42.9" rx="2.2"></rect>
                    <text id="eth-copy-3" font-family="Lekton-Bold, Lekton" font-size="14" font-weight="bold" fill="#262529">
                        <tspan x="11" y="25">eth</tspan>
                    </text>
                </g>
                <g id="4" transform="translate(0.000000, 224.400000)">
                    <rect id="Rectangle-" stroke="#49494A" stroke-width="1.8" fill="#F3F3F3" x="0" y="0" width="42.9" height="42.9" rx="2.2"></rect>
                    <text id="eth-copy-4" font-family="Lekton-Bold, Lekton" font-size="14" font-weight="bold" fill="#262529">
                        <tspan x="11" y="25">eth</tspan>
                    </text>
                </g>
                <g id="3" transform="translate(0.000000, 299.200000)">
                    <rect id="Rectangle-" stroke="#49494A" stroke-width="1.8" fill="#F3F3F3" x="0" y="0" width="42.9" height="42.9" rx="2.2"></rect>
                    <text id="eth-copy-5" font-family="Lekton-Bold, Lekton" font-size="14" font-weight="bold" fill="#262529">
                        <tspan x="11" y="25">eth</tspan>
                    </text>
                </g>
                <g id="2" transform="translate(0.000000, 374.000000)">
                    <rect id="Rectangle-" stroke="#49494A" stroke-width="1.8" fill="#F3F3F3" x="0" y="0" width="42.9" height="42.9" rx="2.2"></rect>
                    <text id="eth-copy-6" font-family="Lekton-Bold, Lekton" font-size="14" font-weight="bold" fill="#262529">
                        <tspan x="11" y="25">eth</tspan>
                    </text>
                </g>
                <g id="1" transform="translate(0.000000, 448.800000)">
                    <rect id="Rectangle-" stroke="#49494A" stroke-width="1.8" fill="#F3F3F3" x="0" y="0" width="42.9" height="42.9" rx="2.2"></rect>
                    <text id="eth-copy-7" font-family="Lekton-Bold, Lekton" font-size="14" font-weight="bold" fill="#262529">
                        <tspan x="11" y="25">eth</tspan>
                    </text>
                </g>
            </g>
            <g id="Right-side" transform="translate(726.600000, 56.200000)">
                <rect id="Rectangle" stroke="#49494A" stroke-width="1.8" fill="#FFEB89" x="0" y="0" width="79.2" height="35.2" rx="2.2"></rect>
                <g id="Group-2" transform="translate(1.000000, 0.000000)" stroke="#262529" stroke-linecap="square" stroke-linejoin="round">
                    <path d="M25.9,34.3 L76.9,1.3" id="Line"></path>
                    <path d="M42.9,34.3 L76.9,12.3" id="Line"></path>
                    <path d="M59.9,34.3 L76.9,23.3" id="Line"></path>
                    <path d="M10.9,34.3 L61.9,0.3" id="Line"></path>
                    <path d="M0.9,30.3 L45.9,0.3" id="Line"></path>
                    <path d="M0.9,18.3 L27.9,0.3" id="Line"></path>
                    <path d="M0.9,7.3 L11.9,0.3" id="Line"></path>
                </g>
                <rect id="Rectangle" stroke="#49494A" stroke-width="1.8" fill="#FFEB89" x="3.62376795e-13" y="496" width="79.2" height="35.2" rx="2.2"></rect>
                <g id="Group-2" transform="translate(1.000000, 496.000000)" stroke="#262529" stroke-linecap="square" stroke-linejoin="round">
                    <path d="M2.9,35 L52.9,1.3" id="Line"></path>
                    <path d="M18.9,35 L68.9,1.3" id="Line"></path>
                    <path d="M35.9,35 L76.9,7.3" id="Line"></path>
                    <path d="M51.9,35 L76.9,18.3" id="Line"></path>
                    <path d="M66.9,35 L76.9,28.3" id="Line"></path>
                    <path d="M0.9,25.3 L37.9,0.3" id="Line"></path>
                    <path d="M0.9,14.3 L20.9,1.3" id="Line"></path>
                    <path d="M0.9,2.3 L3.9,0.3" id="Line"></path>
                </g>
                <rect id="Rectangle" stroke="#49494A" stroke-width="1.8" fill="#FFEB89" x="0" y="399" width="79.2" height="52.8" rx="2.2"></rect>
                <g id="Group-2" transform="translate(1.000000, 400.000000)" stroke="#262529" stroke-linecap="square" stroke-linejoin="round">
                    <path d="M2.9,51 L76.9,1.3" id="Line"></path>
                    <path d="M18.9,51 L76.9,12.3" id="Line-Copy-5"></path>
                    <path d="M35.9,51 L76.9,23.3" id="Line-Copy-6"></path>
                    <path d="M51.9,51 L76.9,34.3" id="Line-Copy-7"></path>
                    <path d="M66.9,51 L76.9,44.3" id="Line-Copy-8"></path>
                    <path d="M0.9,41.3 L61.9,0.3" id="Line-Copy"></path>
                    <path d="M0.9,30.3 L45.9,0.3" id="Line-Copy-2"></path>
                    <path d="M0.9,18.3 L27.9,0.3" id="Line-Copy-3"></path>
                    <path d="M0.9,7.3 L11.9,0.3" id="Line-Copy-4"></path>
                </g>
                <rect id="Rectangle" stroke="#49494A" stroke-width="1.8" fill="#FFEB89" x="0" y="258" width="79.2" height="52.8" rx="2.2"></rect>
                <g id="Group-2" transform="translate(1.000000, 260.000000)" stroke="#262529" stroke-linecap="square" stroke-linejoin="round">
                    <path d="M2.9,51 L76.9,1.3" id="Line"></path>
                    <path d="M18.9,51 L76.9,12.3" id="Line-Copy-5"></path>
                    <path d="M35.9,51 L76.9,23.3" id="Line-Copy-6"></path>
                    <path d="M51.9,51 L76.9,34.3" id="Line-Copy-7"></path>
                    <path d="M66.9,51 L76.9,44.3" id="Line-Copy-8"></path>
                    <path d="M0.9,41.3 L61.9,0.3" id="Line-Copy"></path>
                    <path d="M0.9,30.3 L45.9,0.3" id="Line-Copy-2"></path>
                    <path d="M0.9,18.3 L27.9,0.3" id="Line-Copy-3"></path>
                    <path d="M0.9,7.3 L11.9,0.3" id="Line-Copy-4"></path>
                </g>
                <rect id="Rectangle" stroke="#49494A" stroke-width="1.8" fill="#FFEB89" x="0" y="329" width="79.2" height="52.8" rx="2.2"></rect>
                <g id="Group-2" transform="translate(1.000000, 329.000000)" stroke="#262529" stroke-linecap="square" stroke-linejoin="round">
                    <path d="M2.9,53 L76.9,3.3" id="Line"></path>
                    <path d="M18.9,53 L76.9,14.3" id="Line-Copy-5"></path>
                    <path d="M35.9,53 L76.9,25.3" id="Line-Copy-6"></path>
                    <path d="M51.9,53 L76.9,36.3" id="Line-Copy-7"></path>
                    <path d="M66.9,53 L76.9,46.3" id="Line-Copy-8"></path>
                    <path d="M0.9,43.3 L61.9,2.3" id="Line-Copy"></path>
                    <path d="M0.9,32.3 L49.9,0.3" id="Line-Copy-2"></path>
                    <path d="M0.9,20.3 L30.9,0.3" id="Line-Copy-3"></path>
                    <path d="M0.9,9.3 L14.9,0.3" id="Line-Copy-4"></path>
                </g>
                <rect id="Rectangle" stroke="#49494A" stroke-width="1.8" fill="#FFEB89" x="0" y="188" width="79.2" height="52.8" rx="2.2"></rect>
                <g id="Group-2" transform="translate(1.000000, 189.000000)" stroke="#262529" stroke-linecap="square" stroke-linejoin="round">
                    <path d="M2.9,51 L76.9,1.3" id="Line"></path>
                    <path d="M18.9,51 L76.9,12.3" id="Line-Copy-5"></path>
                    <path d="M35.9,51 L76.9,23.3" id="Line-Copy-6"></path>
                    <path d="M51.9,51 L76.9,34.3" id="Line-Copy-7"></path>
                    <path d="M66.9,51 L76.9,44.3" id="Line-Copy-8"></path>
                    <path d="M0.9,41.3 L61.9,0.3" id="Line-Copy"></path>
                    <path d="M0.9,30.3 L45.9,0.3" id="Line-Copy-2"></path>
                    <path d="M0.9,18.3 L27.9,0.3" id="Line-Copy-3"></path>
                    <path d="M0.9,7.3 L11.9,0.3" id="Line-Copy-4"></path>
                </g>
                <path d="M34.8,54 L76.6,54 C77.8150264,54 78.8,54.9849736 78.8,56.2 L78.8,104.6 C78.8,105.815026 77.8150264,106.8 76.6,106.8 L34.8,106.8 C29.9398942,106.8 26,102.860106 26,98 L26,62.8 C26,57.9398942 29.9398942,54 34.8,54 Z" id="Rectangle" stroke="#49494A" stroke-width="1.8" fill="#FFEB89"></path>
                <g id="Group-2" transform="translate(26.000000, 55.000000)" stroke="#262529" stroke-linecap="square" stroke-linejoin="round">
                    <path d="M0.9,34.3 L51.9,0.3" id="Line"></path>
                    <path d="M0.9,45.3 L51.9,11.3" id="Line"></path>
                    <path d="M10.9,50 L51.9,22.3" id="Line"></path>
                    <path d="M26.9,50 L51.9,33.3" id="Line"></path>
                    <path d="M41.9,50 L51.9,43.3" id="Line"></path>
                    <path d="M1.9,22.3 L35.9,0.3" id="Line"></path>
                    <path d="M0.9,12.3 L19.4,0.3" id="Line"></path>
                </g>
            </g>
            <g id="Switch-IC" transform="translate(635.300000, 213.400000)">
                <rect id="Rectangle" fill="#49494A" x="0" y="0" width="78.1" height="83.6" rx="2.2"></rect>
                <text id="Ethernet-1-Gbps" font-family="Lekton-Bold, Lekton" font-size="14" font-weight="bold" fill="#FFFFFF">
                    <tspan x="11" y="38">Ethernet</tspan>
                    <tspan x="18" y="56">1 Gbps</tspan>
                </text>
            </g>
            <g id="ATX" transform="translate(410.900000, 556.600000)">
                <rect id="Rectangle-" fill="#49494A" x="0" y="0" width="190.3" height="35.2" rx="2.2"></rect>
                <text font-family="Lato-Bold, Lato" font-size="13.2" font-weight="bold" letter-spacing="-0.220000003" fill="#FFFFFF">
                    <tspan x="82.8707" y="21.8">ATX</tspan>
                </text>
            </g>
            <g id="Text" transform="translate(0.000000, 51.000000)">
                <text id="Audio" font-family="Lekton-Bold, Lekton" font-size="20" font-weight="bold" fill="#262529">
                    <tspan x="884" y="28">Audio</tspan>
                </text>
                <text id="DSI" font-family="Lekton-Bold, Lekton" font-size="20" font-weight="bold" fill="#262529">
                    <tspan x="70" y="258">DSI</tspan>
                </text>
                <text id="CSI" font-family="Lekton-Bold, Lekton" font-size="20" font-weight="bold" fill="#262529">
                    <tspan x="70" y="111">CSI</tspan>
                </text>
                <text id="CSI" font-family="Lekton-Bold, Lekton" font-size="20" font-weight="bold" fill="#262529">
                    <tspan x="70" y="399">CSI</tspan>
                </text>
                <text id="SD/eMMC-7x" font-family="Lekton-Bold, Lekton" font-size="20" font-weight="bold" fill="#262529">
                    <tspan x="0" y="19">SD/eMMC 7x</tspan>
                </text>
                <path d="M823.236842,22.5 L867.254517,22.5" id="Line" stroke="#B8B8B8" stroke-linecap="square"></path>
                <path d="M823.236842,86.5 L867.254517,86.5" id="Line" stroke="#B8B8B8" stroke-linecap="square"></path>
                <path d="M119.236842,14.5 L163.254517,14.5" id="Line" stroke="#B8B8B8" stroke-linecap="square"></path>
                <path d="M119.236842,104.5 L210.096418,104.5" id="Line" stroke="#B8B8B8" stroke-linecap="square"></path>
                <path d="M119.236842,392.5 L210.096418,392.5" id="Line" stroke="#B8B8B8" stroke-linecap="square"></path>
                <path d="M119.236842,251.5 L210.096418,251.5" id="Line" stroke="#B8B8B8" stroke-linecap="square"></path>
                <path d="M823.236842,518.5 L867.254517,518.5" id="Line" stroke="#B8B8B8" stroke-linecap="square"></path>
                <path d="M822.5,219.5 L867.294379,219.5" id="Line" stroke="#B8B8B8" stroke-linecap="square"></path>
                <path d="M822.5,360.5 L867.294379,360.5" id="Line" stroke="#B8B8B8" stroke-linecap="square"></path>
                <path d="M822.5,275.5 L867.294379,275.5" id="Line" stroke="#B8B8B8" stroke-linecap="square"></path>
                <path d="M822.5,430.5 L867.294379,430.5" id="Line" stroke="#B8B8B8" stroke-linecap="square"></path>
                <text id="HDMI" font-family="Lekton-Bold, Lekton" font-size="20" font-weight="bold" fill="#262529">
                    <tspan x="884" y="91">HDMI</tspan>
                </text>
                <text id="USB-2x" font-family="Lekton-Bold, Lekton" font-size="20" font-weight="bold" fill="#262529">
                    <tspan x="884" y="225">USB 2x</tspan>
                </text>
                <text id="Ethernet" font-family="Lekton-Bold, Lekton" font-size="20" font-weight="bold" fill="#262529">
                    <tspan x="884" y="281">Ethernet</tspan>
                </text>
                <path d="M822.5,302.5 L867.294379,302.5" id="Line-2" stroke="#B8B8B8" stroke-linecap="square"></path>
                <text id="USB-4x-" font-family="Lekton-Bold, Lekton" font-size="20" font-weight="bold" fill="#262529">
                    <tspan x="884" y="308">USB 4x</tspan>
                </text>
                <text id="USB-2x" font-family="Lekton-Bold, Lekton" font-size="20" font-weight="bold" fill="#262529">
                    <tspan x="884" y="370">USB 2x</tspan>
                </text>
                <text id="USB-2x" font-family="Lekton-Bold, Lekton" font-size="20" font-weight="bold" fill="#262529">
                    <tspan x="884" y="440">USB 2x</tspan>
                </text>
                <text id="DC-5V" font-family="Lekton-Bold, Lekton" font-size="20" font-weight="bold" fill="#262529">
                    <tspan x="884" y="528">DC 5V</tspan>
                </text>
            </g>
        </g>
    </g>
</svg>