<?xml version="1.0" encoding="UTF-8"?>
<svg width="54px" height="38px" viewBox="0 0 54 38" version="1.1" xmlns="http://www.w3.org/2000/svg" xmlns:xlink="http://www.w3.org/1999/xlink">
    <!-- Generator: Sketch 55.1 (78136) - https://sketchapp.com -->
    <desc>Created with Sketch.</desc>
    <g id="Responsive" stroke="none" stroke-width="1" fill="none" fill-rule="evenodd">
        <g id="icon-1" transform="translate(1.000000, 1.000000)" fill="#FFEB89" fill-rule="nonzero" stroke="#FFEB89">
            <path d="M51.9651188,14.9574783 C51.9649901,14.9556522 51.9495446,14.8188261 51.9496733,14.8206522 C51.8930396,14.3427391 51.6192673,13.9168696 51.2211584,13.6471304 L32.3349901,0.922304348 C31.5325941,0.40473913 30.5606832,0.180521739 29.6226238,0.102521739 C28.6601089,0.0225652174 27.6009307,0.0799565217 26.6870693,0.420391304 L1.90765347,9.59308696 C1.1360198,9.879 0.239792079,10.4059565 0.119960396,11.3161304 C0.120217822,11.3124783 0.119831683,11.3084348 0.120217822,11.3047826 C0.111980198,11.3366087 0.0919009901,11.4572609 0.0919009901,11.4910435 L0.0938316832,20.9353043 C0.0765841584,21.4601739 0.38150495,22.0318696 0.813079208,22.3219565 L19.8006733,35.1152609 C20.5853069,35.639087 21.5748515,35.8570435 22.5000396,35.9273478 C23.5288416,36.0054783 24.5836436,35.8728261 25.5540099,35.5137391 L50.1610792,26.405087 C51.2955545,25.985087 51.9549505,25.2881739 51.9698812,24.4852174 L51.9711683,15.1282174 C51.9711683,15.1283478 51.9711683,15.0255652 51.9651188,14.9574783 C51.9649901,14.9557826 51.9711683,15.0255652 51.9651188,14.9574783 Z M0.992891089,11.1328696 C1.25005941,10.7205652 1.73723762,10.4896957 2.17267327,10.3283478 L26.9455248,1.158 C28.5504455,0.631565217 30.7344455,0.817565217 31.9139703,1.57826087 L50.7763267,14.2871739 C51.155,14.6116957 51.3237426,15.0983478 50.996297,15.5235652 C50.7253564,15.8754783 50.2994455,16.0707391 49.8960594,16.220087 L25.2889901,25.3287391 C23.7073663,25.9142609 21.6949406,25.8931304 20.2200198,25.0082609 L1.26048515,12.2337391 C0.942178218,11.952 0.74550495,11.5295217 0.992891089,11.1328696 C1.24993069,10.7205652 0.74550495,11.5295217 0.992891089,11.1328696 Z M51.198505,16.4058261 L51.1974752,24.4780435 C51.1891089,24.9259565 50.7024455,25.3716522 49.8959307,25.670087 L25.2888614,34.7787391 C23.6360594,35.3906087 21.5534851,35.2583478 20.2198911,34.4582609 L1.2599703,21.6834783 C1.0389703,21.4897826 0.865980198,21.2476957 0.865980198,20.9422174 L0.864435644,12.9067826 L19.8005446,25.6653913 C20.5859505,26.1897391 21.5780693,26.408087 22.5042871,26.477087 C23.5302574,26.5535217 24.5860891,26.4220435 25.5538812,26.064 L50.1609505,16.9553478 C50.3564653,16.8829565 50.5486337,16.8001304 50.7330792,16.7023043 C50.8885644,16.6197391 51.1024851,16.4801739 51.198505,16.4058261 Z" id="Shape" stroke-width="1.6"></path>
            <path d="M46.9441584,22.1651739 L32.4317822,27.5456087 C31.9658416,27.7183043 32.2273861,28.4542174 32.6970594,28.2806087 L47.2094356,22.9001739 C47.6767921,22.7268261 47.4116436,21.9919565 46.9441584,22.1651739 Z" id="Path" stroke-width="0.6"></path>
            <path d="M29.6876238,28.0396217 C29.2694356,28.1910564 28.8818812,28.6907521 28.9800891,29.159926 C29.0737921,29.6077086 29.5847822,29.6263608 29.8993564,29.4108825 C30.1983564,29.2060999 30.4629901,28.7910564 30.4039109,28.4116217 C30.3362079,27.9767521 29.8994851,27.9630564 29.5729406,28.0810999 C29.6446337,28.0551434 29.7163267,28.0291869 29.7880198,28.0032304 C29.7544257,28.0154912 29.7210891,28.0274912 29.6876238,28.0396217 C29.3839901,28.1495782 30.045703,27.9099695 29.6876238,28.0396217 Z" id="Path" stroke-width="0.6"></path>
        </g>
    </g>
</svg>