<?xml version="1.0" encoding="UTF-8"?>
<svg width="36px" height="37px" viewBox="0 0 36 37" version="1.1" xmlns="http://www.w3.org/2000/svg" xmlns:xlink="http://www.w3.org/1999/xlink">
    <!-- Generator: Sketch 55.1 (78136) - https://sketchapp.com -->
    <desc>Created with Sketch.</desc>
    <g id="Responsive" stroke="none" stroke-width="1" fill="none" fill-rule="evenodd">
        <path d="M33.7769129,1.01045822 C33.4867246,1.05029985 33.2184005,1.1924496 33.0166232,1.413236 L29.1618214,5.42712489 L26.1340013,2.27434711 C25.5566088,1.67312489 24.7815496,1.37172489 24.0131934,1.37156933 C23.2448371,1.37141378 22.4830074,1.68354267 21.9057238,2.288236 L15.9434525,8.52434711 C15.4502204,9.04383816 15.4502204,9.87985606 15.9434525,10.3993471 L26.2006934,21.0937916 C26.5247376,21.4312091 26.9970424,21.5629856 27.4396951,21.4394822 C27.8823477,21.3159788 28.2280988,20.9559586 28.3467073,20.4950378 C28.4653157,20.0341169 28.338762,19.5423202 28.0147177,19.2049027 L18.6511507,9.45490267 L23.7197482,4.163236 C23.8988718,3.97560933 24.1371463,3.97285822 24.3199769,4.163236 L32.1629647,12.3299027 C32.3458307,12.520316 32.3458277,12.7783827 32.1629647,12.9687916 L29.6019891,15.6354582 C29.2449615,15.9649434 29.0934211,16.473765 29.2087611,16.9557852 C29.3241011,17.4378054 29.6871987,17.813108 30.150953,17.9296475 C30.6147074,18.046187 31.1022306,17.8846417 31.4160135,17.5104582 L33.9769891,14.8437916 C35.1317509,13.6413738 35.1317855,11.6573604 33.9769891,10.4549027 L30.9625074,7.31601378 L34.8306476,3.288236 C35.2245824,2.88826186 35.3291244,2.27097346 35.0903428,1.75481735 C34.8515611,1.23866124 34.3228307,0.939014264 33.7769129,1.01045822 Z M14.5695958,14.3437916 C14.2794076,14.3836332 14.0110835,14.5257829 13.8093062,14.7465693 L11.0882696,17.5799027 L10.0612116,16.4965693 C9.81392484,16.2397987 9.476657,16.099324 9.12752262,16.1076804 C8.79686104,16.1140826 8.48139886,16.2534383 8.24718726,16.4965693 L2.2715775,22.7187916 C1.11676531,23.9211916 1.11681311,25.9190804 2.2715775,27.1215693 L5.29939762,30.2743471 L1.43125738,34.3021249 C1.07422982,34.6316101 0.922689408,35.1404317 1.03802938,35.6224519 C1.15336935,36.1044721 1.51646699,36.4797747 1.98022134,36.5963142 C2.44397569,36.7128536 2.93149891,36.5513084 3.24528177,36.1771249 L7.11342202,32.163236 L10.1145653,35.288236 C11.2693485,36.490636 13.1880664,36.4906804 14.3428427,35.288236 L20.3184525,29.0660138 C20.8116846,28.5465227 20.8116846,27.7105048 20.3184525,27.1910138 L19.304733,26.1215693 L22.0257696,23.288236 C22.4197043,22.8882619 22.5242464,22.2709735 22.2854647,21.7548173 C22.046683,21.2386612 21.5179526,20.9390143 20.9720348,21.0104582 C20.6818466,21.0502998 20.4135225,21.1924496 20.2117452,21.413236 L17.4907086,24.2465693 L12.902294,19.4549027 L15.6233306,16.6215693 C16.0172653,16.2215952 16.1218074,15.6043068 15.8830257,15.0881507 C15.644244,14.5719946 15.1155136,14.2723476 14.5695958,14.3437916 Z M9.15419945,19.3299027 L17.5974159,28.1354582 L12.5288184,33.413236 C12.3459323,33.6036804 12.1114416,33.603636 11.9285897,33.413236 L4.08560189,25.2326804 C3.90272262,25.042236 3.90275592,24.7980804 4.08560189,24.6076804 L9.15419945,19.3299027 Z" id="icon-3" stroke="#FFEB89" stroke-width="0.3" fill="#FFEB89" fill-rule="nonzero"></path>
    </g>
</svg>