<?xml version="1.0" encoding="UTF-8"?>
<svg width="40px" height="41px" viewBox="0 0 40 41" version="1.1" xmlns="http://www.w3.org/2000/svg" xmlns:xlink="http://www.w3.org/1999/xlink">
    <!-- Generator: Sketch 55.1 (78136) - https://sketchapp.com -->
    <desc>Created with Sketch.</desc>
    <g id="Responsive" stroke="none" stroke-width="1" fill="none" fill-rule="evenodd">
        <path d="M37.5228458,1.01162025 C37.1994932,1.05588872 36.9005035,1.21383289 36.6756659,1.45915111 L32.3803153,5.91902766 L29.0064586,2.41594124 C28.3630784,1.74791654 27.499441,1.41302766 26.6432726,1.41285482 C25.7871042,1.41268198 24.9382083,1.75949185 24.2949494,2.43137333 L17.6512756,9.36038568 C17.1016741,9.93759796 17.1016741,10.8665067 17.6512756,11.443719 L29.0807726,23.3264351 C29.4418505,23.7013434 29.9681329,23.8477618 30.4613745,23.7105358 C30.954616,23.5733098 31.3398815,23.1732874 31.4720452,22.6611531 C31.6042089,22.1490188 31.4631919,21.602578 31.1021141,21.2276696 L20.668425,10.3943363 L26.3162909,4.51470667 C26.5158858,4.30623259 26.7813916,4.3031758 26.9851171,4.51470667 L35.7244464,13.5887807 C35.9282114,13.8003511 35.9282081,14.0870919 35.7244464,14.2986573 L32.8707878,17.2616202 C32.4729571,17.6277149 32.3040978,18.1930722 32.4326195,18.7286503 C32.5611412,19.2642283 32.9657357,19.6812312 33.4824905,19.8107195 C33.9992454,19.9402078 34.5424855,19.760713 34.8921293,19.3449536 L37.7457878,16.3819906 C39.0325225,15.0459709 39.032561,12.8415116 37.7457878,11.5054474 L34.3867939,8.01779309 L38.6970074,3.54248445 C39.1359632,3.09806874 39.252453,2.41219273 38.9863819,1.83868594 C38.7203109,1.26517915 38.1311542,0.932238071 37.5228458,1.01162025 Z M16.1204067,15.8264351 C15.7970541,15.8707035 15.4980644,16.0286477 15.2732269,16.2739659 L12.2412147,19.4221141 L11.0967787,18.2184104 C10.8212305,17.9331097 10.4454178,17.7770267 10.0563824,17.7863116 C9.68793087,17.7934251 9.33641587,17.9482647 9.07543723,18.2184104 L2.41690065,25.1319906 C1.13010991,26.4679906 1.13016318,28.6878672 2.41690065,30.0239659 L5.79075735,33.5270523 L1.48054394,38.002361 C1.08271323,38.3684556 0.913853911,38.933813 1.04237559,39.469391 C1.17089727,40.004969 1.57549179,40.4219719 2.09224663,40.5514602 C2.60900148,40.6809485 3.15224164,40.5014538 3.5018854,40.0856943 L7.81209882,35.6258178 L11.1562299,39.09804 C12.4429883,40.43404 14.5809883,40.4340894 15.8677391,39.09804 L22.5262756,32.1844598 C23.0758772,31.6072475 23.0758772,30.6783387 22.5262756,30.1011264 L21.3967025,28.9128548 L24.4287147,25.7647067 C24.8676705,25.320291 24.9841603,24.634415 24.7180892,24.0609082 C24.4520182,23.4874014 23.8628615,23.1544603 23.2545531,23.2338425 C22.9312005,23.2781109 22.6322108,23.4360551 22.4073732,23.6813733 L19.375361,26.8295215 L14.2625561,21.5054474 L17.2945683,18.3572993 C17.7335242,17.9128836 17.8500139,17.2270075 17.5839429,16.6535008 C17.3178719,16.079994 16.7287152,15.7470529 16.1204067,15.8264351 Z M10.086108,21.3665585 L19.4942635,31.1505091 L13.8463976,37.0147067 C13.6426102,37.2263116 13.3813207,37.2262622 13.1775714,37.0147067 L4.43824211,27.9252005 C4.23446235,27.7135956 4.23449945,27.4423116 4.43824211,27.2307561 L10.086108,21.3665585 Z" id="icon-3" stroke="#FFEB89" stroke-width="0.3" fill="#FFEB89" fill-rule="nonzero"></path>
    </g>
</svg>