<?xml version="1.0" encoding="UTF-8"?>
<svg width="20.9px" height="16.5px" viewBox="0 0 20.9 16.5" version="1.1" xmlns="http://www.w3.org/2000/svg" xmlns:xlink="http://www.w3.org/1999/xlink">
    <!-- Generator: Sketch 55.1 (78136) - https://sketchapp.com -->
    <desc>Created with Sketch.</desc>
    <g id="Responsive" stroke="none" stroke-width="1" fill="none" fill-rule="evenodd">
        <path d="M2.6125,14.52 L1.3073884,14.52 C0.585337809,14.52 0,13.9328152 0,13.2058377 L0,1.3141623 C0,0.588370504 0.586644713,0 1.30023798,0 L11.762262,0 C12.4803638,0 13.0625,0.589973868 13.0625,1.32322179 L13.0625,3.3 L16.6605624,3.3 C16.8376729,3.3 17.0704617,3.41268814 17.1864214,3.55916405 L20.6948286,7.99083595 C20.8081419,8.1339683 20.9,8.39273827 20.9,8.5782745 L20.9,13.2056025 C20.9,13.9315242 20.3192008,14.52 19.5926116,14.52 L18.2875,14.52 C18.2875,13.0619683 17.1178439,11.88 15.675,11.88 C14.2321561,11.88 13.0625,13.0619683 13.0625,14.52 L7.8375,14.52 C7.8375,13.0619683 6.66784391,11.88 5.225,11.88 C3.78215609,11.88 2.6125,13.0619683 2.6125,14.52 Z M13.0625,4.62 L13.0625,8.58 L19.59375,8.58 L16.328125,4.62 L13.0625,4.62 Z M15.675,16.5 C14.5928672,16.5 13.715625,15.6135238 13.715625,14.52 C13.715625,13.4264762 14.5928672,12.54 15.675,12.54 C16.7571328,12.54 17.634375,13.4264762 17.634375,14.52 C17.634375,15.6135238 16.7571328,16.5 15.675,16.5 Z M5.225,16.5 C4.14286723,16.5 3.265625,15.6135238 3.265625,14.52 C3.265625,13.4264762 4.14286723,12.54 5.225,12.54 C6.30713277,12.54 7.184375,13.4264762 7.184375,14.52 C7.184375,15.6135238 6.30713277,16.5 5.225,16.5 Z" id="Shape" fill="#000000"></path>
    </g>
</svg>